999
dxfrw 0.6.3
  0
SECTION
  2
HEADER
  9
$ACADVER
  1
AC1021
  9
$DWGCODEPAGE
  3
ANSI_1252
  9
$INSBASE
 10
0
 20
0
 30
0
  9
$EXTMIN
 10
10000000000
 20
10000000000
 30
0
  9
$EXTMAX
 10
-10000000000
 20
-10000000000
 30
0
  9
$LIMMIN
 10
0
 20
0
  9
$LIMMAX
 10
12
 20
9
  9
$ORTHOMODE
 70
    0
  9
$REGENMODE
 70
    1
  9
$FILLMODE
 70
    1
  9
$QTEXTMODE
 70
    0
  9
$MIRRTEXT
 70
    1
  9
$LTSCALE
 40
1
  9
$ATTMODE
 70
    1
  9
$TEXTSIZE
 40
0.2
  9
$TRACEWID
 40
0.05
  9
$TEXTSTYLE
  7
Standard
  9
$CLAYER
  8
0
  9
$CELTYPE
  6
ByLayer
  9
$CECOLOR
 62
  256
  9
$CELTSCALE
 40
1
  9
$DISPSILH
 70
    0
  9
$DIMSCALE
 40
1
  9
$DIMASZ
 40
0.18
  9
$DIMEXO
 40
0.0625
  9
$DIMDLI
 40
0.38
  9
$DIMRND
 40
0
  9
$DIMDLE
 40
0
  9
$DIMEXE
 40
0.18
  9
$DIMTP
 40
0
  9
$DIMTM
 40
0
  9
$DIMTXT
 40
0.18
  9
$DIMCEN
 40
0.09
  9
$DIMTSZ
 40
0
  9
$DIMTOL
 70
    0
  9
$DIMLIM
 70
    0
  9
$DIMTIH
 70
    1
  9
$DIMTOH
 70
    1
  9
$DIMSE1
 70
    0
  9
$DIMSE2
 70
    0
  9
$DIMTAD
 70
    0
  9
$DIMZIN
 70
    0
  9
$DIMBLK
  1

  9
$DIMASO
 70
    1
  9
$DIMSHO
 70
    1
  9
$DIMPOST
  1

  9
$DIMAPOST
  1

  9
$DIMALT
 70
    0
  9
$DIMALTD
 70
    2
  9
$DIMALTF
 40
25.4
  9
$DIMLFAC
 40
1
  9
$DIMTOFL
 70
    0
  9
$DIMTVP
 40
0
  9
$DIMTIX
 70
    0
  9
$DIMSOXD
 70
    0
  9
$DIMSAH
 70
    0
  9
$DIMBLK1
  1

  9
$DIMBLK2
  1

  9
$DIMSTYLE
  2
Standard
  9
$DIMCLRD
 70
    0
  9
$DIMCLRE
 70
    0
  9
$DIMCLRT
 70
    0
  9
$DIMTFAC
 40
1
  9
$DIMGAP
 40
0.09
  9
$DIMJUST
 70
    0
  9
$DIMSD1
 70
    0
  9
$DIMSD2
 70
    0
  9
$DIMTOLJ
 70
    1
  9
$DIMTZIN
 70
    0
  9
$DIMALTZ
 70
    0
  9
$DIMALTTZ
 70
    0
  9
$DIMUPT
 70
    0
  9
$DIMDEC
 70
    4
  9
$DIMTDEC
 70
    4
  9
$DIMALTU
 70
    2
  9
$DIMALTTD
 70
    2
  9
$DIMTXSTY
  7
Standard
  9
$DIMAUNIT
 70
    0
  9
$DIMADEC
 70
    0
  9
$DIMALTRND
 40
0
  9
$DIMAZIN
 70
    0
  9
$DIMDSEP
 70
   46
  9
$DIMATFIT
 70
    3
  9
$DIMFRAC
 70
    0
  9
$DIMLDRBLK
  1

  9
$DIMLUNIT
 70
    2
  9
$DIMLWD
 70
   -2
  9
$DIMLWE
 70
   -2
  9
$DIMTMOVE
 70
    0
  9
$DIMFXL
 40
1
  9
$DIMFXLON
 70
    0
  9
$DIMJOGANG
 40
0.7853981633974483
  9
$DIMTFILL
 70
    0
  9
$DIMTFILLCLR
 70
    0
  9
$DIMARCSYM
 70
    0
  9
$DIMLTYPE
  6

  9
$DIMLTEX1
  6

  9
$DIMLTEX2
  6

  9
$LUNITS
 70
    2
  9
$LUPREC
 70
    4
  9
$SKETCHINC
 40
0.1
  9
$FILLETRAD
 40
0.5
  9
$AUNITS
 70
    0
  9
$AUPREC
 70
    0
  9
$MENU
  1
.
  9
$ELEVATION
 40
0
  9
$PELEVATION
 40
0
  9
$THICKNESS
 40
0
  9
$LIMCHECK
 70
    0
  9
$CHAMFERA
 40
0
  9
$CHAMFERB
 40
0
  9
$CHAMFERC
 40
0
  9
$CHAMFERD
 40
0
  9
$SKPOLY
 70
    0
  9
$USRTIMER
 70
    1
  9
$ANGBASE
 50
0
  9
$ANGDIR
 70
    0
  9
$PDMODE
 70
    0
  9
$PDSIZE
 40
0
  9
$PLINEWID
 40
0
  9
$SPLFRAME
 70
    0
  9
$SPLINETYPE
 70
    6
  9
$SPLINESEGS
 70
    8
  9
$HANDSEED
  5
20000
  9
$SURFTAB1
 70
    6
  9
$SURFTAB2
 70
    6
  9
$SURFTYPE
 70
    6
  9
$SURFU
 70
    6
  9
$SURFV
 70
    6
  9
$UCSBASE
  2

  9
$UCSNAME
  2

  9
$UCSORG
 10
0
 20
0
 30
0
  9
$UCSXDIR
 10
1
 20
0
 30
0
  9
$UCSYDIR
 10
0
 20
1
 30
0
  9
$UCSORTHOREF
  2

  9
$UCSORTHOVIEW
 70
    0
  9
$UCSORGTOP
 10
0
 20
0
 30
0
  9
$UCSORGBOTTOM
 10
0
 20
0
 30
0
  9
$UCSORGLEFT
 10
0
 20
0
 30
0
  9
$UCSORGRIGHT
 10
0
 20
0
 30
0
  9
$UCSORGFRONT
 10
0
 20
0
 30
0
  9
$UCSORGBACK
 10
0
 20
0
 30
0
  9
$PUCSBASE
  2

  9
$PUCSNAME
  2

  9
$PUCSORG
 10
0
 20
0
 30
0
  9
$PUCSXDIR
 10
1
 20
0
 30
0
  9
$PUCSYDIR
 10
0
 20
1
 30
0
  9
$PUCSORTHOREF
  2

  9
$PUCSORTHOVIEW
 70
    0
  9
$PUCSORGTOP
 10
0
 20
0
 30
0
  9
$PUCSORGBOTTOM
 10
0
 20
0
 30
0
  9
$PUCSORGLEFT
 10
0
 20
0
 30
0
  9
$PUCSORGRIGHT
 10
0
 20
0
 30
0
  9
$PUCSORGFRONT
 10
0
 20
0
 30
0
  9
$PUCSORGBACK
 10
0
 20
0
 30
0
  9
$USERI1
 70
    0
  9
$USERI2
 70
    0
  9
$USERI3
 70
    0
  9
$USERI4
 70
    0
  9
$USERI5
 70
    0
  9
$USERR1
 40
0
  9
$USERR2
 40
0
  9
$USERR3
 40
0
  9
$USERR4
 40
0
  9
$USERR5
 40
0
  9
$WORLDVIEW
 70
    1
  9
$SHADEDGE
 70
    3
  9
$SHADEDIF
 70
   70
  9
$TILEMODE
 70
    1
  9
$MAXACTVP
 70
   64
  9
$PINSBASE
 10
0
 20
0
 30
0
  9
$PLIMCHECK
 70
    0
  9
$PEXTMIN
 10
1e+020
 20
1e+020
 30
1e+020
  9
$PEXTMAX
 10
-1e+020
 20
-1e+020
 30
-1e+020
  9
$GRIDMODE
 70
    0
  9
$SNAPSTYLE
 70
    0
  9
$PLIMMIN
 10
0
 20
0
  9
$PLIMMAX
 10
12
 20
9
  9
$UNITMODE
 70
    0
  9
$VISRETAIN
 70
    1
  9
$PLINEGEN
 70
    0
  9
$PSLTSCALE
 70
    1
  9
$TREEDEPTH
 70
 3020
  9
$CMLSTYLE
  2
Standard
  9
$CMLJUST
 70
    0
  9
$CMLSCALE
 40
1
  9
$PROXYGRAPHICS
 70
    1
  9
$MEASUREMENT
 70
    0
  9
$CELWEIGHT
370
   -1
  9
$ENDCAPS
280
    0
  9
$JOINSTYLE
280
    0
  9
$LWDISPLAY
290
    0
  9
$INSUNITS
 70
    4
  9
$HYPERLINKBASE
  1

  9
$STYLESHEET
  1

  9
$XEDIT
290
    1
  9
$CEPSNTYPE
380
    0
  9
$PSTYLEMODE
290
    1
  9
$EXTNAMES
290
    1
  9
$PSVPSCALE
 40
0
  9
$OLESTARTUP
290
    0
  9
$SORTENTS
280
  127
  9
$INDEXCTL
280
    0
  9
$HIDETEXT
280
    1
  9
$XCLIPFRAME
290
    0
  9
$HALOGAP
280
    0
  9
$OBSCOLOR
 70
  257
  9
$OBSLTYPE
280
    0
  9
$INTERSECTIONDISPLAY
280
    0
  9
$INTERSECTIONCOLOR
 70
  257
  9
$DIMASSOC
280
    2
  9
$PROJECTNAME
  1

  9
$CAMERADISPLAY
290
    0
  9
$LENSLENGTH
 40
50
  9
$CAMERAHEIGHT
 40
0
  9
$STEPSPERSEC
 40
2
  9
$STEPSIZE
 40
6
  9
$3DDWFPREC
 40
2
  9
$PSOLWIDTH
 40
0.25
  9
$PSOLHEIGHT
 40
4
  9
$LOFTANG1
 40
1.570796326794897
  9
$LOFTANG2
 40
1.570796326794897
  9
$LOFTMAG1
 40
0
  9
$LOFTMAG2
 40
0
  9
$LOFTPARAM
 70
    7
  9
$LOFTNORMALS
280
    1
  9
$LATITUDE
 40
37.795
  9
$LONGITUDE
 40
-122.394
  9
$NORTHDIRECTION
 40
0
  9
$TIMEZONE
 70
-8000
  9
$LIGHTGLYPHDISPLAY
280
    1
  9
$TILEMODELIGHTSYNCH
280
    1
  9
$SOLIDHIST
280
    0
  9
$SHOWHIST
280
    1
  9
$DWFFRAME
280
    2
  9
$DGNFRAME
280
    2
  9
$REALWORLDSCALE
290
    1
  9
$INTERFERECOLOR
 62
  256
  9
$CSHADOW
280
    0
  9
$SHADOWPLANELOCATION
 40
0
  0
ENDSEC
  0
SECTION
  2
CLASSES
  0
ENDSEC
  0
SECTION
  2
TABLES
  0
TABLE
  2
VPORT
  5
8
330
0
100
AcDbSymbolTable
 70
    1
  0
VPORT
  5
31
330
2
100
AcDbSymbolTableRecord
100
AcDbViewportTableRecord
  2
*ACTIVE
 70
    0
 10
0
 20
0
 11
1
 21
1
 12
99.38110468003804
 22
32.44282763220978
 13
0
 23
0
 14
10
 24
10
 15
10
 25
10
 16
0
 26
0
 36
1
 17
0
 27
0
 37
0
 40
117.3415452848642
 41
2.829931972789116
 42
50
 43
0
 44
0
 50
0
 51
0
 71
    0
 72
  100
 73
    1
 74
    3
 75
    0
 76
    0
 77
    0
 78
    0
281
    0
 65
    1
110
0
120
0
130
0
111
1
121
0
131
0
112
0
122
1
132
0
 79
    0
146
0
348
10020
 60
    7
 61
    5
292
1
282
    1
141
0
142
0
 63
  250
421
3358443
  0
ENDTAB
  0
TABLE
  2
LTYPE
  5
5
330
0
100
AcDbSymbolTable
 70
    4
  0
LTYPE
  5
14
330
5
100
AcDbSymbolTableRecord
100
AcDbLinetypeTableRecord
  2
ByBlock
 70
    0
  3

 72
   65
 73
    0
 40
0
  0
LTYPE
  5
15
330
5
100
AcDbSymbolTableRecord
100
AcDbLinetypeTableRecord
  2
ByLayer
 70
    0
  3

 72
   65
 73
    0
 40
0
  0
LTYPE
  5
16
330
5
100
AcDbSymbolTableRecord
100
AcDbLinetypeTableRecord
  2
Continuous
 70
    0
  3
Solid line
 72
   65
 73
    0
 40
0
  0
LTYPE
  5
32
330
5
100
AcDbSymbolTableRecord
100
AcDbLinetypeTableRecord
  2
DOT
 70
    0
  3
Dot . . . . . . . . . . . . . . . . . . . . . .
 72
   65
 73
    2
 40
6.35
 49
0
 74
    0
 49
-6.35
 74
    0
  0
LTYPE
  5
33
330
5
100
AcDbSymbolTableRecord
100
AcDbLinetypeTableRecord
  2
DOTTINY
 70
    0
  3
Dot (.15x) .....................................
 72
   65
 73
    2
 40
0.9525
 49
0
 74
    0
 49
-0.9525
 74
    0
  0
LTYPE
  5
34
330
5
100
AcDbSymbolTableRecord
100
AcDbLinetypeTableRecord
  2
DOT2
 70
    0
  3
Dot (.5x) .....................................
 72
   65
 73
    2
 40
3.175
 49
0
 74
    0
 49
-3.175
 74
    0
  0
LTYPE
  5
35
330
5
100
AcDbSymbolTableRecord
100
AcDbLinetypeTableRecord
  2
DOTX2
 70
    0
  3
Dot (2x) .  .  .  .  .  .  .  .  .  .  .  .  .
 72
   65
 73
    2
 40
12.7
 49
0
 74
    0
 49
-12.7
 74
    0
  0
LTYPE
  5
36
330
5
100
AcDbSymbolTableRecord
100
AcDbLinetypeTableRecord
  2
DASHED
 70
    0
  3
Dashed _ _ _ _ _ _ _ _ _ _ _ _ _ _ _ _ _
 72
   65
 73
    2
 40
19.05
 49
12.7
 74
    0
 49
-6.35
 74
    0
  0
LTYPE
  5
37
330
5
100
AcDbSymbolTableRecord
100
AcDbLinetypeTableRecord
  2
DASHEDTINY
 70
    0
  3
Dashed (.15x) _ _ _ _ _ _ _ _ _ _ _ _ _ _ _ _ _
 72
   65
 73
    2
 40
2.8575
 49
1.905
 74
    0
 49
-0.9525
 74
    0
  0
LTYPE
  5
38
330
5
100
AcDbSymbolTableRecord
100
AcDbLinetypeTableRecord
  2
DASHED2
 70
    0
  3
Dashed (.5x) _ _ _ _ _ _ _ _ _ _ _ _ _ _ _ _ _
 72
   65
 73
    2
 40
9.524999999999999
 49
6.35
 74
    0
 49
-3.175
 74
    0
  0
LTYPE
  5
39
330
5
100
AcDbSymbolTableRecord
100
AcDbLinetypeTableRecord
  2
DASHEDX2
 70
    0
  3
Dashed (2x) ____  ____  ____  ____  ____  ___
 72
   65
 73
    2
 40
38.09999999999999
 49
25.4
 74
    0
 49
-12.7
 74
    0
  0
LTYPE
  5
3A
330
5
100
AcDbSymbolTableRecord
100
AcDbLinetypeTableRecord
  2
DASHDOT
 70
    0
  3
Dash dot __ . __ . __ . __ . __ . __ . __ . __
 72
   65
 73
    4
 40
25.4
 49
12.7
 74
    0
 49
-6.35
 74
    0
 49
0
 74
    0
 49
-6.35
 74
    0
  0
LTYPE
  5
3B
330
5
100
AcDbSymbolTableRecord
100
AcDbLinetypeTableRecord
  2
DASHDOTTINY
 70
    0
  3
Dash dot (.15x) _._._._._._._._._._._._._._._.
 72
   65
 73
    4
 40
3.81
 49
1.905
 74
    0
 49
-0.9525
 74
    0
 49
0
 74
    0
 49
-0.9525
 74
    0
  0
LTYPE
  5
3C
330
5
100
AcDbSymbolTableRecord
100
AcDbLinetypeTableRecord
  2
DASHDOT2
 70
    0
  3
Dash dot (.5x) _._._._._._._._._._._._._._._.
 72
   65
 73
    4
 40
12.7
 49
6.35
 74
    0
 49
-3.175
 74
    0
 49
0
 74
    0
 49
-3.175
 74
    0
  0
LTYPE
  5
3D
330
5
100
AcDbSymbolTableRecord
100
AcDbLinetypeTableRecord
  2
DASHDOTX2
 70
    0
  3
Dash dot (2x) ____  .  ____  .  ____  .  ___
 72
   65
 73
    4
 40
50.8
 49
25.4
 74
    0
 49
-12.7
 74
    0
 49
0
 74
    0
 49
-12.7
 74
    0
  0
LTYPE
  5
3E
330
5
100
AcDbSymbolTableRecord
100
AcDbLinetypeTableRecord
  2
DIVIDE
 70
    0
  3
Divide ____ . . ____ . . ____ . . ____ . . ____
 72
   65
 73
    6
 40
31.75
 49
12.7
 74
    0
 49
-6.35
 74
    0
 49
0
 74
    0
 49
-6.35
 74
    0
 49
0
 74
    0
 49
-6.35
 74
    0
  0
LTYPE
  5
3F
330
5
100
AcDbSymbolTableRecord
100
AcDbLinetypeTableRecord
  2
DIVIDETINY
 70
    0
  3
Divide (.15x) __..__..__..__..__..__..__..__.._
 72
   65
 73
    6
 40
4.7625
 49
1.905
 74
    0
 49
-0.9525
 74
    0
 49
0
 74
    0
 49
-0.9525
 74
    0
 49
0
 74
    0
 49
-0.9525
 74
    0
  0
LTYPE
  5
40
330
5
100
AcDbSymbolTableRecord
100
AcDbLinetypeTableRecord
  2
DIVIDE2
 70
    0
  3
Divide (.5x) __..__..__..__..__..__..__..__.._
 72
   65
 73
    6
 40
15.875
 49
6.35
 74
    0
 49
-3.175
 74
    0
 49
0
 74
    0
 49
-3.175
 74
    0
 49
0
 74
    0
 49
-3.175
 74
    0
  0
LTYPE
  5
41
330
5
100
AcDbSymbolTableRecord
100
AcDbLinetypeTableRecord
  2
DIVIDEX2
 70
    0
  3
Divide (2x) ________  .  .  ________  .  .  _
 72
   65
 73
    6
 40
63.5
 49
25.4
 74
    0
 49
-12.7
 74
    0
 49
0
 74
    0
 49
-12.7
 74
    0
 49
0
 74
    0
 49
-12.7
 74
    0
  0
LTYPE
  5
42
330
5
100
AcDbSymbolTableRecord
100
AcDbLinetypeTableRecord
  2
BORDER
 70
    0
  3
Border __ __ . __ __ . __ __ . __ __ . __ __ .
 72
   65
 73
    6
 40
44.45
 49
12.7
 74
    0
 49
-6.35
 74
    0
 49
12.7
 74
    0
 49
-6.35
 74
    0
 49
0
 74
    0
 49
-6.35
 74
    0
  0
LTYPE
  5
43
330
5
100
AcDbSymbolTableRecord
100
AcDbLinetypeTableRecord
  2
BORDERTINY
 70
    0
  3
Border (.15x) __.__.__.__.__.__.__.__.__.__.__.
 72
   65
 73
    6
 40
6.6675
 49
1.905
 74
    0
 49
-0.9525
 74
    0
 49
1.905
 74
    0
 49
-0.9525
 74
    0
 49
0
 74
    0
 49
-0.9525
 74
    0
  0
LTYPE
  5
44
330
5
100
AcDbSymbolTableRecord
100
AcDbLinetypeTableRecord
  2
BORDER2
 70
    0
  3
Border (.5x) __.__.__.__.__.__.__.__.__.__.__.
 72
   65
 73
    6
 40
22.225
 49
6.35
 74
    0
 49
-3.175
 74
    0
 49
6.35
 74
    0
 49
-3.175
 74
    0
 49
0
 74
    0
 49
-3.175
 74
    0
  0
LTYPE
  5
45
330
5
100
AcDbSymbolTableRecord
100
AcDbLinetypeTableRecord
  2
BORDERX2
 70
    0
  3
Border (2x) ____  ____  .  ____  ____  .  ___
 72
   65
 73
    6
 40
88.89999999999999
 49
25.4
 74
    0
 49
-12.7
 74
    0
 49
25.4
 74
    0
 49
-12.7
 74
    0
 49
0
 74
    0
 49
-12.7
 74
    0
  0
LTYPE
  5
46
330
5
100
AcDbSymbolTableRecord
100
AcDbLinetypeTableRecord
  2
CENTER
 70
    0
  3
Center ____ _ ____ _ ____ _ ____ _ ____ _ ____
 72
   65
 73
    4
 40
50.8
 49
31.75
 74
    0
 49
-6.35
 74
    0
 49
6.35
 74
    0
 49
-6.35
 74
    0
  0
LTYPE
  5
47
330
5
100
AcDbSymbolTableRecord
100
AcDbLinetypeTableRecord
  2
CENTERTINY
 70
    0
  3
Center (.15x) ___ _ ___ _ ___ _ ___ _ ___ _ ___
 72
   65
 73
    4
 40
7.62
 49
4.7625
 74
    0
 49
-0.9525
 74
    0
 49
0.9525
 74
    0
 49
-0.9525
 74
    0
  0
LTYPE
  5
48
330
5
100
AcDbSymbolTableRecord
100
AcDbLinetypeTableRecord
  2
CENTER2
 70
    0
  3
Center (.5x) ___ _ ___ _ ___ _ ___ _ ___ _ ___
 72
   65
 73
    4
 40
28.575
 49
19.05
 74
    0
 49
-3.175
 74
    0
 49
3.175
 74
    0
 49
-3.175
 74
    0
  0
LTYPE
  5
49
330
5
100
AcDbSymbolTableRecord
100
AcDbLinetypeTableRecord
  2
CENTERX2
 70
    0
  3
Center (2x) ________  __  ________  __  _____
 72
   65
 73
    4
 40
101.6
 49
63.5
 74
    0
 49
-12.7
 74
    0
 49
12.7
 74
    0
 49
-12.7
 74
    0
  0
ENDTAB
  0
TABLE
  2
LAYER
  5
2
330
0
100
AcDbSymbolTable
 70
    1
  0
LAYER
  5
10
330
2
100
AcDbSymbolTableRecord
100
AcDbLayerTableRecord
  2
0
 70
    0
 62
    7
  6
CONTINUOUS
370
   -3
390
F
  0
LAYER
  5
4A
330
2
100
AcDbSymbolTableRecord
100
AcDbLayerTableRecord
  2
Layer 1
 70
    0
 62
    7
  6
CONTINUOUS
370
   -3
390
F
  0
ENDTAB
  0
TABLE
  2
STYLE
  5
3
330
0
100
AcDbSymbolTable
 70
    3
  0
STYLE
  5
4B
330
2
100
AcDbSymbolTableRecord
100
AcDbTextStyleTableRecord
  2
Standard
 70
    0
 40
0
 41
1
 50
0
 71
    0
 42
1
  3
txt
  4

  0
ENDTAB
  0
TABLE
  2
VIEW
  5
6
330
0
100
AcDbSymbolTable
 70
    0
  0
ENDTAB
  0
TABLE
  2
UCS
  5
7
330
0
100
AcDbSymbolTable
 70
    0
  0
ENDTAB
  0
TABLE
  2
APPID
  5
9
330
0
100
AcDbSymbolTable
 70
    1
  0
APPID
  5
12
330
9
100
AcDbSymbolTableRecord
100
AcDbRegAppTableRecord
  2
ACAD
 70
    0
  0
APPID
  5
4C
330
9
100
AcDbSymbolTableRecord
100
AcDbRegAppTableRecord
  2
LibreCad
 70
    0
  0
ENDTAB
  0
TABLE
  2
DIMSTYLE
  5
A
330
0
100
AcDbSymbolTable
 70
    1
100
AcDbDimStyleTable
 71
    1
  0
DIMSTYLE
105
4D
330
A
100
AcDbSymbolTableRecord
100
AcDbDimStyleTableRecord
  2
Standard
 70
    0
 40
1
 41
0.18
 42
0.0625
 43
0.38
 44
0.18
 45
0
 46
0
 47
0
 48
0
 49
1
140
0.18
141
0.09
142
0
143
25.4
144
1
145
0
146
1
147
0.09
148
0
 71
    0
 72
    0
 73
    1
 74
    1
 75
    0
 76
    0
 77
    0
 78
    0
 79
    0
170
    0
171
    2
172
    0
173
    0
174
    0
175
    0
176
    0
177
    0
178
    0
179
    0
271
    4
272
    4
273
    2
274
    2
275
    0
276
    0
277
    2
278
   46
279
    0
280
    0
281
    0
282
    0
283
    1
284
    0
285
    0
286
    0
288
    0
289
    3
340
Standard
341

371
   -2
372
   -2
  0
ENDTAB
  0
TABLE
  2
BLOCK_RECORD
  5
1
330
0
100
AcDbSymbolTable
 70
    2
  0
BLOCK_RECORD
  5
1F
330
1
100
AcDbSymbolTableRecord
100
AcDbBlockTableRecord
  2
*Model_Space
 70
    0
280
    1
281
    0
  0
BLOCK_RECORD
  5
1E
330
1
100
AcDbSymbolTableRecord
100
AcDbBlockTableRecord
  2
*Paper_Space
 70
    0
280
    1
281
    0
  0
ENDTAB
  0
ENDSEC
  0
SECTION
  2
BLOCKS
  0
BLOCK
  5
20
330
1F
100
AcDbEntity
  8
0
100
AcDbBlockBegin
  2
*Model_Space
 70
    0
 10
0
 20
0
 30
0
  3
*Model_Space
  1

  0
ENDBLK
  5
21
330
1F
100
AcDbEntity
  8
0
100
AcDbBlockEnd
  0
BLOCK
  5
1C
330
1B
100
AcDbEntity
  8
0
100
AcDbBlockBegin
  2
*Paper_Space
 70
    0
 10
0
 20
0
 30
0
  3
*Paper_Space
  1

  0
ENDBLK
  5
1D
330
1F
100
AcDbEntity
  8
0
100
AcDbBlockEnd
  0
ENDSEC
  0
SECTION
  2
ENTITIES
  0
SPLINE
  5
4E
100
AcDbEntity
  8
Layer 1
  6
ByLayer
 62
  256
370
   18
100
AcDbSpline
210
0
220
0
230
0
 70
   11
 71
    3
 72
   44
 73
   40
 74
    0
 42
1e-007
 43
1e-007
 40
0
 40
0
 40
0
 40
0
 40
0.0909090909090909
 40
0.0909090909090909
 40
0.0909090909090909
 40
0.0909090909090909
 40
0.1818181818181818
 40
0.1818181818181818
 40
0.1818181818181818
 40
0.1818181818181818
 40
0.2727272727272727
 40
0.2727272727272727
 40
0.2727272727272727
 40
0.2727272727272727
 40
0.3636363636363636
 40
0.3636363636363636
 40
0.3636363636363636
 40
0.3636363636363636
 40
0.4545454545454545
 40
0.4545454545454545
 40
0.4545454545454545
 40
0.4545454545454545
 40
0.5454545454545454
 40
0.5454545454545454
 40
0.5454545454545454
 40
0.5454545454545454
 40
0.6363636363636364
 40
0.6363636363636364
 40
0.6363636363636364
 40
0.6363636363636364
 40
0.7272727272727273
 40
0.7272727272727273
 40
0.7272727272727273
 40
0.7272727272727273
 40
0.8181818181818182
 40
0.8181818181818182
 40
0.8181818181818182
 40
0.8181818181818182
 40
1
 40
1
 40
1
 40
1
 10
22.5145
 20
5.3729
 30
0
 10
22.5238
 20
5.3729
 30
0
 10
22.5334
 20
5.3739
 30
0
 10
22.5427
 20
5.3748
 30
0
 10
22.5427
 20
5.3748
 30
0
 10
22.5504
 20
5.3755
 30
0
 10
22.5588
 20
5.3764
 30
0
 10
22.5671
 20
5.377
 30
0
 10
22.5671
 20
5.377
 30
0
 10
22.6076
 20
5.3786
 30
0
 10
22.6472
 20
5.3794
 30
0
 10
22.688
 20
5.3864
 30
0
 10
22.688
 20
5.3864
 30
0
 10
23.4353
 20
5.4413
 30
0
 10
24.0259
 20
6.199
 30
0
 10
23.8917
 20
6.9367
 30
0
 10
23.8917
 20
6.9367
 30
0
 10
23.8132
 20
7.5895
 30
0
 10
23.2007
 20
8.0692
 30
0
 10
22.5671
 20
8.090299999999999
 30
0
 10
22.5671
 20
8.090299999999999
 30
0
 10
22.5588
 20
8.0908
 30
0
 10
22.5504
 20
8.091699999999999
 30
0
 10
22.5427
 20
8.092599999999999
 30
0
 10
22.5427
 20
8.092599999999999
 30
0
 10
22.5334
 20
8.0937
 30
0
 10
22.5238
 20
8.094900000000001
 30
0
 10
22.5145
 20
8.094900000000001
 30
0
 10
22.5145
 20
8.094900000000001
 30
0
 10
22.3742
 20
8.093999999999999
 30
0
 10
22.234
 20
8.071400000000001
 30
0
 10
22.0983
 20
8.021100000000001
 30
0
 10
22.0983
 20
8.021100000000001
 30
0
 10
21.5304
 20
7.823
 30
0
 10
21.1358
 20
7.222
 30
0
 10
21.2031
 20
6.6186
 30
0
 10
21.2031
 20
6.6186
 30
0
 10
21.2326
 20
5.9488
 30
0
 10
21.8487
 20
5.3661
 30
0
 10
22.5145
 20
5.3729
 30
0
  0
SPLINE
  5
4F
100
AcDbEntity
  8
Layer 1
  6
ByLayer
 62
  256
370
   18
100
AcDbSpline
210
0
220
0
230
0
 70
   11
 71
    3
 72
   44
 73
   40
 74
    0
 42
1e-007
 43
1e-007
 40
0
 40
0
 40
0
 40
0
 40
0.0909090909090909
 40
0.0909090909090909
 40
0.0909090909090909
 40
0.0909090909090909
 40
0.1818181818181818
 40
0.1818181818181818
 40
0.1818181818181818
 40
0.1818181818181818
 40
0.2727272727272727
 40
0.2727272727272727
 40
0.2727272727272727
 40
0.2727272727272727
 40
0.3636363636363636
 40
0.3636363636363636
 40
0.3636363636363636
 40
0.3636363636363636
 40
0.4545454545454545
 40
0.4545454545454545
 40
0.4545454545454545
 40
0.4545454545454545
 40
0.5454545454545454
 40
0.5454545454545454
 40
0.5454545454545454
 40
0.5454545454545454
 40
0.6363636363636364
 40
0.6363636363636364
 40
0.6363636363636364
 40
0.6363636363636364
 40
0.7272727272727273
 40
0.7272727272727273
 40
0.7272727272727273
 40
0.7272727272727273
 40
0.8181818181818182
 40
0.8181818181818182
 40
0.8181818181818182
 40
0.8181818181818182
 40
1
 40
1
 40
1
 40
1
 10
22.5145
 20
-2.4195
 30
0
 10
22.5238
 20
-2.4197
 30
0
 10
22.5334
 20
-2.419
 30
0
 10
22.5427
 20
-2.4183
 30
0
 10
22.5427
 20
-2.4183
 30
0
 10
22.5504
 20
-2.4177
 30
0
 10
22.5588
 20
-2.4176
 30
0
 10
22.5671
 20
-2.417
 30
0
 10
22.5671
 20
-2.417
 30
0
 10
22.604
 20
-2.417
 30
0
 10
22.6413
 20
-2.417
 30
0
 10
22.6789
 20
-2.4129
 30
0
 10
22.6789
 20
-2.4129
 30
0
 10
23.3984
 20
-2.3671
 30
0
 10
23.9854
 20
-1.6625
 30
0
 10
23.9004
 20
-0.9462
 30
0
 10
23.9004
 20
-0.9462
 30
0
 10
23.8631
 20
-0.2622
 30
0
 10
23.2296
 20
0.2769
 30
0
 10
22.5671
 20
0.2861
 30
0
 10
22.5671
 20
0.2861
 30
0
 10
22.5588
 20
0.2865
 30
0
 10
22.5504
 20
0.287
 30
0
 10
22.5427
 20
0.2881
 30
0
 10
22.5427
 20
0.2881
 30
0
 10
22.5334
 20
0.289
 30
0
 10
22.5238
 20
0.2903
 30
0
 10
22.5145
 20
0.2899
 30
0
 10
22.5145
 20
0.2899
 30
0
 10
22.4082
 20
0.2867
 30
0
 10
22.3012
 20
0.2711
 30
0
 10
22.1971
 20
0.2383
 30
0
 10
22.1971
 20
0.2383
 30
0
 10
21.5511
 20
0.0759
 30
0
 10
21.1017
 20
-0.6122
 30
0
 10
21.2178
 20
-1.2693
 30
0
 10
21.2178
 20
-1.2693
 30
0
 10
21.2964
 20
-1.9029
 30
0
 10
21.8832
 20
-2.4061
 30
0
 10
22.5145
 20
-2.4195
 30
0
  0
SPLINE
  5
50
100
AcDbEntity
  8
Layer 1
  6
ByLayer
 62
  256
370
   18
100
AcDbSpline
210
0
220
0
230
0
 70
   11
 71
    3
 72
   44
 73
   40
 74
    0
 42
1e-007
 43
1e-007
 40
0
 40
0
 40
0
 40
0
 40
0.0909090909090909
 40
0.0909090909090909
 40
0.0909090909090909
 40
0.0909090909090909
 40
0.1818181818181818
 40
0.1818181818181818
 40
0.1818181818181818
 40
0.1818181818181818
 40
0.2727272727272727
 40
0.2727272727272727
 40
0.2727272727272727
 40
0.2727272727272727
 40
0.3636363636363636
 40
0.3636363636363636
 40
0.3636363636363636
 40
0.3636363636363636
 40
0.4545454545454545
 40
0.4545454545454545
 40
0.4545454545454545
 40
0.4545454545454545
 40
0.5454545454545454
 40
0.5454545454545454
 40
0.5454545454545454
 40
0.5454545454545454
 40
0.6363636363636364
 40
0.6363636363636364
 40
0.6363636363636364
 40
0.6363636363636364
 40
0.7272727272727273
 40
0.7272727272727273
 40
0.7272727272727273
 40
0.7272727272727273
 40
0.8181818181818182
 40
0.8181818181818182
 40
0.8181818181818182
 40
0.8181818181818182
 40
1
 40
1
 40
1
 40
1
 10
22.5671
 20
-6.5155
 30
0
 10
22.5588
 20
-6.5155
 30
0
 10
22.5504
 20
-6.5147
 30
0
 10
22.5427
 20
-6.514
 30
0
 10
22.5427
 20
-6.514
 30
0
 10
22.5334
 20
-6.5132
 30
0
 10
22.5238
 20
-6.5121
 30
0
 10
22.5145
 20
-6.5123
 30
0
 10
22.5145
 20
-6.5123
 30
0
 10
22.3738
 20
-6.5151
 30
0
 10
22.2335
 20
-6.5408
 30
0
 10
22.0983
 20
-6.5938
 30
0
 10
22.0983
 20
-6.5938
 30
0
 10
21.4246
 20
-6.8167
 30
0
 10
21.032
 20
-7.6161
 30
0
 10
21.2688
 20
-8.2867
 30
0
 10
21.2688
 20
-8.2867
 30
0
 10
21.4287
 20
-8.8284
 30
0
 10
21.9635
 20
-9.197900000000001
 30
0
 10
22.5145
 20
-9.2193
 30
0
 10
22.5145
 20
-9.2193
 30
0
 10
22.5238
 20
-9.2197
 30
0
 10
22.5334
 20
-9.2188
 30
0
 10
22.5427
 20
-9.2179
 30
0
 10
22.5427
 20
-9.2179
 30
0
 10
22.5504
 20
-9.216799999999999
 30
0
 10
22.5588
 20
-9.2165
 30
0
 10
22.5671
 20
-9.2165
 30
0
 10
22.5671
 20
-9.2165
 30
0
 10
22.7105
 20
-9.2166
 30
0
 10
22.8541
 20
-9.197900000000001
 30
0
 10
22.9918
 20
-9.1473
 30
0
 10
22.9918
 20
-9.1473
 30
0
 10
23.6666
 20
-8.9344
 30
0
 10
24.0703
 20
-8.1418
 30
0
 10
23.8473
 20
-7.4705
 30
0
 10
23.8473
 20
-7.4705
 30
0
 10
23.6921
 20
-6.9076
 30
0
 10
23.1343
 20
-6.5262
 30
0
 10
22.5671
 20
-6.5155
 30
0
  0
SPLINE
  5
51
100
AcDbEntity
  8
Layer 1
  6
ByLayer
 62
  256
370
   18
100
AcDbSpline
210
0
220
0
230
0
 70
   11
 71
    3
 72
   44
 73
   40
 74
    0
 42
1e-007
 43
1e-007
 40
0
 40
0
 40
0
 40
0
 40
0.0909090909090909
 40
0.0909090909090909
 40
0.0909090909090909
 40
0.0909090909090909
 40
0.1818181818181818
 40
0.1818181818181818
 40
0.1818181818181818
 40
0.1818181818181818
 40
0.2727272727272727
 40
0.2727272727272727
 40
0.2727272727272727
 40
0.2727272727272727
 40
0.3636363636363636
 40
0.3636363636363636
 40
0.3636363636363636
 40
0.3636363636363636
 40
0.4545454545454545
 40
0.4545454545454545
 40
0.4545454545454545
 40
0.4545454545454545
 40
0.5454545454545454
 40
0.5454545454545454
 40
0.5454545454545454
 40
0.5454545454545454
 40
0.6363636363636364
 40
0.6363636363636364
 40
0.6363636363636364
 40
0.6363636363636364
 40
0.7272727272727273
 40
0.7272727272727273
 40
0.7272727272727273
 40
0.7272727272727273
 40
0.8181818181818182
 40
0.8181818181818182
 40
0.8181818181818182
 40
0.8181818181818182
 40
1
 40
1
 40
1
 40
1
 10
23.8473
 20
-14.9394
 30
0
 10
23.6921
 20
-14.3765
 30
0
 10
23.1343
 20
-13.9961
 30
0
 10
22.5671
 20
-13.9849
 30
0
 10
22.5671
 20
-13.9849
 30
0
 10
22.5588
 20
-13.9849
 30
0
 10
22.5504
 20
-13.984
 30
0
 10
22.5427
 20
-13.9835
 30
0
 10
22.5427
 20
-13.9835
 30
0
 10
22.5334
 20
-13.9826
 30
0
 10
22.5238
 20
-13.9815
 30
0
 10
22.5145
 20
-13.9815
 30
0
 10
22.5145
 20
-13.9815
 30
0
 10
22.3724
 20
-13.9849
 30
0
 10
22.2303
 20
-14.0108
 30
0
 10
22.0946
 20
-14.0635
 30
0
 10
22.0946
 20
-14.0635
 30
0
 10
21.455
 20
-14.2791
 30
0
 10
21.061
 20
-15.017
 30
0
 10
21.2447
 20
-15.6695
 30
0
 10
21.2447
 20
-15.6695
 30
0
 10
21.3734
 20
-16.2517
 30
0
 10
21.933
 20
-16.6688
 30
0
 10
22.5145
 20
-16.6909
 30
0
 10
22.5145
 20
-16.6909
 30
0
 10
22.5238
 20
-16.6911
 30
0
 10
22.5334
 20
-16.6902
 30
0
 10
22.5427
 20
-16.6895
 30
0
 10
22.5427
 20
-16.6895
 30
0
 10
22.5504
 20
-16.6888
 30
0
 10
22.5588
 20
-16.6884
 30
0
 10
22.5671
 20
-16.6884
 30
0
 10
22.5671
 20
-16.6884
 30
0
 10
22.686
 20
-16.6884
 30
0
 10
22.8055
 20
-16.6743
 30
0
 10
22.9218
 20
-16.6383
 30
0
 10
22.9218
 20
-16.6383
 30
0
 10
23.6333
 20
-16.4557
 30
0
 10
24.0794
 20
-15.6358
 30
0
 10
23.8473
 20
-14.9394
 30
0
  0
SPLINE
  5
52
100
AcDbEntity
  8
Layer 1
  6
ByLayer
 62
  256
370
   18
100
AcDbSpline
210
0
220
0
230
0
 70
   11
 71
    3
 72
  136
 73
  132
 74
    0
 42
1e-007
 43
1e-007
 40
0
 40
0
 40
0
 40
0
 40
0.0294117647058824
 40
0.0294117647058824
 40
0.0294117647058824
 40
0.0294117647058824
 40
0.0588235294117647
 40
0.0588235294117647
 40
0.0588235294117647
 40
0.0588235294117647
 40
0.08823529411764711
 40
0.08823529411764711
 40
0.08823529411764711
 40
0.08823529411764711
 40
0.1176470588235294
 40
0.1176470588235294
 40
0.1176470588235294
 40
0.1176470588235294
 40
0.1470588235294118
 40
0.1470588235294118
 40
0.1470588235294118
 40
0.1470588235294118
 40
0.1764705882352941
 40
0.1764705882352941
 40
0.1764705882352941
 40
0.1764705882352941
 40
0.2058823529411765
 40
0.2058823529411765
 40
0.2058823529411765
 40
0.2058823529411765
 40
0.2352941176470588
 40
0.2352941176470588
 40
0.2352941176470588
 40
0.2352941176470588
 40
0.2647058823529412
 40
0.2647058823529412
 40
0.2647058823529412
 40
0.2647058823529412
 40
0.2941176470588235
 40
0.2941176470588235
 40
0.2941176470588235
 40
0.2941176470588235
 40
0.3235294117647059
 40
0.3235294117647059
 40
0.3235294117647059
 40
0.3235294117647059
 40
0.3529411764705883
 40
0.3529411764705883
 40
0.3529411764705883
 40
0.3529411764705883
 40
0.3823529411764706
 40
0.3823529411764706
 40
0.3823529411764706
 40
0.3823529411764706
 40
0.4117647058823529
 40
0.4117647058823529
 40
0.4117647058823529
 40
0.4117647058823529
 40
0.4411764705882353
 40
0.4411764705882353
 40
0.4411764705882353
 40
0.4411764705882353
 40
0.4705882352941176
 40
0.4705882352941176
 40
0.4705882352941176
 40
0.4705882352941176
 40
0.5
 40
0.5
 40
0.5
 40
0.5
 40
0.5294117647058824
 40
0.5294117647058824
 40
0.5294117647058824
 40
0.5294117647058824
 40
0.5588235294117647
 40
0.5588235294117647
 40
0.5588235294117647
 40
0.5588235294117647
 40
0.5882352941176471
 40
0.5882352941176471
 40
0.5882352941176471
 40
0.5882352941176471
 40
0.6176470588235294
 40
0.6176470588235294
 40
0.6176470588235294
 40
0.6176470588235294
 40
0.6470588235294118
 40
0.6470588235294118
 40
0.6470588235294118
 40
0.6470588235294118
 40
0.6764705882352942
 40
0.6764705882352942
 40
0.6764705882352942
 40
0.6764705882352942
 40
0.7058823529411765
 40
0.7058823529411765
 40
0.7058823529411765
 40
0.7058823529411765
 40
0.7352941176470589
 40
0.7352941176470589
 40
0.7352941176470589
 40
0.7352941176470589
 40
0.7647058823529411
 40
0.7647058823529411
 40
0.7647058823529411
 40
0.7647058823529411
 40
0.7941176470588235
 40
0.7941176470588235
 40
0.7941176470588235
 40
0.7941176470588235
 40
0.8235294117647058
 40
0.8235294117647058
 40
0.8235294117647058
 40
0.8235294117647058
 40
0.8529411764705882
 40
0.8529411764705882
 40
0.8529411764705882
 40
0.8529411764705882
 40
0.8823529411764706
 40
0.8823529411764706
 40
0.8823529411764706
 40
0.8823529411764706
 40
0.9117647058823529
 40
0.9117647058823529
 40
0.9117647058823529
 40
0.9117647058823529
 40
0.9411764705882353
 40
0.9411764705882353
 40
0.9411764705882353
 40
0.9411764705882353
 40
1
 40
1
 40
1
 40
1
 10
22.5671
 20
-5.365
 30
0
 10
22.6417
 20
-5.3678
 30
0
 10
22.7157
 20
-5.376
 30
0
 10
22.7895
 20
-5.3848
 30
0
 10
22.7895
 20
-5.3848
 30
0
 10
22.8292
 20
-5.3894
 30
0
 10
22.8683
 20
-5.398
 30
0
 10
22.9077
 20
-5.4045
 30
0
 10
22.9077
 20
-5.4045
 30
0
 10
23.5272
 20
-5.5062
 30
0
 10
24.1021
 20
-5.8145
 30
0
 10
24.5192
 20
-6.2931
 30
0
 10
24.5192
 20
-6.2931
 30
0
 10
28.7922
 20
-4.5921
 30
0
 10
33.0191
 20
-2.7409
 30
0
 10
37.0018
 20
-0.4255
 30
0
 10
37.0018
 20
-0.4255
 30
0
 10
37.0018
 20
0.09030000000000001
 30
0
 10
37.0004
 20
0.6064000000000001
 30
0
 10
37.0018
 20
1.1226
 30
0
 10
37.0018
 20
1.1226
 30
0
 10
37.0041
 20
4.0931
 30
0
 10
37.0041
 20
7.0622
 30
0
 10
37.0051
 20
10.0325
 30
0
 10
37.0051
 20
10.0325
 30
0
 10
34.3294
 20
9.3886
 30
0
 10
31.5305
 20
9.4239
 30
0
 10
28.8291
 20
9.8779
 30
0
 10
28.8291
 20
9.8779
 30
0
 10
27.1847
 20
10.1627
 30
0
 10
25.5634
 20
10.5828
 30
0
 10
23.9931
 20
11.1449
 30
0
 10
23.9931
 20
11.1449
 30
0
 10
23.5195
 20
11.3144
 30
0
 10
23.0502
 20
11.4954
 30
0
 10
22.5864
 20
11.6917
 30
0
 10
22.5864
 20
11.6917
 30
0
 10
22.5799
 20
11.6896
 30
0
 10
22.5735
 20
11.6867
 30
0
 10
22.5671
 20
11.6845
 30
0
 10
22.5671
 20
11.6845
 30
0
 10
22.5588
 20
11.6818
 30
0
 10
22.5504
 20
11.6788
 30
0
 10
22.5427
 20
11.6761
 30
0
 10
22.5427
 20
11.6761
 30
0
 10
22.5427
 20
11.6761
 30
0
 10
22.5427
 20
9.235099999999999
 30
0
 10
22.5427
 20
9.235099999999999
 30
0
 10
22.5427
 20
9.235099999999999
 30
0
 10
22.5504
 20
9.2347
 30
0
 10
22.5588
 20
9.234299999999999
 30
0
 10
22.5671
 20
9.234299999999999
 30
0
 10
22.5671
 20
9.234299999999999
 30
0
 10
22.6805
 20
9.2372
 30
0
 10
22.795
 20
9.2377
 30
0
 10
22.9077
 20
9.226000000000001
 30
0
 10
22.9077
 20
9.226000000000001
 30
0
 10
23.2979
 20
9.166399999999999
 30
0
 10
23.6705
 20
9.012499999999999
 30
0
 10
23.9931
 20
8.7887
 30
0
 10
23.9931
 20
8.7887
 30
0
 10
24.3451
 20
8.5448
 30
0
 10
24.6378
 20
8.2163
 30
0
 10
24.8218
 20
7.8249
 30
0
 10
24.8218
 20
7.8249
 30
0
 10
25.2884
 20
6.8922
 30
0
 10
25.0825
 20
5.6813
 30
0
 10
24.3332
 20
4.955
 30
0
 10
24.3332
 20
4.955
 30
0
 10
23.9735
 20
4.5811
 30
0
 10
23.4944
 20
4.3644
 30
0
 10
22.9918
 20
4.2614
 30
0
 10
22.9918
 20
4.2614
 30
0
 10
22.8541
 20
4.2329
 30
0
 10
22.7146
 20
4.2114
 30
0
 10
22.5755
 20
4.1995
 30
0
 10
22.5755
 20
4.1995
 30
0
 10
22.5727
 20
4.1995
 30
0
 10
22.5698
 20
4.2001
 30
0
 10
22.5671
 20
4.2004
 30
0
 10
22.5671
 20
4.2004
 30
0
 10
22.5588
 20
4.2006
 30
0
 10
22.5504
 20
4.2015
 30
0
 10
22.5427
 20
4.2024
 30
0
 10
22.5427
 20
4.2024
 30
0
 10
22.5427
 20
4.2024
 30
0
 10
22.5427
 20
1.4431
 30
0
 10
22.5427
 20
1.4431
 30
0
 10
22.5427
 20
1.4431
 30
0
 10
22.5504
 20
1.4443
 30
0
 10
22.5588
 20
1.4452
 30
0
 10
22.5671
 20
1.4461
 30
0
 10
22.5671
 20
1.4461
 30
0
 10
22.5698
 20
1.4466
 30
0
 10
22.573
 20
1.447
 30
0
 10
22.5764
 20
1.4472
 30
0
 10
22.5764
 20
1.4472
 30
0
 10
22.7166
 20
1.4391
 30
0
 10
22.8549
 20
1.417
 30
0
 10
22.9918
 20
1.3885
 30
0
 10
22.9918
 20
1.3885
 30
0
 10
23.6153
 20
1.2581
 30
0
 10
24.1884
 20
0.9245
 30
0
 10
24.5885
 20
0.4181
 30
0
 10
24.5885
 20
0.4181
 30
0
 10
25.141
 20
-0.3664
 30
0
 10
25.2432
 20
-1.457
 30
0
 10
24.7588
 20
-2.2997
 30
0
 10
24.7588
 20
-2.2997
 30
0
 10
24.3895
 20
-2.9978
 30
0
 10
23.675
 20
-3.44
 30
0
 10
22.9077
 20
-3.5668
 30
0
 10
22.9077
 20
-3.5668
 30
0
 10
22.8683
 20
-3.5734
 30
0
 10
22.8292
 20
-3.5829
 30
0
 10
22.7895
 20
-3.588
 30
0
 10
22.7895
 20
-3.588
 30
0
 10
22.7157
 20
-3.5966
 30
0
 10
22.6413
 20
-3.6073
 30
0
 10
22.5671
 20
-3.6101
 30
0
 10
22.5671
 20
-3.6101
 30
0
 10
22.5596
 20
-3.61
 30
0
 10
22.5504
 20
-3.6094
 30
0
 10
22.5427
 20
-3.6089
 30
0
 10
22.5427
 20
-3.6089
 30
0
 10
22.5427
 20
-3.6089
 30
0
 10
22.5427
 20
-5.3675
 30
0
 10
22.5427
 20
-5.3675
 30
0
 10
22.5427
 20
-5.3675
 30
0
 10
22.5504
 20
-5.3664
 30
0
 10
22.5596
 20
-5.3657
 30
0
 10
22.5671
 20
-5.365
 30
0
  0
SPLINE
  5
53
100
AcDbEntity
  8
Layer 1
  6
ByLayer
 62
  256
370
   18
100
AcDbSpline
210
0
220
0
230
0
 70
   11
 71
    3
 72
   56
 73
   52
 74
    0
 42
1e-007
 43
1e-007
 40
0
 40
0
 40
0
 40
0
 40
0.0714285714285714
 40
0.0714285714285714
 40
0.0714285714285714
 40
0.0714285714285714
 40
0.1428571428571428
 40
0.1428571428571428
 40
0.1428571428571428
 40
0.1428571428571428
 40
0.2142857142857143
 40
0.2142857142857143
 40
0.2142857142857143
 40
0.2142857142857143
 40
0.2857142857142857
 40
0.2857142857142857
 40
0.2857142857142857
 40
0.2857142857142857
 40
0.3571428571428572
 40
0.3571428571428572
 40
0.3571428571428572
 40
0.3571428571428572
 40
0.4285714285714285
 40
0.4285714285714285
 40
0.4285714285714285
 40
0.4285714285714285
 40
0.5
 40
0.5
 40
0.5
 40
0.5
 40
0.5714285714285714
 40
0.5714285714285714
 40
0.5714285714285714
 40
0.5714285714285714
 40
0.6428571428571429
 40
0.6428571428571429
 40
0.6428571428571429
 40
0.6428571428571429
 40
0.7142857142857143
 40
0.7142857142857143
 40
0.7142857142857143
 40
0.7142857142857143
 40
0.7857142857142857
 40
0.7857142857142857
 40
0.7857142857142857
 40
0.7857142857142857
 40
0.8571428571428571
 40
0.8571428571428571
 40
0.8571428571428571
 40
0.8571428571428571
 40
1
 40
1
 40
1
 40
1
 10
22.5145
 20
-23.304
 30
0
 10
18.9913
 20
-21.8329
 30
0
 10
15.6724
 20
-19.8095
 30
0
 10
12.9008
 20
-17.1695
 30
0
 10
12.9008
 20
-17.1695
 30
0
 10
10.4885
 20
-14.8332
 30
0
 10
8.4031
 20
-12.0687
 30
0
 10
7.2561
 20
-8.886100000000001
 30
0
 10
7.2561
 20
-8.886100000000001
 30
0
 10
5.9555
 20
-9.7919
 30
0
 10
4.5758
 20
-10.6585
 30
0
 10
3.586
 20
-11.9214
 30
0
 10
3.586
 20
-11.9214
 30
0
 10
3.2595
 20
-12.3308
 30
0
 10
3.0214
 20
-13.0129
 30
0
 10
3.4854
 20
-13.4182
 30
0
 10
3.4854
 20
-13.4182
 30
0
 10
4.1279
 20
-13.9574
 30
0
 10
5.0147
 20
-13.9995
 30
0
 10
5.8091
 20
-14.1122
 30
0
 10
5.8091
 20
-14.1122
 30
0
 10
5.3948
 20
-13.8877
 30
0
 10
4.9243
 20
-13.6844
 30
0
 10
4.6741
 20
-13.2616
 30
0
 10
4.6741
 20
-13.2616
 30
0
 10
4.4587
 20
-12.9176
 30
0
 10
4.5403
 20
-12.4713
 30
0
 10
4.7488
 20
-12.1445
 30
0
 10
4.7488
 20
-12.1445
 30
0
 10
5.1484
 20
-11.4977
 30
0
 10
5.7916
 20
-11.0612
 30
0
 10
6.4086
 20
-10.6413
 30
0
 10
6.4086
 20
-10.6413
 30
0
 10
7.82
 20
-13.4203
 30
0
 10
9.708399999999999
 20
-15.9491
 30
0
 10
11.9503
 20
-18.1128
 30
0
 10
11.9503
 20
-18.1128
 30
0
 10
14.9868
 20
-20.9933
 30
0
 10
18.5926
 20
-23.3587
 30
0
 10
22.5286
 20
-24.8055
 30
0
 10
22.5286
 20
-24.8055
 30
0
 10
22.5338
 20
-24.8037
 30
0
 10
22.5379
 20
-24.8014
 30
0
 10
22.5427
 20
-24.7989
 30
0
 10
22.5427
 20
-24.7989
 30
0
 10
22.5427
 20
-24.7989
 30
0
 10
22.5427
 20
-23.3263
 30
0
 10
22.5427
 20
-23.3263
 30
0
 10
22.5427
 20
-23.3263
 30
0
 10
22.5357
 20
-23.3218
 30
0
 10
22.5186
 20
-23.3056
 30
0
 10
22.5145
 20
-23.304
 30
0
  0
SPLINE
  5
54
100
AcDbEntity
  8
Layer 1
  6
ByLayer
 62
  256
370
   18
100
AcDbSpline
210
0
220
0
230
0
 70
   11
 71
    3
 72
   88
 73
   84
 74
    0
 42
1e-007
 43
1e-007
 40
0
 40
0
 40
0
 40
0
 40
0.0454545454545455
 40
0.0454545454545455
 40
0.0454545454545455
 40
0.0454545454545455
 40
0.0909090909090909
 40
0.0909090909090909
 40
0.0909090909090909
 40
0.0909090909090909
 40
0.1363636363636364
 40
0.1363636363636364
 40
0.1363636363636364
 40
0.1363636363636364
 40
0.1818181818181818
 40
0.1818181818181818
 40
0.1818181818181818
 40
0.1818181818181818
 40
0.2272727272727273
 40
0.2272727272727273
 40
0.2272727272727273
 40
0.2272727272727273
 40
0.2727272727272727
 40
0.2727272727272727
 40
0.2727272727272727
 40
0.2727272727272727
 40
0.3181818181818182
 40
0.3181818181818182
 40
0.3181818181818182
 40
0.3181818181818182
 40
0.3636363636363636
 40
0.3636363636363636
 40
0.3636363636363636
 40
0.3636363636363636
 40
0.4090909090909091
 40
0.4090909090909091
 40
0.4090909090909091
 40
0.4090909090909091
 40
0.4545454545454545
 40
0.4545454545454545
 40
0.4545454545454545
 40
0.4545454545454545
 40
0.5
 40
0.5
 40
0.5
 40
0.5
 40
0.5454545454545454
 40
0.5454545454545454
 40
0.5454545454545454
 40
0.5454545454545454
 40
0.5909090909090909
 40
0.5909090909090909
 40
0.5909090909090909
 40
0.5909090909090909
 40
0.6363636363636364
 40
0.6363636363636364
 40
0.6363636363636364
 40
0.6363636363636364
 40
0.6818181818181818
 40
0.6818181818181818
 40
0.6818181818181818
 40
0.6818181818181818
 40
0.7272727272727273
 40
0.7272727272727273
 40
0.7272727272727273
 40
0.7272727272727273
 40
0.7727272727272727
 40
0.7727272727272727
 40
0.7727272727272727
 40
0.7727272727272727
 40
0.8181818181818182
 40
0.8181818181818182
 40
0.8181818181818182
 40
0.8181818181818182
 40
0.8636363636363636
 40
0.8636363636363636
 40
0.8636363636363636
 40
0.8636363636363636
 40
0.9090909090909091
 40
0.9090909090909091
 40
0.9090909090909091
 40
0.9090909090909091
 40
1
 40
1
 40
1
 40
1
 10
22.5671
 20
-21.2774
 30
0
 10
22.7552
 20
-21.204
 30
0
 10
22.9412
 20
-21.126
 30
0
 10
23.1272
 20
-21.0476
 30
0
 10
23.1272
 20
-21.0476
 30
0
 10
26.9577
 20
-19.4361
 30
0
 10
30.296
 20
-16.7975
 30
0
 10
33.0804
 20
-13.7386
 30
0
 10
33.0804
 20
-13.7386
 30
0
 10
33.4094
 20
-13.4132
 30
0
 10
33.6353
 20
-12.9551
 30
0
 10
34.0856
 20
-12.7756
 30
0
 10
34.0856
 20
-12.7756
 30
0
 10
34.9999
 20
-12.3533
 30
0
 10
35.8925
 20
-11.8884
 30
0
 10
36.773
 20
-11.4002
 30
0
 10
36.773
 20
-11.4002
 30
0
 10
35.9351
 20
-13.2469
 30
0
 10
34.6418
 20
-14.8481
 30
0
 10
33.199
 20
-16.2567
 30
0
 10
33.199
 20
-16.2567
 30
0
 10
30.1048
 20
-19.2134
 30
0
 10
26.4186
 20
-21.4875
 30
0
 10
22.5671
 20
-23.3194
 30
0
 10
22.5671
 20
-23.3194
 30
0
 10
22.5596
 20
-23.3218
 30
0
 10
22.5532
 20
-23.3256
 30
0
 10
22.5459
 20
-23.3292
 30
0
 10
22.5459
 20
-23.3292
 30
0
 10
22.5459
 20
-23.329
 30
0
 10
22.5434
 20
-23.3266
 30
0
 10
22.5427
 20
-23.3263
 30
0
 10
22.5427
 20
-23.3263
 30
0
 10
22.5427
 20
-23.3263
 30
0
 10
22.5427
 20
-24.7989
 30
0
 10
22.5427
 20
-24.7989
 30
0
 10
22.5427
 20
-24.7989
 30
0
 10
22.5504
 20
-24.7959
 30
0
 10
22.5588
 20
-24.7919
 30
0
 10
22.5671
 20
-24.7885
 30
0
 10
22.5671
 20
-24.7885
 30
0
 10
27.108
 20
-22.8457
 30
0
 10
31.4016
 20
-20.1421
 30
0
 10
34.7244
 20
-16.4507
 30
0
 10
34.7244
 20
-16.4507
 30
0
 10
36.5197
 20
-14.4232
 30
0
 10
38.1003
 20
-12.1371
 30
0
 10
38.9646
 20
-9.550800000000001
 30
0
 10
38.9646
 20
-9.550800000000001
 30
0
 10
38.3917
 20
-9.9285
 30
0
 10
37.7991
 20
-10.2782
 30
0
 10
37.1853
 20
-10.5877
 30
0
 10
37.1853
 20
-10.5877
 30
0
 10
35.0653
 20
-11.7019
 30
0
 10
32.8764
 20
-12.6762
 30
0
 10
30.6747
 20
-13.615
 30
0
 10
30.6747
 20
-13.615
 30
0
 10
28.8245
 20
-14.379
 30
0
 10
26.9826
 20
-15.1896
 30
0
 10
25.0554
 20
-15.7395
 30
0
 10
25.0554
 20
-15.7395
 30
0
 10
24.935
 20
-16.2503
 30
0
 10
24.7203
 20
-16.7508
 30
0
 10
24.3357
 20
-17.119
 30
0
 10
24.3357
 20
-17.119
 30
0
 10
24.0084
 20
-17.4592
 30
0
 10
23.5812
 20
-17.67
 30
0
 10
23.1272
 20
-17.7779
 30
0
 10
23.1272
 20
-17.7779
 30
0
 10
22.943
 20
-17.8218
 30
0
 10
22.7549
 20
-17.8505
 30
0
 10
22.5671
 20
-17.8613
 30
0
 10
22.5671
 20
-17.8613
 30
0
 10
22.5588
 20
-17.8619
 30
0
 10
22.5504
 20
-17.8635
 30
0
 10
22.5427
 20
-17.8647
 30
0
 10
22.5427
 20
-17.8647
 30
0
 10
22.5427
 20
-17.8647
 30
0
 10
22.5427
 20
-21.2878
 30
0
 10
22.5427
 20
-21.2878
 30
0
 10
22.5427
 20
-21.2878
 30
0
 10
22.5504
 20
-21.284
 30
0
 10
22.5588
 20
-21.2807
 30
0
 10
22.5671
 20
-21.2774
 30
0
  0
SPLINE
  5
55
100
AcDbEntity
  8
Layer 1
  6
ByLayer
 62
  256
370
   18
100
AcDbSpline
210
0
220
0
230
0
 70
   11
 71
    3
 72
   92
 73
   88
 74
    0
 42
1e-007
 43
1e-007
 40
0
 40
0
 40
0
 40
0
 40
0.0434782608695652
 40
0.0434782608695652
 40
0.0434782608695652
 40
0.0434782608695652
 40
0.0869565217391304
 40
0.0869565217391304
 40
0.0869565217391304
 40
0.0869565217391304
 40
0.1304347826086956
 40
0.1304347826086956
 40
0.1304347826086956
 40
0.1304347826086956
 40
0.1739130434782609
 40
0.1739130434782609
 40
0.1739130434782609
 40
0.1739130434782609
 40
0.2173913043478261
 40
0.2173913043478261
 40
0.2173913043478261
 40
0.2173913043478261
 40
0.2608695652173913
 40
0.2608695652173913
 40
0.2608695652173913
 40
0.2608695652173913
 40
0.3043478260869565
 40
0.3043478260869565
 40
0.3043478260869565
 40
0.3043478260869565
 40
0.3478260869565217
 40
0.3478260869565217
 40
0.3478260869565217
 40
0.3478260869565217
 40
0.391304347826087
 40
0.391304347826087
 40
0.391304347826087
 40
0.391304347826087
 40
0.4347826086956522
 40
0.4347826086956522
 40
0.4347826086956522
 40
0.4347826086956522
 40
0.4782608695652174
 40
0.4782608695652174
 40
0.4782608695652174
 40
0.4782608695652174
 40
0.5217391304347826
 40
0.5217391304347826
 40
0.5217391304347826
 40
0.5217391304347826
 40
0.5652173913043478
 40
0.5652173913043478
 40
0.5652173913043478
 40
0.5652173913043478
 40
0.6086956521739131
 40
0.6086956521739131
 40
0.6086956521739131
 40
0.6086956521739131
 40
0.6521739130434783
 40
0.6521739130434783
 40
0.6521739130434783
 40
0.6521739130434783
 40
0.6956521739130435
 40
0.6956521739130435
 40
0.6956521739130435
 40
0.6956521739130435
 40
0.7391304347826086
 40
0.7391304347826086
 40
0.7391304347826086
 40
0.7391304347826086
 40
0.7826086956521739
 40
0.7826086956521739
 40
0.7826086956521739
 40
0.7826086956521739
 40
0.8260869565217391
 40
0.8260869565217391
 40
0.8260869565217391
 40
0.8260869565217391
 40
0.8695652173913043
 40
0.8695652173913043
 40
0.8695652173913043
 40
0.8695652173913043
 40
0.9130434782608695
 40
0.9130434782608695
 40
0.9130434782608695
 40
0.9130434782608695
 40
1
 40
1
 40
1
 40
1
 10
43.3133
 20
-1.7741
 30
0
 10
42.7382
 20
-1.3544
 30
0
 10
41.995
 20
-1.3091
 30
0
 10
41.3122
 20
-1.2433
 30
0
 10
41.3122
 20
-1.2433
 30
0
 10
41.7191
 20
-1.448
 30
0
 10
42.1897
 20
-1.659
 30
0
 10
42.3774
 20
-2.1065
 30
0
 10
42.3774
 20
-2.1065
 30
0
 10
42.5663
 20
-2.565
 30
0
 10
42.3443
 20
-3.0668
 30
0
 10
42.0775
 20
-3.4438
 30
0
 10
42.0775
 20
-3.4438
 30
0
 10
41.4784
 20
-4.2553
 30
0
 10
40.6618
 20
-4.8732
 30
0
 10
39.826
 20
-5.4245
 30
0
 10
39.826
 20
-5.4245
 30
0
 10
39.8592
 20
-3.9725
 30
0
 10
39.9031
 20
-2.5215
 30
0
 10
39.9395
 20
-1.0695
 30
0
 10
39.9395
 20
-1.0695
 30
0
 10
35.2451
 20
-3.7448
 30
0
 10
30.3434
 20
-6.0733
 30
0
 10
25.2606
 20
-7.9035
 30
0
 10
25.2606
 20
-7.9035
 30
0
 10
24.9566
 20
-8.4572
 30
0
 10
24.802
 20
-9.1027
 30
0
 10
24.3587
 20
-9.576700000000001
 30
0
 10
24.3587
 20
-9.576700000000001
 30
0
 10
24.0965
 20
-9.895200000000001
 30
0
 10
23.7478
 20
-10.1066
 30
0
 10
23.3672
 20
-10.2399
 30
0
 10
23.3672
 20
-10.2399
 30
0
 10
23.1097
 20
-10.3304
 30
0
 10
22.8378
 20
-10.3859
 30
0
 10
22.5671
 20
-10.4112
 30
0
 10
22.5671
 20
-10.4112
 30
0
 10
22.5588
 20
-10.4121
 30
0
 10
22.5504
 20
-10.4135
 30
0
 10
22.5427
 20
-10.4152
 30
0
 10
22.5427
 20
-10.4152
 30
0
 10
22.5427
 20
-10.4152
 30
0
 10
22.5427
 20
-12.8053
 30
0
 10
22.5427
 20
-12.8053
 30
0
 10
22.5427
 20
-12.8053
 30
0
 10
22.5504
 20
-12.806
 30
0
 10
22.5588
 20
-12.8069
 30
0
 10
22.5671
 20
-12.8073
 30
0
 10
22.5671
 20
-12.8073
 30
0
 10
22.8421
 20
-12.8162
 30
0
 10
23.1115
 20
-12.8713
 30
0
 10
23.3672
 20
-12.9614
 30
0
 10
23.3672
 20
-12.9614
 30
0
 10
23.8724
 20
-13.1395
 30
0
 10
24.323
 20
-13.4633
 30
0
 10
24.6442
 20
-13.9029
 30
0
 10
24.6442
 20
-13.9029
 30
0
 10
28.4065
 20
-12.4307
 30
0
 10
32.1414
 20
-10.8695
 30
0
 10
35.7561
 20
-9.059200000000001
 30
0
 10
35.7561
 20
-9.059200000000001
 30
0
 10
36.132
 20
-8.8764
 30
0
 10
36.2017
 20
-8.425599999999999
 30
0
 10
36.2979
 20
-8.0642
 30
0
 10
36.2979
 20
-8.0642
 30
0
 10
36.6363
 20
-6.5892
 30
0
 10
36.8182
 20
-5.0875
 30
0
 10
37.019
 20
-3.5898
 30
0
 10
37.019
 20
-3.5898
 30
0
 10
37.5535
 20
-3.2801
 30
0
 10
38.0871
 20
-2.9689
 30
0
 10
38.6217
 20
-2.66
 30
0
 10
38.6217
 20
-2.66
 30
0
 10
38.517
 20
-4.251
 30
0
 10
38.4068
 20
-5.8407
 30
0
 10
38.3031
 20
-7.4326
 30
0
 10
38.3031
 20
-7.4326
 30
0
 10
39.7918
 20
-6.697
 30
0
 10
41.1451
 20
-5.702
 30
0
 10
42.3582
 20
-4.5734
 30
0
 10
42.3582
 20
-4.5734
 30
0
 10
42.8694
 20
-4.0627
 30
0
 10
43.3953
 20
-3.5082
 30
0
 10
43.6178
 20
-2.8043
 30
0
 10
43.6178
 20
-2.8043
 30
0
 10
43.7446
 20
-2.4395
 30
0
 10
43.6362
 20
-2.0003
 30
0
 10
43.3133
 20
-1.7741
 30
0
  0
SPLINE
  5
56
100
AcDbEntity
  8
Layer 1
  6
ByLayer
 62
  256
370
   18
100
AcDbSpline
210
0
220
0
230
0
 70
   11
 71
    3
 72
   88
 73
   84
 74
    0
 42
1e-007
 43
1e-007
 40
0
 40
0
 40
0
 40
0
 40
0.0454545454545455
 40
0.0454545454545455
 40
0.0454545454545455
 40
0.0454545454545455
 40
0.0909090909090909
 40
0.0909090909090909
 40
0.0909090909090909
 40
0.0909090909090909
 40
0.1363636363636364
 40
0.1363636363636364
 40
0.1363636363636364
 40
0.1363636363636364
 40
0.1818181818181818
 40
0.1818181818181818
 40
0.1818181818181818
 40
0.1818181818181818
 40
0.2272727272727273
 40
0.2272727272727273
 40
0.2272727272727273
 40
0.2272727272727273
 40
0.2727272727272727
 40
0.2727272727272727
 40
0.2727272727272727
 40
0.2727272727272727
 40
0.3181818181818182
 40
0.3181818181818182
 40
0.3181818181818182
 40
0.3181818181818182
 40
0.3636363636363636
 40
0.3636363636363636
 40
0.3636363636363636
 40
0.3636363636363636
 40
0.4090909090909091
 40
0.4090909090909091
 40
0.4090909090909091
 40
0.4090909090909091
 40
0.4545454545454545
 40
0.4545454545454545
 40
0.4545454545454545
 40
0.4545454545454545
 40
0.5
 40
0.5
 40
0.5
 40
0.5
 40
0.5454545454545454
 40
0.5454545454545454
 40
0.5454545454545454
 40
0.5454545454545454
 40
0.5909090909090909
 40
0.5909090909090909
 40
0.5909090909090909
 40
0.5909090909090909
 40
0.6363636363636364
 40
0.6363636363636364
 40
0.6363636363636364
 40
0.6363636363636364
 40
0.6818181818181818
 40
0.6818181818181818
 40
0.6818181818181818
 40
0.6818181818181818
 40
0.7272727272727273
 40
0.7272727272727273
 40
0.7272727272727273
 40
0.7272727272727273
 40
0.7727272727272727
 40
0.7727272727272727
 40
0.7727272727272727
 40
0.7727272727272727
 40
0.8181818181818182
 40
0.8181818181818182
 40
0.8181818181818182
 40
0.8181818181818182
 40
0.8636363636363636
 40
0.8636363636363636
 40
0.8636363636363636
 40
0.8636363636363636
 40
0.9090909090909091
 40
0.9090909090909091
 40
0.9090909090909091
 40
0.9090909090909091
 40
1
 40
1
 40
1
 40
1
 10
22.5671
 20
13.6896
 30
0
 10
22.5684
 20
13.6905
 30
0
 10
22.5707
 20
13.6911
 30
0
 10
22.5719
 20
13.6921
 30
0
 10
22.5719
 20
13.6921
 30
0
 10
22.7422
 20
13.6039
 30
0
 10
22.9148
 20
13.5179
 30
0
 10
23.0871
 20
13.433
 30
0
 10
23.0871
 20
13.433
 30
0
 10
26.0486
 20
11.9789
 30
0
 10
29.314
 20
11.0676
 30
0
 10
32.6277
 20
11.1179
 30
0
 10
32.6277
 20
11.1179
 30
0
 10
34.734
 20
11.1735
 30
0
 10
36.8731
 20
11.5561
 30
0
 10
38.7643
 20
12.5177
 30
0
 10
38.7643
 20
12.5177
 30
0
 10
38.7638
 20
8.5753
 30
0
 10
38.7615
 20
4.6316
 30
0
 10
38.7619
 20
0.6893
 30
0
 10
38.7619
 20
0.6893
 30
0
 10
40.1638
 20
1.4311
 30
0
 10
41.3819
 20
2.473
 30
0
 10
42.4989
 20
3.5892
 30
0
 10
42.4989
 20
3.5892
 30
0
 10
42.9393
 20
4.0579
 30
0
 10
43.4088
 20
4.5383
 30
0
 10
43.6292
 20
5.1553
 30
0
 10
43.6292
 20
5.1553
 30
0
 10
43.7742
 20
5.5324
 30
0
 10
43.6754
 20
5.9936
 30
0
 10
43.3439
 20
6.2382
 30
0
 10
43.3439
 20
6.2382
 30
0
 10
42.7566
 20
6.6829
 30
0
 10
41.9839
 20
6.7207
 30
0
 10
41.2808
 20
6.7966
 30
0
 10
41.2808
 20
6.7966
 30
0
 10
41.6856
 20
6.5628
 30
0
 10
42.1624
 20
6.3337
 30
0
 10
42.3523
 20
5.8746
 30
0
 10
42.3523
 20
5.8746
 30
0
 10
42.5474
 20
5.4146
 30
0
 10
42.3516
 20
4.9001
 30
0
 10
42.0894
 20
4.5096
 30
0
 10
42.0894
 20
4.5096
 30
0
 10
41.5336
 20
3.7063
 30
0
 10
40.7553
 20
3.0918
 30
0
 10
39.9543
 20
2.5486
 30
0
 10
39.9543
 20
2.5486
 30
0
 10
39.9502
 20
6.6603
 30
0
 10
39.9514
 20
10.7707
 30
0
 10
39.9502
 20
14.8815
 30
0
 10
39.9502
 20
14.8815
 30
0
 10
39.1791
 20
14.3633
 30
0
 10
38.3731
 20
13.8902
 30
0
 10
37.5102
 20
13.5386
 30
0
 10
37.5102
 20
13.5386
 30
0
 10
35.145
 20
12.5375
 30
0
 10
32.5023
 20
12.3237
 30
0
 10
29.974
 20
12.6712
 30
0
 10
29.974
 20
12.6712
 30
0
 10
27.575
 20
13.0065
 30
0
 10
25.2365
 20
13.7704
 30
0
 10
23.0871
 20
14.8872
 30
0
 10
23.0871
 20
14.8872
 30
0
 10
22.9148
 20
14.9765
 30
0
 10
22.7413
 20
15.0636
 30
0
 10
22.5719
 20
15.1574
 30
0
 10
22.5719
 20
15.1574
 30
0
 10
22.5707
 20
15.1565
 30
0
 10
22.5684
 20
15.1559
 30
0
 10
22.5671
 20
15.1549
 30
0
 10
22.5671
 20
15.1549
 30
0
 10
22.5588
 20
15.1515
 30
0
 10
22.5504
 20
15.1477
 30
0
 10
22.5427
 20
15.1438
 30
0
 10
22.5427
 20
15.1438
 30
0
 10
22.5427
 20
15.1438
 30
0
 10
22.5427
 20
13.6768
 30
0
 10
22.5427
 20
13.6768
 30
0
 10
22.5427
 20
13.6768
 30
0
 10
22.5504
 20
13.6809
 30
0
 10
22.5588
 20
13.6852
 30
0
 10
22.5671
 20
13.6896
 30
0
  0
SPLINE
  5
57
100
AcDbEntity
  8
Layer 1
  6
ByLayer
 62
  256
370
   18
100
AcDbSpline
210
0
220
0
230
0
 70
   11
 71
    3
 72
  104
 73
  100
 74
    0
 42
1e-007
 43
1e-007
 40
0
 40
0
 40
0
 40
0
 40
0.0384615384615385
 40
0.0384615384615385
 40
0.0384615384615385
 40
0.0384615384615385
 40
0.0769230769230769
 40
0.0769230769230769
 40
0.0769230769230769
 40
0.0769230769230769
 40
0.1153846153846154
 40
0.1153846153846154
 40
0.1153846153846154
 40
0.1153846153846154
 40
0.1538461538461539
 40
0.1538461538461539
 40
0.1538461538461539
 40
0.1538461538461539
 40
0.1923076923076923
 40
0.1923076923076923
 40
0.1923076923076923
 40
0.1923076923076923
 40
0.2307692307692308
 40
0.2307692307692308
 40
0.2307692307692308
 40
0.2307692307692308
 40
0.2692307692307692
 40
0.2692307692307692
 40
0.2692307692307692
 40
0.2692307692307692
 40
0.3076923076923077
 40
0.3076923076923077
 40
0.3076923076923077
 40
0.3076923076923077
 40
0.3461538461538461
 40
0.3461538461538461
 40
0.3461538461538461
 40
0.3461538461538461
 40
0.3846153846153846
 40
0.3846153846153846
 40
0.3846153846153846
 40
0.3846153846153846
 40
0.4230769230769231
 40
0.4230769230769231
 40
0.4230769230769231
 40
0.4230769230769231
 40
0.4615384615384616
 40
0.4615384615384616
 40
0.4615384615384616
 40
0.4615384615384616
 40
0.5
 40
0.5
 40
0.5
 40
0.5
 40
0.5384615384615384
 40
0.5384615384615384
 40
0.5384615384615384
 40
0.5384615384615384
 40
0.5769230769230769
 40
0.5769230769230769
 40
0.5769230769230769
 40
0.5769230769230769
 40
0.6153846153846154
 40
0.6153846153846154
 40
0.6153846153846154
 40
0.6153846153846154
 40
0.6538461538461539
 40
0.6538461538461539
 40
0.6538461538461539
 40
0.6538461538461539
 40
0.6923076923076923
 40
0.6923076923076923
 40
0.6923076923076923
 40
0.6923076923076923
 40
0.7307692307692307
 40
0.7307692307692307
 40
0.7307692307692307
 40
0.7307692307692307
 40
0.7692307692307693
 40
0.7692307692307693
 40
0.7692307692307693
 40
0.7692307692307693
 40
0.8076923076923077
 40
0.8076923076923077
 40
0.8076923076923077
 40
0.8076923076923077
 40
0.8461538461538461
 40
0.8461538461538461
 40
0.8461538461538461
 40
0.8461538461538461
 40
0.8846153846153846
 40
0.8846153846153846
 40
0.8846153846153846
 40
0.8846153846153846
 40
0.9230769230769231
 40
0.9230769230769231
 40
0.9230769230769231
 40
0.9230769230769231
 40
1
 40
1
 40
1
 40
1
 10
22.5145
 20
11.6657
 30
0
 10
22.078
 20
11.5068
 30
0
 10
21.6377
 20
11.3549
 30
0
 10
21.1959
 20
11.2091
 30
0
 10
21.1959
 20
11.2091
 30
0
 10
18.5537
 20
10.3378
 30
0
 10
15.8195
 20
9.719200000000001
 30
0
 10
13.0354
 20
9.605399999999999
 30
0
 10
13.0354
 20
9.605399999999999
 30
0
 10
11.3357
 20
9.549300000000001
 30
0
 10
9.6014
 20
9.6623
 30
0
 10
7.9851
 20
10.2251
 30
0
 10
7.9851
 20
10.2251
 30
0
 10
7.9928
 20
7.563
 30
0
 10
7.9744
 20
4.9001
 30
0
 10
7.9871
 20
2.2382
 30
0
 10
7.9871
 20
2.2382
 30
0
 10
7.4858
 20
1.9643
 30
0
 10
6.9765
 20
1.7061
 30
0
 10
6.4708
 20
1.4438
 30
0
 10
6.4708
 20
1.4438
 30
0
 10
6.4713
 20
3.3768
 30
0
 10
6.4676
 20
5.3087
 30
0
 10
6.4694
 20
7.2418
 30
0
 10
6.4694
 20
7.2418
 30
0
 10
6.4713
 20
8.9938
 30
0
 10
6.4685
 20
10.7479
 30
0
 10
6.4676
 20
12.5004
 30
0
 10
6.4676
 20
12.5004
 30
0
 10
11.4778
 20
10.6149
 30
0
 10
17.2195
 20
11.0554
 30
0
 10
22.0001
 20
13.4072
 30
0
 10
22.0001
 20
13.4072
 30
0
 10
22.172
 20
13.4919
 30
0
 10
22.3456
 20
13.5729
 30
0
 10
22.5145
 20
13.6624
 30
0
 10
22.5145
 20
13.6624
 30
0
 10
22.5238
 20
13.6672
 30
0
 10
22.5334
 20
13.672
 30
0
 10
22.5427
 20
13.6768
 30
0
 10
22.5427
 20
13.6768
 30
0
 10
22.5427
 20
13.6768
 30
0
 10
22.5427
 20
15.1438
 30
0
 10
22.5427
 20
15.1438
 30
0
 10
22.5427
 20
15.1438
 30
0
 10
22.5334
 20
15.1396
 30
0
 10
22.5238
 20
15.1358
 30
0
 10
22.5145
 20
15.1317
 30
0
 10
22.5145
 20
15.1317
 30
0
 10
22.3428
 20
15.0558
 30
0
 10
22.1713
 20
14.9784
 30
0
 10
22.0001
 20
14.901
 30
0
 10
22.0001
 20
14.901
 30
0
 10
21.4153
 20
14.6365
 30
0
 10
20.8323
 20
14.3682
 30
0
 10
20.2306
 20
14.144
 30
0
 10
20.2306
 20
14.144
 30
0
 10
17.0801
 20
12.9148
 30
0
 10
13.6168
 20
12.2421
 30
0
 10
10.2467
 20
12.8173
 30
0
 10
10.2467
 20
12.8173
 30
0
 10
8.415900000000001
 20
13.1128
 30
0
 10
6.6679
 20
13.8403
 30
0
 10
5.1484
 20
14.9004
 30
0
 10
5.1484
 20
14.9004
 30
0
 10
5.1484
 20
12.3465
 30
0
 10
5.1457
 20
9.793900000000001
 30
0
 10
5.147
 20
7.2406
 30
0
 10
5.147
 20
7.2406
 30
0
 10
5.147
 20
4.7468
 30
0
 10
5.1446
 20
2.2533
 30
0
 10
5.1457
 20
-0.2401
 30
0
 10
5.1457
 20
-0.2401
 30
0
 10
9.864800000000001
 20
2.5764
 30
0
 10
14.858
 20
4.9459
 30
0
 10
20.0505
 20
6.7502
 30
0
 10
20.0505
 20
6.7502
 30
0
 10
20.0967
 20
7.4415
 30
0
 10
20.3634
 20
8.1327
 30
0
 10
20.8948
 20
8.5951
 30
0
 10
20.8948
 20
8.5951
 30
0
 10
20.9886
 20
8.683299999999999
 30
0
 10
21.0896
 20
8.760400000000001
 30
0
 10
21.1959
 20
8.829700000000001
 30
0
 10
21.1959
 20
8.829700000000001
 30
0
 10
21.5848
 20
9.086499999999999
 30
0
 10
22.0466
 20
9.2188
 30
0
 10
22.5145
 20
9.235799999999999
 30
0
 10
22.5145
 20
9.235799999999999
 30
0
 10
22.5238
 20
9.235799999999999
 30
0
 10
22.5334
 20
9.235799999999999
 30
0
 10
22.5427
 20
9.235099999999999
 30
0
 10
22.5427
 20
9.235099999999999
 30
0
 10
22.5427
 20
9.235099999999999
 30
0
 10
22.5427
 20
11.6761
 30
0
 10
22.5427
 20
11.6761
 30
0
 10
22.5427
 20
11.6761
 30
0
 10
22.5334
 20
11.6723
 30
0
 10
22.5238
 20
11.6691
 30
0
 10
22.5145
 20
11.6657
 30
0
  0
SPLINE
  5
58
100
AcDbEntity
  8
Layer 1
  6
ByLayer
 62
  256
370
   18
100
AcDbSpline
210
0
220
0
230
0
 70
   11
 71
    3
 72
   96
 73
   92
 74
    0
 42
1e-007
 43
1e-007
 40
0
 40
0
 40
0
 40
0
 40
0.0416666666666667
 40
0.0416666666666667
 40
0.0416666666666667
 40
0.0416666666666667
 40
0.0833333333333333
 40
0.0833333333333333
 40
0.0833333333333333
 40
0.0833333333333333
 40
0.125
 40
0.125
 40
0.125
 40
0.125
 40
0.1666666666666667
 40
0.1666666666666667
 40
0.1666666666666667
 40
0.1666666666666667
 40
0.2083333333333333
 40
0.2083333333333333
 40
0.2083333333333333
 40
0.2083333333333333
 40
0.25
 40
0.25
 40
0.25
 40
0.25
 40
0.2916666666666667
 40
0.2916666666666667
 40
0.2916666666666667
 40
0.2916666666666667
 40
0.3333333333333333
 40
0.3333333333333333
 40
0.3333333333333333
 40
0.3333333333333333
 40
0.375
 40
0.375
 40
0.375
 40
0.375
 40
0.4166666666666667
 40
0.4166666666666667
 40
0.4166666666666667
 40
0.4166666666666667
 40
0.4583333333333333
 40
0.4583333333333333
 40
0.4583333333333333
 40
0.4583333333333333
 40
0.5
 40
0.5
 40
0.5
 40
0.5
 40
0.5416666666666666
 40
0.5416666666666666
 40
0.5416666666666666
 40
0.5416666666666666
 40
0.5833333333333334
 40
0.5833333333333334
 40
0.5833333333333334
 40
0.5833333333333334
 40
0.625
 40
0.625
 40
0.625
 40
0.625
 40
0.6666666666666666
 40
0.6666666666666666
 40
0.6666666666666666
 40
0.6666666666666666
 40
0.7083333333333334
 40
0.7083333333333334
 40
0.7083333333333334
 40
0.7083333333333334
 40
0.75
 40
0.75
 40
0.75
 40
0.75
 40
0.7916666666666666
 40
0.7916666666666666
 40
0.7916666666666666
 40
0.7916666666666666
 40
0.8333333333333334
 40
0.8333333333333334
 40
0.8333333333333334
 40
0.8333333333333334
 40
0.875
 40
0.875
 40
0.875
 40
0.875
 40
0.9166666666666666
 40
0.9166666666666666
 40
0.9166666666666666
 40
0.9166666666666666
 40
1
 40
1
 40
1
 40
1
 10
22.5145
 20
4.205
 30
0
 10
22.4
 20
4.2114
 30
0
 10
22.287
 20
4.2282
 30
0
 10
22.1748
 20
4.2496
 30
0
 10
22.1748
 20
4.2496
 30
0
 10
21.6267
 20
4.3541
 30
0
 10
21.1219
 20
4.6262
 30
0
 10
20.7196
 20
5.0182
 30
0
 10
20.7196
 20
5.0182
 30
0
 10
17.0571
 20
3.6296
 30
0
 10
13.4507
 20
2.0679
 30
0
 10
10.0004
 20
0.2105
 30
0
 10
10.0004
 20
0.2105
 30
0
 10
9.3184
 20
-0.08160000000000001
 30
0
 10
8.68
 20
-0.4696
 30
0
 10
8.0266
 20
-0.821
 30
0
 10
8.0266
 20
-0.821
 30
0
 10
8.0709
 20
-2.2822
 30
0
 10
8.1013
 20
-3.7434
 30
0
 10
8.1511
 20
-5.2047
 30
0
 10
8.1511
 20
-5.2047
 30
0
 10
7.6602
 20
-5.4584
 30
0
 10
7.1646
 20
-5.7061
 30
0
 10
6.6664
 20
-5.9447
 30
0
 10
6.6664
 20
-5.9447
 30
0
 10
6.6136
 20
-4.5763
 30
0
 10
6.5616
 20
-3.2098
 30
0
 10
6.5066
 20
-1.8416
 30
0
 10
6.5066
 20
-1.8416
 30
0
 10
5.2618
 20
-2.409
 30
0
 10
4.1097
 20
-3.1641
 30
0
 10
3.038
 20
-4.0085
 30
0
 10
3.038
 20
-4.0085
 30
0
 10
2.2869
 20
-4.6316
 30
0
 10
1.5061
 20
-5.284
 30
0
 10
1.0697
 20
-6.177
 30
0
 10
1.0697
 20
-6.177
 30
0
 10
0.8575
 20
-6.5882
 30
0
 10
0.8473000000000001
 20
-7.1549
 30
0
 10
1.2304
 20
-7.4736
 30
0
 10
1.2304
 20
-7.4736
 30
0
 10
1.8504
 20
-7.9843
 30
0
 10
2.7003
 20
-8.085800000000001
 30
0
 10
3.4763
 20
-8.1248
 30
0
 10
3.4763
 20
-8.1248
 30
0
 10
3.0795
 20
-7.8901
 30
0
 10
2.5881
 20
-7.7026
 30
0
 10
2.3902
 20
-7.2505
 30
0
 10
2.3902
 20
-7.2505
 30
0
 10
2.1858
 20
-6.7751
 30
0
 10
2.4288
 20
-6.2542
 30
0
 10
2.7122
 20
-5.8693
 30
0
 10
2.7122
 20
-5.8693
 30
0
 10
3.3697
 20
-5.0065
 30
0
 10
4.258
 20
-4.3589
 30
0
 10
5.1618
 20
-3.7778
 30
0
 10
5.1618
 20
-3.7778
 30
0
 10
5.2385
 20
-5.0142
 30
0
 10
5.4188
 20
-6.243
 30
0
 10
5.6782
 20
-7.4545
 30
0
 10
5.6782
 20
-7.4545
 30
0
 10
10.1877
 20
-4.6658
 30
0
 10
15.0217
 20
-2.3865
 30
0
 10
20.0699
 20
-0.7536
 30
0
 10
20.0699
 20
-0.7536
 30
0
 10
20.1479
 20
-0.4676
 30
0
 10
20.237
 20
-0.1851
 30
0
 10
20.3376
 20
0.0927
 30
0
 10
20.3376
 20
0.0927
 30
0
 10
20.5715
 20
0.4261
 30
0
 10
20.8175
 20
0.7651
 30
0
 10
21.1657
 20
0.9898
 30
0
 10
21.1657
 20
0.9898
 30
0
 10
21.4653
 20
1.2057
 30
0
 10
21.8153
 20
1.3222
 30
0
 10
22.1748
 20
1.3894
 30
0
 10
22.1748
 20
1.3894
 30
0
 10
22.2873
 20
1.4104
 30
0
 10
22.4009
 20
1.427
 30
0
 10
22.5145
 20
1.4393
 30
0
 10
22.5145
 20
1.4393
 30
0
 10
22.5238
 20
1.4408
 30
0
 10
22.5334
 20
1.4418
 30
0
 10
22.5427
 20
1.4431
 30
0
 10
22.5427
 20
1.4431
 30
0
 10
22.5427
 20
1.4431
 30
0
 10
22.5427
 20
4.2024
 30
0
 10
22.5427
 20
4.2024
 30
0
 10
22.5427
 20
4.2024
 30
0
 10
22.5334
 20
4.2032
 30
0
 10
22.5238
 20
4.2042
 30
0
 10
22.5145
 20
4.205
 30
0
  0
SPLINE
  5
59
100
AcDbEntity
  8
Layer 1
  6
ByLayer
 62
  256
370
   18
100
AcDbSpline
210
0
220
0
230
0
 70
   11
 71
    3
 72
  116
 73
  112
 74
    0
 42
1e-007
 43
1e-007
 40
0
 40
0
 40
0
 40
0
 40
0.0344827586206897
 40
0.0344827586206897
 40
0.0344827586206897
 40
0.0344827586206897
 40
0.0689655172413793
 40
0.0689655172413793
 40
0.0689655172413793
 40
0.0689655172413793
 40
0.103448275862069
 40
0.103448275862069
 40
0.103448275862069
 40
0.103448275862069
 40
0.1379310344827586
 40
0.1379310344827586
 40
0.1379310344827586
 40
0.1379310344827586
 40
0.1724137931034483
 40
0.1724137931034483
 40
0.1724137931034483
 40
0.1724137931034483
 40
0.2068965517241379
 40
0.2068965517241379
 40
0.2068965517241379
 40
0.2068965517241379
 40
0.2413793103448276
 40
0.2413793103448276
 40
0.2413793103448276
 40
0.2413793103448276
 40
0.2758620689655172
 40
0.2758620689655172
 40
0.2758620689655172
 40
0.2758620689655172
 40
0.3103448275862069
 40
0.3103448275862069
 40
0.3103448275862069
 40
0.3103448275862069
 40
0.3448275862068966
 40
0.3448275862068966
 40
0.3448275862068966
 40
0.3448275862068966
 40
0.3793103448275862
 40
0.3793103448275862
 40
0.3793103448275862
 40
0.3793103448275862
 40
0.4137931034482759
 40
0.4137931034482759
 40
0.4137931034482759
 40
0.4137931034482759
 40
0.4482758620689655
 40
0.4482758620689655
 40
0.4482758620689655
 40
0.4482758620689655
 40
0.4827586206896552
 40
0.4827586206896552
 40
0.4827586206896552
 40
0.4827586206896552
 40
0.5172413793103449
 40
0.5172413793103449
 40
0.5172413793103449
 40
0.5172413793103449
 40
0.5517241379310345
 40
0.5517241379310345
 40
0.5517241379310345
 40
0.5517241379310345
 40
0.5862068965517241
 40
0.5862068965517241
 40
0.5862068965517241
 40
0.5862068965517241
 40
0.6206896551724138
 40
0.6206896551724138
 40
0.6206896551724138
 40
0.6206896551724138
 40
0.6551724137931034
 40
0.6551724137931034
 40
0.6551724137931034
 40
0.6551724137931034
 40
0.6896551724137931
 40
0.6896551724137931
 40
0.6896551724137931
 40
0.6896551724137931
 40
0.7241379310344828
 40
0.7241379310344828
 40
0.7241379310344828
 40
0.7241379310344828
 40
0.7586206896551724
 40
0.7586206896551724
 40
0.7586206896551724
 40
0.7586206896551724
 40
0.7931034482758621
 40
0.7931034482758621
 40
0.7931034482758621
 40
0.7931034482758621
 40
0.8275862068965517
 40
0.8275862068965517
 40
0.8275862068965517
 40
0.8275862068965517
 40
0.8620689655172413
 40
0.8620689655172413
 40
0.8620689655172413
 40
0.8620689655172413
 40
0.896551724137931
 40
0.896551724137931
 40
0.896551724137931
 40
0.896551724137931
 40
0.9310344827586207
 40
0.9310344827586207
 40
0.9310344827586207
 40
0.9310344827586207
 40
1
 40
1
 40
1
 40
1
 10
22.5181
 20
-10.4187
 30
0
 10
22.2777
 20
-10.4014
 30
0
 10
22.0391
 20
-10.3488
 30
0
 10
21.8084
 20
-10.2707
 30
0
 10
21.8084
 20
-10.2707
 30
0
 10
21.2688
 20
-10.0869
 30
0
 10
20.7806
 20
-9.7454
 30
0
 10
20.4765
 20
-9.2646
 30
0
 10
20.4765
 20
-9.2646
 30
0
 10
19.8595
 20
-8.352
 30
0
 10
19.9569
 20
-7.0403
 30
0
 10
20.7016
 20
-6.2288
 30
0
 10
20.7016
 20
-6.2288
 30
0
 10
21.0676
 20
-5.7977
 30
0
 10
21.5839
 20
-5.5385
 30
0
 10
22.1302
 20
-5.4247
 30
0
 10
22.1302
 20
-5.4247
 30
0
 10
22.1693
 20
-5.4165
 30
0
 10
22.2085
 20
-5.4072
 30
0
 10
22.2477
 20
-5.4004
 30
0
 10
22.2477
 20
-5.4004
 30
0
 10
22.3271
 20
-5.3872
 30
0
 10
22.4549
 20
-5.375
 30
0
 10
22.5427
 20
-5.3675
 30
0
 10
22.5427
 20
-5.3675
 30
0
 10
22.5427
 20
-5.3675
 30
0
 10
22.5427
 20
-3.6089
 30
0
 10
22.5427
 20
-3.6089
 30
0
 10
22.5427
 20
-3.6089
 30
0
 10
22.4544
 20
-3.6046
 30
0
 10
22.3271
 20
-3.6011
 30
0
 10
22.2477
 20
-3.5884
 30
0
 10
22.2477
 20
-3.5884
 30
0
 10
22.2082
 20
-3.582
 30
0
 10
22.1693
 20
-3.5711
 30
0
 10
22.1302
 20
-3.5627
 30
0
 10
22.1302
 20
-3.5627
 30
0
 10
21.4136
 20
-3.4145
 30
0
 10
20.7754
 20
-2.9805
 30
0
 10
20.385
 20
-2.3542
 30
0
 10
20.385
 20
-2.3542
 30
0
 10
18.5788
 20
-2.9616
 30
0
 10
16.7941
 20
-3.6344
 30
0
 10
15.0583
 20
-4.4199
 30
0
 10
15.0583
 20
-4.4199
 30
0
 10
12.8537
 20
-5.4151
 30
0
 10
10.6861
 20
-6.5146
 30
0
 10
8.68
 20
-7.8693
 30
0
 10
8.68
 20
-7.8693
 30
0
 10
9.1661
 20
-9.2257
 30
0
 10
9.8177
 20
-10.5194
 30
0
 10
10.6117
 20
-11.7217
 30
0
 10
10.6117
 20
-11.7217
 30
0
 10
11.6577
 20
-13.2886
 30
0
 10
12.9313
 20
-14.6891
 30
0
 10
14.3183
 20
-15.9601
 30
0
 10
14.3183
 20
-15.9601
 30
0
 10
16.6371
 20
-18.019
 30
0
 10
19.2754
 20
-19.7687
 30
0
 10
22.0858
 20
-21.0882
 30
0
 10
22.0858
 20
-21.0882
 30
0
 10
22.2321
 20
-21.1565
 30
0
 10
22.376
 20
-21.2298
 30
0
 10
22.5238
 20
-21.2962
 30
0
 10
22.5238
 20
-21.2962
 30
0
 10
22.5302
 20
-21.2935
 30
0
 10
22.5363
 20
-21.2906
 30
0
 10
22.5427
 20
-21.2878
 30
0
 10
22.5427
 20
-21.2878
 30
0
 10
22.5427
 20
-21.2878
 30
0
 10
22.5427
 20
-17.8647
 30
0
 10
22.5427
 20
-17.8647
 30
0
 10
22.5427
 20
-17.8647
 30
0
 10
22.5395
 20
-17.8651
 30
0
 10
22.5363
 20
-17.8658
 30
0
 10
22.5329
 20
-17.8658
 30
0
 10
22.5329
 20
-17.8658
 30
0
 10
22.3835
 20
-17.8539
 30
0
 10
22.234
 20
-17.8282
 30
0
 10
22.0858
 20
-17.7943
 30
0
 10
22.0858
 20
-17.7943
 30
0
 10
21.5142
 20
-17.6629
 30
0
 10
20.9724
 20
-17.368
 30
0
 10
20.6154
 20
-16.8992
 30
0
 10
20.6154
 20
-16.8992
 30
0
 10
20.1097
 20
-16.2898
 30
0
 10
19.9743
 20
-15.4518
 30
0
 10
20.1347
 20
-14.6896
 30
0
 10
20.1347
 20
-14.6896
 30
0
 10
20.2885
 20
-14.2841
 30
0
 10
20.4756
 20
-13.8782
 30
0
 10
20.7916
 20
-13.5735
 30
0
 10
20.7916
 20
-13.5735
 30
0
 10
21.0666
 20
-13.2793
 30
0
 10
21.4246
 20
-13.0774
 30
0
 10
21.8084
 20
-12.9523
 30
0
 10
21.8084
 20
-12.9523
 30
0
 10
22.0429
 20
-12.8754
 30
0
 10
22.287
 20
-12.8273
 30
0
 10
22.5274
 20
-12.8041
 30
0
 10
22.5274
 20
-12.8041
 30
0
 10
22.5322
 20
-12.8041
 30
0
 10
22.5375
 20
-12.8048
 30
0
 10
22.5427
 20
-12.8053
 30
0
 10
22.5427
 20
-12.8053
 30
0
 10
22.5427
 20
-12.8053
 30
0
 10
22.5427
 20
-10.4152
 30
0
 10
22.5427
 20
-10.4152
 30
0
 10
22.5427
 20
-10.4152
 30
0
 10
22.5343
 20
-10.4164
 30
0
 10
22.5265
 20
-10.418
 30
0
 10
22.5181
 20
-10.4187
 30
0
  0
ENDSEC
  0
SECTION
  2
OBJECTS
  0
DICTIONARY
  5
C
330
0
100
AcDbDictionary
281
    1
  3
ACAD_GROUP
350
D
  0
DICTIONARY
  5
D
330
C
100
AcDbDictionary
281
    1
  0
ENDSEC
  0
EOF
