999
dxfrw 0.6.3
  0
SECTION
  2
HEADER
  9
$ACADVER
  1
AC1015
  9
$DWGCODEPAGE
  3
ANSI_1252
  9
$INSBASE
 10
0
 20
0
 30
0
  9
$EXTMIN
 10
165.078966820266
 20
156.5095350823016
 30
0
  9
$EXTMAX
 10
229.8315668202661
 20
166.0343350823017
 30
0
  9
$LIMMIN
 10
0
 20
0
  9
$LIMMAX
 10
420
 20
297
  9
$ORTHOMODE
 70
    0
  9
$REGENMODE
 70
    1
  9
$FILLMODE
 70
    1
  9
$QTEXTMODE
 70
    0
  9
$MIRRTEXT
 70
    0
  9
$LTSCALE
 40
1
  9
$ATTMODE
 70
    0
  9
$TEXTSIZE
 40
2.5
  9
$TRACEWID
 40
15.68
  9
$TEXTSTYLE
  7
STANDARD
  9
$CLAYER
  8
Layer 1
  9
$CELTYPE
  6
BYLAYER
  9
$CECOLOR
 62
  256
  9
$CELTSCALE
 40
1
  9
$DISPSILH
 70
    0
  9
$DIMSCALE
 40
2.5
  9
$DIMASZ
 40
2.5
  9
$DIMEXO
 40
0.625
  9
$DIMDLI
 40
3.75
  9
$DIMRND
 40
0
  9
$DIMDLE
 40
0
  9
$DIMEXE
 40
1.25
  9
$DIMTP
 40
0
  9
$DIMTM
 40
0
  9
$DIMTXT
 40
2.5
  9
$DIMCEN
 40
2.5
  9
$DIMTSZ
 40
0
  9
$DIMTOL
 70
    0
  9
$DIMLIM
 70
    0
  9
$DIMTIH
 70
    0
  9
$DIMTOH
 70
    0
  9
$DIMSE1
 70
    0
  9
$DIMSE2
 70
    0
  9
$DIMTAD
 70
    1
  9
$DIMZIN
 70
    8
  9
$DIMBLK
  1

  9
$DIMASO
 70
    1
  9
$DIMSHO
 70
    1
  9
$DIMPOST
  1

  9
$DIMAPOST
  1

  9
$DIMALT
 70
    0
  9
$DIMALTD
 70
    3
  9
$DIMALTF
 40
0.03937
  9
$DIMLFAC
 40
1
  9
$DIMTOFL
 70
    1
  9
$DIMTVP
 40
0
  9
$DIMTIX
 70
    0
  9
$DIMSOXD
 70
    0
  9
$DIMSAH
 70
    0
  9
$DIMBLK1
  1

  9
$DIMBLK2
  1

  9
$DIMSTYLE
  2
STANDARD
  9
$DIMCLRD
 70
    0
  9
$DIMCLRE
 70
    0
  9
$DIMCLRT
 70
    0
  9
$DIMTFAC
 40
1
  9
$DIMGAP
 40
0.625
  9
$DIMJUST
 70
    0
  9
$DIMSD1
 70
    0
  9
$DIMSD2
 70
    0
  9
$DIMTOLJ
 70
    0
  9
$DIMTZIN
 70
    8
  9
$DIMALTZ
 70
    0
  9
$DIMALTTZ
 70
    0
  9
$DIMUPT
 70
    0
  9
$DIMDEC
 70
    2
  9
$DIMTDEC
 70
    2
  9
$DIMALTU
 70
    2
  9
$DIMALTTD
 70
    3
  9
$DIMTXSTY
  7
STANDARD
  9
$DIMAUNIT
 70
    0
  9
$DIMADEC
 70
    0
  9
$DIMALTRND
 40
0
  9
$DIMAZIN
 70
    0
  9
$DIMDSEP
 70
   44
  9
$DIMATFIT
 70
    3
  9
$DIMFRAC
 70
    0
  9
$DIMLDRBLK
  1
STANDARD
  9
$DIMLUNIT
 70
    2
  9
$DIMLWD
 70
   -2
  9
$DIMLWE
 70
   -2
  9
$DIMTMOVE
 70
    0
  9
$LUNITS
 70
    2
  9
$LUPREC
 70
    4
  9
$SKETCHINC
 40
1
  9
$FILLETRAD
 40
0
  9
$AUNITS
 70
    0
  9
$AUPREC
 70
    2
  9
$MENU
  1
.
  9
$ELEVATION
 40
0
  9
$PELEVATION
 40
0
  9
$THICKNESS
 40
0
  9
$LIMCHECK
 70
    0
  9
$CHAMFERA
 40
0
  9
$CHAMFERB
 40
0
  9
$CHAMFERC
 40
0
  9
$CHAMFERD
 40
0
  9
$SKPOLY
 70
    0
  9
$USRTIMER
 70
    1
  9
$ANGBASE
 50
0
  9
$ANGDIR
 70
    0
  9
$PDMODE
 70
   34
  9
$PDSIZE
 40
0
  9
$PLINEWID
 40
0
  9
$SPLFRAME
 70
    0
  9
$SPLINETYPE
 70
    2
  9
$SPLINESEGS
 70
    8
  9
$HANDSEED
  5
20000
  9
$SURFTAB1
 70
    6
  9
$SURFTAB2
 70
    6
  9
$SURFTYPE
 70
    6
  9
$SURFU
 70
    6
  9
$SURFV
 70
    6
  9
$UCSBASE
  2

  9
$UCSNAME
  2

  9
$UCSORG
 10
0
 20
0
 30
0
  9
$UCSXDIR
 10
1
 20
0
 30
0
  9
$UCSYDIR
 10
0
 20
1
 30
0
  9
$UCSORTHOREF
  2

  9
$UCSORTHOVIEW
 70
    0
  9
$UCSORGTOP
 10
0
 20
0
 30
0
  9
$UCSORGBOTTOM
 10
0
 20
0
 30
0
  9
$UCSORGLEFT
 10
0
 20
0
 30
0
  9
$UCSORGRIGHT
 10
0
 20
0
 30
0
  9
$UCSORGFRONT
 10
0
 20
0
 30
0
  9
$UCSORGBACK
 10
0
 20
0
 30
0
  9
$PUCSBASE
  2

  9
$PUCSNAME
  2

  9
$PUCSORG
 10
0
 20
0
 30
0
  9
$PUCSXDIR
 10
1
 20
0
 30
0
  9
$PUCSYDIR
 10
0
 20
1
 30
0
  9
$PUCSORTHOREF
  2

  9
$PUCSORTHOVIEW
 70
    0
  9
$PUCSORGTOP
 10
0
 20
0
 30
0
  9
$PUCSORGBOTTOM
 10
0
 20
0
 30
0
  9
$PUCSORGLEFT
 10
0
 20
0
 30
0
  9
$PUCSORGRIGHT
 10
0
 20
0
 30
0
  9
$PUCSORGFRONT
 10
0
 20
0
 30
0
  9
$PUCSORGBACK
 10
0
 20
0
 30
0
  9
$USERI1
 70
    0
  9
$USERI2
 70
    0
  9
$USERI3
 70
    0
  9
$USERI4
 70
    0
  9
$USERI5
 70
    0
  9
$USERR1
 40
0
  9
$USERR2
 40
0
  9
$USERR3
 40
0
  9
$USERR4
 40
0
  9
$USERR5
 40
0
  9
$WORLDVIEW
 70
    1
  9
$SHADEDGE
 70
    3
  9
$SHADEDIF
 70
   70
  9
$TILEMODE
 70
    1
  9
$MAXACTVP
 70
   64
  9
$PINSBASE
 10
0
 20
0
 30
0
  9
$PLIMCHECK
 70
    0
  9
$PEXTMIN
 10
0
 20
0
 30
0
  9
$PEXTMAX
 10
0
 20
0
 30
0
  9
$GRIDMODE
 70
    1
  9
$SNAPSTYLE
 70
    0
  9
$PLIMMIN
 10
0
 20
0
  9
$PLIMMAX
 10
210
 20
297
  9
$UNITMODE
 70
    0
  9
$VISRETAIN
 70
    1
  9
$PLINEGEN
 70
    0
  9
$PSLTSCALE
 70
    1
  9
$TREEDEPTH
 70
 3020
  9
$CMLSTYLE
  2
Standard
  9
$CMLJUST
 70
    0
  9
$CMLSCALE
 40
20
  9
$PROXYGRAPHICS
 70
    1
  9
$MEASUREMENT
 70
    1
  9
$CELWEIGHT
370
   -1
  9
$ENDCAPS
280
    0
  9
$JOINSTYLE
280
    0
  9
$LWDISPLAY
290
    0
  9
$INSUNITS
 70
    4
  9
$HYPERLINKBASE
  1

  9
$STYLESHEET
  1

  9
$XEDIT
290
    1
  9
$CEPSNTYPE
380
    0
  9
$PSTYLEMODE
290
    1
  9
$EXTNAMES
290
    1
  9
$PSVPSCALE
 40
1
  9
$OLESTARTUP
290
    0
  0
ENDSEC
  0
SECTION
  2
CLASSES
  0
ENDSEC
  0
SECTION
  2
TABLES
  0
TABLE
  2
VPORT
  5
8
330
0
100
AcDbSymbolTable
 70
    1
  0
VPORT
  5
31
330
2
100
AcDbSymbolTableRecord
100
AcDbViewportTableRecord
  2
*ACTIVE
 70
    0
 10
0
 20
0
 11
1
 21
1
 12
357.75
 22
122.375
 13
0
 23
0
 14
10
 24
10
 15
10
 25
10
 16
0
 26
0
 36
1
 17
0
 27
0
 37
0
 40
257.25
 41
2.829931972789116
 42
50
 43
0
 44
0
 50
0
 51
0
 71
    0
 72
  100
 73
    1
 74
    3
 75
    0
 76
    1
 77
    0
 78
    0
281
    0
 65
    1
110
0
120
0
130
0
111
1
121
0
131
0
112
0
122
1
132
0
 79
    0
146
0
  0
ENDTAB
  0
TABLE
  2
LTYPE
  5
5
330
0
100
AcDbSymbolTable
 70
    4
  0
LTYPE
  5
14
330
5
100
AcDbSymbolTableRecord
100
AcDbLinetypeTableRecord
  2
ByBlock
 70
    0
  3

 72
   65
 73
    0
 40
0
  0
LTYPE
  5
15
330
5
100
AcDbSymbolTableRecord
100
AcDbLinetypeTableRecord
  2
ByLayer
 70
    0
  3

 72
   65
 73
    0
 40
0
  0
LTYPE
  5
16
330
5
100
AcDbSymbolTableRecord
100
AcDbLinetypeTableRecord
  2
Continuous
 70
    0
  3
Solid line
 72
   65
 73
    0
 40
0
  0
LTYPE
  5
32
330
5
100
AcDbSymbolTableRecord
100
AcDbLinetypeTableRecord
  2
DOT
 70
    0
  3
Dot . . . . . . . . . . . . . . . . . . . . . .
 72
   65
 73
    2
 40
6.35
 49
0
 74
    0
 49
-6.35
 74
    0
  0
LTYPE
  5
33
330
5
100
AcDbSymbolTableRecord
100
AcDbLinetypeTableRecord
  2
DOTTINY
 70
    0
  3
Dot (.15x) .....................................
 72
   65
 73
    2
 40
0.9525
 49
0
 74
    0
 49
-0.9525
 74
    0
  0
LTYPE
  5
34
330
5
100
AcDbSymbolTableRecord
100
AcDbLinetypeTableRecord
  2
DOT2
 70
    0
  3
Dot (.5x) .....................................
 72
   65
 73
    2
 40
3.175
 49
0
 74
    0
 49
-3.175
 74
    0
  0
LTYPE
  5
35
330
5
100
AcDbSymbolTableRecord
100
AcDbLinetypeTableRecord
  2
DOTX2
 70
    0
  3
Dot (2x) .  .  .  .  .  .  .  .  .  .  .  .  .
 72
   65
 73
    2
 40
12.7
 49
0
 74
    0
 49
-12.7
 74
    0
  0
LTYPE
  5
36
330
5
100
AcDbSymbolTableRecord
100
AcDbLinetypeTableRecord
  2
DASHED
 70
    0
  3
Dashed _ _ _ _ _ _ _ _ _ _ _ _ _ _ _ _ _
 72
   65
 73
    2
 40
19.05
 49
12.7
 74
    0
 49
-6.35
 74
    0
  0
LTYPE
  5
37
330
5
100
AcDbSymbolTableRecord
100
AcDbLinetypeTableRecord
  2
DASHEDTINY
 70
    0
  3
Dashed (.15x) _ _ _ _ _ _ _ _ _ _ _ _ _ _ _ _ _
 72
   65
 73
    2
 40
2.8575
 49
1.905
 74
    0
 49
-0.9525
 74
    0
  0
LTYPE
  5
38
330
5
100
AcDbSymbolTableRecord
100
AcDbLinetypeTableRecord
  2
DASHED2
 70
    0
  3
Dashed (.5x) _ _ _ _ _ _ _ _ _ _ _ _ _ _ _ _ _
 72
   65
 73
    2
 40
9.524999999999999
 49
6.35
 74
    0
 49
-3.175
 74
    0
  0
LTYPE
  5
39
330
5
100
AcDbSymbolTableRecord
100
AcDbLinetypeTableRecord
  2
DASHEDX2
 70
    0
  3
Dashed (2x) ____  ____  ____  ____  ____  ___
 72
   65
 73
    2
 40
38.09999999999999
 49
25.4
 74
    0
 49
-12.7
 74
    0
  0
LTYPE
  5
3A
330
5
100
AcDbSymbolTableRecord
100
AcDbLinetypeTableRecord
  2
DASHDOT
 70
    0
  3
Dash dot __ . __ . __ . __ . __ . __ . __ . __
 72
   65
 73
    4
 40
25.4
 49
12.7
 74
    0
 49
-6.35
 74
    0
 49
0
 74
    0
 49
-6.35
 74
    0
  0
LTYPE
  5
3B
330
5
100
AcDbSymbolTableRecord
100
AcDbLinetypeTableRecord
  2
DASHDOTTINY
 70
    0
  3
Dash dot (.15x) _._._._._._._._._._._._._._._.
 72
   65
 73
    4
 40
3.81
 49
1.905
 74
    0
 49
-0.9525
 74
    0
 49
0
 74
    0
 49
-0.9525
 74
    0
  0
LTYPE
  5
3C
330
5
100
AcDbSymbolTableRecord
100
AcDbLinetypeTableRecord
  2
DASHDOT2
 70
    0
  3
Dash dot (.5x) _._._._._._._._._._._._._._._.
 72
   65
 73
    4
 40
12.7
 49
6.35
 74
    0
 49
-3.175
 74
    0
 49
0
 74
    0
 49
-3.175
 74
    0
  0
LTYPE
  5
3D
330
5
100
AcDbSymbolTableRecord
100
AcDbLinetypeTableRecord
  2
DASHDOTX2
 70
    0
  3
Dash dot (2x) ____  .  ____  .  ____  .  ___
 72
   65
 73
    4
 40
50.8
 49
25.4
 74
    0
 49
-12.7
 74
    0
 49
0
 74
    0
 49
-12.7
 74
    0
  0
LTYPE
  5
3E
330
5
100
AcDbSymbolTableRecord
100
AcDbLinetypeTableRecord
  2
DIVIDE
 70
    0
  3
Divide ____ . . ____ . . ____ . . ____ . . ____
 72
   65
 73
    6
 40
31.75
 49
12.7
 74
    0
 49
-6.35
 74
    0
 49
0
 74
    0
 49
-6.35
 74
    0
 49
0
 74
    0
 49
-6.35
 74
    0
  0
LTYPE
  5
3F
330
5
100
AcDbSymbolTableRecord
100
AcDbLinetypeTableRecord
  2
DIVIDETINY
 70
    0
  3
Divide (.15x) __..__..__..__..__..__..__..__.._
 72
   65
 73
    6
 40
4.7625
 49
1.905
 74
    0
 49
-0.9525
 74
    0
 49
0
 74
    0
 49
-0.9525
 74
    0
 49
0
 74
    0
 49
-0.9525
 74
    0
  0
LTYPE
  5
40
330
5
100
AcDbSymbolTableRecord
100
AcDbLinetypeTableRecord
  2
DIVIDE2
 70
    0
  3
Divide (.5x) __..__..__..__..__..__..__..__.._
 72
   65
 73
    6
 40
15.875
 49
6.35
 74
    0
 49
-3.175
 74
    0
 49
0
 74
    0
 49
-3.175
 74
    0
 49
0
 74
    0
 49
-3.175
 74
    0
  0
LTYPE
  5
41
330
5
100
AcDbSymbolTableRecord
100
AcDbLinetypeTableRecord
  2
DIVIDEX2
 70
    0
  3
Divide (2x) ________  .  .  ________  .  .  _
 72
   65
 73
    6
 40
63.5
 49
25.4
 74
    0
 49
-12.7
 74
    0
 49
0
 74
    0
 49
-12.7
 74
    0
 49
0
 74
    0
 49
-12.7
 74
    0
  0
LTYPE
  5
42
330
5
100
AcDbSymbolTableRecord
100
AcDbLinetypeTableRecord
  2
BORDER
 70
    0
  3
Border __ __ . __ __ . __ __ . __ __ . __ __ .
 72
   65
 73
    6
 40
44.45
 49
12.7
 74
    0
 49
-6.35
 74
    0
 49
12.7
 74
    0
 49
-6.35
 74
    0
 49
0
 74
    0
 49
-6.35
 74
    0
  0
LTYPE
  5
43
330
5
100
AcDbSymbolTableRecord
100
AcDbLinetypeTableRecord
  2
BORDERTINY
 70
    0
  3
Border (.15x) __.__.__.__.__.__.__.__.__.__.__.
 72
   65
 73
    6
 40
6.6675
 49
1.905
 74
    0
 49
-0.9525
 74
    0
 49
1.905
 74
    0
 49
-0.9525
 74
    0
 49
0
 74
    0
 49
-0.9525
 74
    0
  0
LTYPE
  5
44
330
5
100
AcDbSymbolTableRecord
100
AcDbLinetypeTableRecord
  2
BORDER2
 70
    0
  3
Border (.5x) __.__.__.__.__.__.__.__.__.__.__.
 72
   65
 73
    6
 40
22.225
 49
6.35
 74
    0
 49
-3.175
 74
    0
 49
6.35
 74
    0
 49
-3.175
 74
    0
 49
0
 74
    0
 49
-3.175
 74
    0
  0
LTYPE
  5
45
330
5
100
AcDbSymbolTableRecord
100
AcDbLinetypeTableRecord
  2
BORDERX2
 70
    0
  3
Border (2x) ____  ____  .  ____  ____  .  ___
 72
   65
 73
    6
 40
88.89999999999999
 49
25.4
 74
    0
 49
-12.7
 74
    0
 49
25.4
 74
    0
 49
-12.7
 74
    0
 49
0
 74
    0
 49
-12.7
 74
    0
  0
LTYPE
  5
46
330
5
100
AcDbSymbolTableRecord
100
AcDbLinetypeTableRecord
  2
CENTER
 70
    0
  3
Center ____ _ ____ _ ____ _ ____ _ ____ _ ____
 72
   65
 73
    4
 40
50.8
 49
31.75
 74
    0
 49
-6.35
 74
    0
 49
6.35
 74
    0
 49
-6.35
 74
    0
  0
LTYPE
  5
47
330
5
100
AcDbSymbolTableRecord
100
AcDbLinetypeTableRecord
  2
CENTERTINY
 70
    0
  3
Center (.15x) ___ _ ___ _ ___ _ ___ _ ___ _ ___
 72
   65
 73
    4
 40
7.62
 49
4.7625
 74
    0
 49
-0.9525
 74
    0
 49
0.9525
 74
    0
 49
-0.9525
 74
    0
  0
LTYPE
  5
48
330
5
100
AcDbSymbolTableRecord
100
AcDbLinetypeTableRecord
  2
CENTER2
 70
    0
  3
Center (.5x) ___ _ ___ _ ___ _ ___ _ ___ _ ___
 72
   65
 73
    4
 40
28.575
 49
19.05
 74
    0
 49
-3.175
 74
    0
 49
3.175
 74
    0
 49
-3.175
 74
    0
  0
LTYPE
  5
49
330
5
100
AcDbSymbolTableRecord
100
AcDbLinetypeTableRecord
  2
CENTERX2
 70
    0
  3
Center (2x) ________  __  ________  __  _____
 72
   65
 73
    4
 40
101.6
 49
63.5
 74
    0
 49
-12.7
 74
    0
 49
12.7
 74
    0
 49
-12.7
 74
    0
  0
ENDTAB
  0
TABLE
  2
LAYER
  5
2
330
0
100
AcDbSymbolTable
 70
    1
  0
LAYER
  5
10
330
2
100
AcDbSymbolTableRecord
100
AcDbLayerTableRecord
  2
0
 70
    0
 62
    7
  6
CONTINUOUS
370
    0
390
F
  0
LAYER
  5
4A
330
2
100
AcDbSymbolTableRecord
100
AcDbLayerTableRecord
  2
Layer 1
 70
    0
 62
    7
  6
CONTINUOUS
370
   -3
390
F
  0
ENDTAB
  0
TABLE
  2
STYLE
  5
3
330
0
100
AcDbSymbolTable
 70
    3
  0
STYLE
  5
4B
330
2
100
AcDbSymbolTableRecord
100
AcDbTextStyleTableRecord
  2
Standard
 70
    0
 40
0
 41
1
 50
0
 71
    0
 42
1
  3
txt
  4

  0
ENDTAB
  0
TABLE
  2
VIEW
  5
6
330
0
100
AcDbSymbolTable
 70
    0
  0
ENDTAB
  0
TABLE
  2
UCS
  5
7
330
0
100
AcDbSymbolTable
 70
    0
  0
ENDTAB
  0
TABLE
  2
APPID
  5
9
330
0
100
AcDbSymbolTable
 70
    1
  0
APPID
  5
12
330
9
100
AcDbSymbolTableRecord
100
AcDbRegAppTableRecord
  2
ACAD
 70
    0
  0
APPID
  5
4C
330
9
100
AcDbSymbolTableRecord
100
AcDbRegAppTableRecord
  2
LibreCad
 70
    0
  0
ENDTAB
  0
TABLE
  2
DIMSTYLE
  5
A
330
0
100
AcDbSymbolTable
 70
    1
100
AcDbDimStyleTable
 71
    1
  0
DIMSTYLE
105
4D
330
A
100
AcDbSymbolTableRecord
100
AcDbDimStyleTableRecord
  2
Standard
 70
    0
 40
1
 41
2.5
 42
0.625
 43
0.38
 44
1.25
 45
0
 46
0
 47
0
 48
0
 49
1
140
2.5
141
0.09
142
2.5
143
25.4
144
1
145
0
146
1
147
0.625
148
0
 71
    0
 72
    0
 73
    0
 74
    1
 75
    0
 76
    0
 77
    0
 78
    1
 79
    0
170
    0
171
    2
172
    0
173
    0
174
    0
175
    0
176
    0
177
    0
178
    0
179
    0
271
    2
272
    4
273
    2
274
    2
275
    0
276
    0
277
    2
278
    0
279
    0
280
    0
281
    0
282
    0
283
    1
284
    0
285
    0
286
    0
288
    0
289
    3
340
standard
341

371
   -2
372
   -2
  0
ENDTAB
  0
TABLE
  2
BLOCK_RECORD
  5
1
330
0
100
AcDbSymbolTable
 70
    2
  0
BLOCK_RECORD
  5
1F
330
1
100
AcDbSymbolTableRecord
100
AcDbBlockTableRecord
  2
*Model_Space
  0
BLOCK_RECORD
  5
1E
330
1
100
AcDbSymbolTableRecord
100
AcDbBlockTableRecord
  2
*Paper_Space
  0
ENDTAB
  0
ENDSEC
  0
SECTION
  2
BLOCKS
  0
BLOCK
  5
20
330
1F
100
AcDbEntity
  8
0
100
AcDbBlockBegin
  2
*Model_Space
 70
    0
 10
0
 20
0
 30
0
  3
*Model_Space
  1

  0
ENDBLK
  5
21
330
1F
100
AcDbEntity
  8
0
100
AcDbBlockEnd
  0
BLOCK
  5
1C
330
1B
100
AcDbEntity
  8
0
100
AcDbBlockBegin
  2
*Paper_Space
 70
    0
 10
0
 20
0
 30
0
  3
*Paper_Space
  1

  0
ENDBLK
  5
1D
330
1F
100
AcDbEntity
  8
0
100
AcDbBlockEnd
  0
ENDSEC
  0
SECTION
  2
ENTITIES
  0
SPLINE
  5
4E
100
AcDbEntity
  8
Layer 1
  6
ByLayer
 62
  256
370
    9
100
AcDbSpline
210
0
220
0
230
0
 70
   11
 71
    3
 72
   76
 73
   72
 74
    0
 42
1e-007
 43
1e-007
 40
0
 40
0
 40
0
 40
0
 40
0.0526315789473684
 40
0.0526315789473684
 40
0.0526315789473684
 40
0.0526315789473684
 40
0.1052631578947368
 40
0.1052631578947368
 40
0.1052631578947368
 40
0.1052631578947368
 40
0.1578947368421053
 40
0.1578947368421053
 40
0.1578947368421053
 40
0.1578947368421053
 40
0.2105263157894737
 40
0.2105263157894737
 40
0.2105263157894737
 40
0.2105263157894737
 40
0.2631578947368421
 40
0.2631578947368421
 40
0.2631578947368421
 40
0.2631578947368421
 40
0.3157894736842105
 40
0.3157894736842105
 40
0.3157894736842105
 40
0.3157894736842105
 40
0.3684210526315789
 40
0.3684210526315789
 40
0.3684210526315789
 40
0.3684210526315789
 40
0.4210526315789473
 40
0.4210526315789473
 40
0.4210526315789473
 40
0.4210526315789473
 40
0.4736842105263158
 40
0.4736842105263158
 40
0.4736842105263158
 40
0.4736842105263158
 40
0.5263157894736842
 40
0.5263157894736842
 40
0.5263157894736842
 40
0.5263157894736842
 40
0.5789473684210527
 40
0.5789473684210527
 40
0.5789473684210527
 40
0.5789473684210527
 40
0.631578947368421
 40
0.631578947368421
 40
0.631578947368421
 40
0.631578947368421
 40
0.6842105263157895
 40
0.6842105263157895
 40
0.6842105263157895
 40
0.6842105263157895
 40
0.7368421052631579
 40
0.7368421052631579
 40
0.7368421052631579
 40
0.7368421052631579
 40
0.7894736842105263
 40
0.7894736842105263
 40
0.7894736842105263
 40
0.7894736842105263
 40
0.8421052631578947
 40
0.8421052631578947
 40
0.8421052631578947
 40
0.8421052631578947
 40
0.8947368421052632
 40
0.8947368421052632
 40
0.8947368421052632
 40
0.8947368421052632
 40
1
 40
1
 40
1
 40
1
 10
166.261066820266
 20
158.7714350823016
 30
0
 10
165.472966820266
 20
158.7714350823016
 30
0
 10
165.078966820266
 20
159.0707350823016
 30
0
 10
165.078966820266
 20
159.6693350823016
 30
0
 10
165.078966820266
 20
159.6693350823016
 30
0
 10
165.078966820266
 20
159.6693350823016
 30
0
 10
165.078966820266
 20
165.1137350823016
 30
0
 10
165.078966820266
 20
165.1137350823016
 30
0
 10
165.078966820266
 20
165.1137350823016
 30
0
 10
165.078966820266
 20
165.7275350823016
 30
0
 10
165.472966820266
 20
166.0343350823016
 30
0
 10
166.261066820266
 20
166.0343350823016
 30
0
 10
166.261066820266
 20
166.0343350823016
 30
0
 10
166.261066820266
 20
166.0343350823016
 30
0
 10
169.204866820266
 20
166.0343350823016
 30
0
 10
169.204866820266
 20
166.0343350823016
 30
0
 10
169.204866820266
 20
166.0343350823016
 30
0
 10
169.992866820266
 20
166.0343350823016
 30
0
 10
170.386966820266
 20
165.7275350823016
 30
0
 10
170.386966820266
 20
165.1137350823016
 30
0
 10
170.386966820266
 20
165.1137350823016
 30
0
 10
170.386966820266
 20
165.1137350823016
 30
0
 10
170.386966820266
 20
163.8861350823016
 30
0
 10
170.386966820266
 20
163.8861350823016
 30
0
 10
170.386966820266
 20
163.8861350823016
 30
0
 10
170.386966820266
 20
163.8861350823016
 30
0
 10
168.022766820266
 20
163.8861350823016
 30
0
 10
168.022766820266
 20
163.8861350823016
 30
0
 10
168.022766820266
 20
163.8861350823016
 30
0
 10
168.022766820266
 20
163.8861350823016
 30
0
 10
168.022766820266
 20
164.1930350823016
 30
0
 10
168.022766820266
 20
164.1930350823016
 30
0
 10
168.022766820266
 20
164.1930350823016
 30
0
 10
168.022766820266
 20
164.2082350823016
 30
0
 10
168.015166820266
 20
164.2158350823016
 30
0
 10
168.000066820266
 20
164.2158350823016
 30
0
 10
168.000066820266
 20
164.2158350823016
 30
0
 10
168.000066820266
 20
164.2158350823016
 30
0
 10
167.465866820266
 20
164.2158350823016
 30
0
 10
167.465866820266
 20
164.2158350823016
 30
0
 10
167.465866820266
 20
164.2158350823016
 30
0
 10
167.450666820266
 20
164.2158350823016
 30
0
 10
167.443066820266
 20
164.2082350823016
 30
0
 10
167.443066820266
 20
164.1930350823016
 30
0
 10
167.443066820266
 20
164.1930350823016
 30
0
 10
167.443066820266
 20
164.1930350823016
 30
0
 10
167.443066820266
 20
160.6013350823016
 30
0
 10
167.443066820266
 20
160.6013350823016
 30
0
 10
167.443066820266
 20
160.6013350823016
 30
0
 10
167.443066820266
 20
160.5862350823016
 30
0
 10
167.450666820266
 20
160.5786350823016
 30
0
 10
167.465866820266
 20
160.5786350823016
 30
0
 10
167.465866820266
 20
160.5786350823016
 30
0
 10
167.465866820266
 20
160.5786350823016
 30
0
 10
168.022766820266
 20
160.5786350823016
 30
0
 10
168.022766820266
 20
160.5786350823016
 30
0
 10
168.022766820266
 20
160.5786350823016
 30
0
 10
168.022766820266
 20
160.5786350823016
 30
0
 10
168.022766820266
 20
163.2155350823016
 30
0
 10
168.022766820266
 20
163.2155350823016
 30
0
 10
168.022766820266
 20
163.2155350823016
 30
0
 10
168.022766820266
 20
163.2155350823016
 30
0
 10
170.386966820266
 20
163.2155350823016
 30
0
 10
170.386966820266
 20
163.2155350823016
 30
0
 10
170.386966820266
 20
163.2155350823016
 30
0
 10
170.386966820266
 20
163.2155350823016
 30
0
 10
170.386966820266
 20
158.7714350823016
 30
0
 10
170.386966820266
 20
158.7714350823016
 30
0
 10
170.386966820266
 20
158.7714350823016
 30
0
 10
170.386966820266
 20
158.7714350823016
 30
0
 10
166.261066820266
 20
158.7714350823016
 30
0
 10
166.261066820266
 20
158.7714350823016
 30
0
  0
SPLINE
  5
4F
100
AcDbEntity
  8
Layer 1
  6
ByLayer
 62
  256
370
    9
100
AcDbSpline
210
0
220
0
230
0
 70
   11
 71
    3
 72
  116
 73
  112
 74
    0
 42
1e-007
 43
1e-007
 40
0
 40
0
 40
0
 40
0
 40
0.0344827586206897
 40
0.0344827586206897
 40
0.0344827586206897
 40
0.0344827586206897
 40
0.0689655172413793
 40
0.0689655172413793
 40
0.0689655172413793
 40
0.0689655172413793
 40
0.103448275862069
 40
0.103448275862069
 40
0.103448275862069
 40
0.103448275862069
 40
0.1379310344827586
 40
0.1379310344827586
 40
0.1379310344827586
 40
0.1379310344827586
 40
0.1724137931034483
 40
0.1724137931034483
 40
0.1724137931034483
 40
0.1724137931034483
 40
0.2068965517241379
 40
0.2068965517241379
 40
0.2068965517241379
 40
0.2068965517241379
 40
0.2413793103448276
 40
0.2413793103448276
 40
0.2413793103448276
 40
0.2413793103448276
 40
0.2758620689655172
 40
0.2758620689655172
 40
0.2758620689655172
 40
0.2758620689655172
 40
0.3103448275862069
 40
0.3103448275862069
 40
0.3103448275862069
 40
0.3103448275862069
 40
0.3448275862068966
 40
0.3448275862068966
 40
0.3448275862068966
 40
0.3448275862068966
 40
0.3793103448275862
 40
0.3793103448275862
 40
0.3793103448275862
 40
0.3793103448275862
 40
0.4137931034482759
 40
0.4137931034482759
 40
0.4137931034482759
 40
0.4137931034482759
 40
0.4482758620689655
 40
0.4482758620689655
 40
0.4482758620689655
 40
0.4482758620689655
 40
0.4827586206896552
 40
0.4827586206896552
 40
0.4827586206896552
 40
0.4827586206896552
 40
0.5172413793103449
 40
0.5172413793103449
 40
0.5172413793103449
 40
0.5172413793103449
 40
0.5517241379310345
 40
0.5517241379310345
 40
0.5517241379310345
 40
0.5517241379310345
 40
0.5862068965517241
 40
0.5862068965517241
 40
0.5862068965517241
 40
0.5862068965517241
 40
0.6206896551724138
 40
0.6206896551724138
 40
0.6206896551724138
 40
0.6206896551724138
 40
0.6551724137931034
 40
0.6551724137931034
 40
0.6551724137931034
 40
0.6551724137931034
 40
0.6896551724137931
 40
0.6896551724137931
 40
0.6896551724137931
 40
0.6896551724137931
 40
0.7241379310344828
 40
0.7241379310344828
 40
0.7241379310344828
 40
0.7241379310344828
 40
0.7586206896551724
 40
0.7586206896551724
 40
0.7586206896551724
 40
0.7586206896551724
 40
0.7931034482758621
 40
0.7931034482758621
 40
0.7931034482758621
 40
0.7931034482758621
 40
0.8275862068965517
 40
0.8275862068965517
 40
0.8275862068965517
 40
0.8275862068965517
 40
0.8620689655172413
 40
0.8620689655172413
 40
0.8620689655172413
 40
0.8620689655172413
 40
0.896551724137931
 40
0.896551724137931
 40
0.896551724137931
 40
0.896551724137931
 40
0.9310344827586207
 40
0.9310344827586207
 40
0.9310344827586207
 40
0.9310344827586207
 40
1
 40
1
 40
1
 40
1
 10
172.125966820266
 20
158.7714350823016
 30
0
 10
171.337866820266
 20
158.7714350823016
 30
0
 10
170.943866820266
 20
159.0707350823016
 30
0
 10
170.943866820266
 20
159.6693350823016
 30
0
 10
170.943866820266
 20
159.6693350823016
 30
0
 10
170.943866820266
 20
159.6693350823016
 30
0
 10
170.943866820266
 20
161.0333350823016
 30
0
 10
170.943866820266
 20
161.0333350823016
 30
0
 10
170.943866820266
 20
161.0333350823016
 30
0
 10
170.943866820266
 20
161.0333350823016
 30
0
 10
173.307966820266
 20
161.0333350823016
 30
0
 10
173.307966820266
 20
161.0333350823016
 30
0
 10
173.307966820266
 20
161.0333350823016
 30
0
 10
173.307966820266
 20
161.0333350823016
 30
0
 10
173.307966820266
 20
160.6013350823016
 30
0
 10
173.307966820266
 20
160.6013350823016
 30
0
 10
173.307966820266
 20
160.6013350823016
 30
0
 10
173.307966820266
 20
160.5862350823016
 30
0
 10
173.315566820266
 20
160.5786350823016
 30
0
 10
173.330766820266
 20
160.5786350823016
 30
0
 10
173.330766820266
 20
160.5786350823016
 30
0
 10
173.330766820266
 20
160.5786350823016
 30
0
 10
173.864966820266
 20
160.5786350823016
 30
0
 10
173.864966820266
 20
160.5786350823016
 30
0
 10
173.864966820266
 20
160.5786350823016
 30
0
 10
173.880066820266
 20
160.5786350823016
 30
0
 10
173.887666820266
 20
160.5862350823016
 30
0
 10
173.887666820266
 20
160.6013350823016
 30
0
 10
173.887666820266
 20
160.6013350823016
 30
0
 10
173.887666820266
 20
160.6013350823016
 30
0
 10
173.887666820266
 20
161.4652350823016
 30
0
 10
173.887666820266
 20
161.4652350823016
 30
0
 10
173.887666820266
 20
161.4652350823016
 30
0
 10
173.887666820266
 20
161.4803350823016
 30
0
 10
173.880066820266
 20
161.4879350823016
 30
0
 10
173.864966820266
 20
161.4879350823016
 30
0
 10
173.864966820266
 20
161.4879350823016
 30
0
 10
173.864966820266
 20
161.4879350823016
 30
0
 10
172.125966820266
 20
161.4879350823016
 30
0
 10
172.125966820266
 20
161.4879350823016
 30
0
 10
172.125966820266
 20
161.4879350823016
 30
0
 10
171.337866820266
 20
161.4879350823016
 30
0
 10
170.943866820266
 20
161.7948350823016
 30
0
 10
170.943866820266
 20
162.4086350823016
 30
0
 10
170.943866820266
 20
162.4086350823016
 30
0
 10
170.943866820266
 20
162.4086350823016
 30
0
 10
170.943866820266
 20
165.1137350823016
 30
0
 10
170.943866820266
 20
165.1137350823016
 30
0
 10
170.943866820266
 20
165.1137350823016
 30
0
 10
170.943866820266
 20
165.7275350823016
 30
0
 10
171.337866820266
 20
166.0343350823016
 30
0
 10
172.125966820266
 20
166.0343350823016
 30
0
 10
172.125966820266
 20
166.0343350823016
 30
0
 10
172.125966820266
 20
166.0343350823016
 30
0
 10
175.069766820266
 20
166.0343350823016
 30
0
 10
175.069766820266
 20
166.0343350823016
 30
0
 10
175.069766820266
 20
166.0343350823016
 30
0
 10
175.857766820266
 20
166.0343350823016
 30
0
 10
176.251866820266
 20
165.7275350823016
 30
0
 10
176.251866820266
 20
165.1137350823016
 30
0
 10
176.251866820266
 20
165.1137350823016
 30
0
 10
176.251866820266
 20
165.1137350823016
 30
0
 10
176.251866820266
 20
163.7725350823016
 30
0
 10
176.251866820266
 20
163.7725350823016
 30
0
 10
176.251866820266
 20
163.7725350823016
 30
0
 10
176.251866820266
 20
163.7725350823016
 30
0
 10
173.887666820266
 20
163.7725350823016
 30
0
 10
173.887666820266
 20
163.7725350823016
 30
0
 10
173.887666820266
 20
163.7725350823016
 30
0
 10
173.887666820266
 20
163.7725350823016
 30
0
 10
173.887666820266
 20
164.1930350823016
 30
0
 10
173.887666820266
 20
164.1930350823016
 30
0
 10
173.887666820266
 20
164.1930350823016
 30
0
 10
173.887666820266
 20
164.2082350823016
 30
0
 10
173.880066820266
 20
164.2158350823016
 30
0
 10
173.864966820266
 20
164.2158350823016
 30
0
 10
173.864966820266
 20
164.2158350823016
 30
0
 10
173.864966820266
 20
164.2158350823016
 30
0
 10
173.330766820266
 20
164.2158350823016
 30
0
 10
173.330766820266
 20
164.2158350823016
 30
0
 10
173.330766820266
 20
164.2158350823016
 30
0
 10
173.315566820266
 20
164.2158350823016
 30
0
 10
173.307966820266
 20
164.2082350823016
 30
0
 10
173.307966820266
 20
164.1930350823016
 30
0
 10
173.307966820266
 20
164.1930350823016
 30
0
 10
173.307966820266
 20
164.1930350823016
 30
0
 10
173.307966820266
 20
163.3292350823016
 30
0
 10
173.307966820266
 20
163.3292350823016
 30
0
 10
173.307966820266
 20
163.3292350823016
 30
0
 10
173.307966820266
 20
163.3141350823016
 30
0
 10
173.315566820266
 20
163.3065350823016
 30
0
 10
173.330766820266
 20
163.3065350823016
 30
0
 10
173.330766820266
 20
163.3065350823016
 30
0
 10
173.330766820266
 20
163.3065350823016
 30
0
 10
175.069766820266
 20
163.3065350823016
 30
0
 10
175.069766820266
 20
163.3065350823016
 30
0
 10
175.069766820266
 20
163.3065350823016
 30
0
 10
175.857766820266
 20
163.3065350823016
 30
0
 10
176.251866820266
 20
163.0072350823016
 30
0
 10
176.251866820266
 20
162.4086350823016
 30
0
 10
176.251866820266
 20
162.4086350823016
 30
0
 10
176.251866820266
 20
162.4086350823016
 30
0
 10
176.251866820266
 20
159.6693350823016
 30
0
 10
176.251866820266
 20
159.6693350823016
 30
0
 10
176.251866820266
 20
159.6693350823016
 30
0
 10
176.251866820266
 20
159.0707350823016
 30
0
 10
175.857766820266
 20
158.7714350823016
 30
0
 10
175.069766820266
 20
158.7714350823016
 30
0
 10
175.069766820266
 20
158.7714350823016
 30
0
 10
175.069766820266
 20
158.7714350823016
 30
0
 10
172.125966820266
 20
158.7714350823016
 30
0
 10
172.125966820266
 20
158.7714350823016
 30
0
  0
SPLINE
  5
50
100
AcDbEntity
  8
Layer 1
  6
ByLayer
 62
  256
370
    9
100
AcDbSpline
210
0
220
0
230
0
 70
   11
 71
    3
 72
   72
 73
   68
 74
    0
 42
1e-007
 43
1e-007
 40
0
 40
0
 40
0
 40
0
 40
0.0555555555555556
 40
0.0555555555555556
 40
0.0555555555555556
 40
0.0555555555555556
 40
0.1111111111111111
 40
0.1111111111111111
 40
0.1111111111111111
 40
0.1111111111111111
 40
0.1666666666666667
 40
0.1666666666666667
 40
0.1666666666666667
 40
0.1666666666666667
 40
0.2222222222222222
 40
0.2222222222222222
 40
0.2222222222222222
 40
0.2222222222222222
 40
0.2777777777777778
 40
0.2777777777777778
 40
0.2777777777777778
 40
0.2777777777777778
 40
0.3333333333333333
 40
0.3333333333333333
 40
0.3333333333333333
 40
0.3333333333333333
 40
0.3888888888888889
 40
0.3888888888888889
 40
0.3888888888888889
 40
0.3888888888888889
 40
0.4444444444444444
 40
0.4444444444444444
 40
0.4444444444444444
 40
0.4444444444444444
 40
0.5
 40
0.5
 40
0.5
 40
0.5
 40
0.5555555555555556
 40
0.5555555555555556
 40
0.5555555555555556
 40
0.5555555555555556
 40
0.6111111111111112
 40
0.6111111111111112
 40
0.6111111111111112
 40
0.6111111111111112
 40
0.6666666666666666
 40
0.6666666666666666
 40
0.6666666666666666
 40
0.6666666666666666
 40
0.7222222222222222
 40
0.7222222222222222
 40
0.7222222222222222
 40
0.7222222222222222
 40
0.7777777777777778
 40
0.7777777777777778
 40
0.7777777777777778
 40
0.7777777777777778
 40
0.8333333333333334
 40
0.8333333333333334
 40
0.8333333333333334
 40
0.8333333333333334
 40
0.8888888888888888
 40
0.8888888888888888
 40
0.8888888888888888
 40
0.8888888888888888
 40
1
 40
1
 40
1
 40
1
 10
180.945966820266
 20
156.5095350823016
 30
0
 10
180.157966820266
 20
156.5095350823016
 30
0
 10
179.763866820266
 20
156.8089350823016
 30
0
 10
179.763866820266
 20
157.4075350823016
 30
0
 10
179.763866820266
 20
157.4075350823016
 30
0
 10
179.763866820266
 20
157.4075350823016
 30
0
 10
179.763866820266
 20
161.6584350823016
 30
0
 10
179.763866820266
 20
161.6584350823016
 30
0
 10
179.763866820266
 20
161.6584350823016
 30
0
 10
179.763866820266
 20
161.6735350823016
 30
0
 10
179.756366820266
 20
161.6811350823016
 30
0
 10
179.741166820266
 20
161.6811350823016
 30
0
 10
179.741166820266
 20
161.6811350823016
 30
0
 10
179.741166820266
 20
161.6811350823016
 30
0
 10
179.184266820266
 20
161.6811350823016
 30
0
 10
179.184266820266
 20
161.6811350823016
 30
0
 10
179.184266820266
 20
161.6811350823016
 30
0
 10
179.184266820266
 20
161.6811350823016
 30
0
 10
179.184266820266
 20
158.7714350823016
 30
0
 10
179.184266820266
 20
158.7714350823016
 30
0
 10
179.184266820266
 20
158.7714350823016
 30
0
 10
179.184266820266
 20
158.7714350823016
 30
0
 10
176.820066820266
 20
158.7714350823016
 30
0
 10
176.820066820266
 20
158.7714350823016
 30
0
 10
176.820066820266
 20
158.7714350823016
 30
0
 10
176.820066820266
 20
158.7714350823016
 30
0
 10
176.820066820266
 20
166.0343350823016
 30
0
 10
176.820066820266
 20
166.0343350823016
 30
0
 10
176.820066820266
 20
166.0343350823016
 30
0
 10
176.820066820266
 20
166.0343350823016
 30
0
 10
180.945966820266
 20
166.0343350823016
 30
0
 10
180.945966820266
 20
166.0343350823016
 30
0
 10
180.945966820266
 20
166.0343350823016
 30
0
 10
181.726466820266
 20
166.0343350823016
 30
0
 10
182.116666820266
 20
165.7275350823016
 30
0
 10
182.116666820266
 20
165.1137350823016
 30
0
 10
182.116666820266
 20
165.1137350823016
 30
0
 10
182.116666820266
 20
165.1137350823016
 30
0
 10
182.116666820266
 20
162.9996350823016
 30
0
 10
182.116666820266
 20
162.9996350823016
 30
0
 10
182.116666820266
 20
162.9996350823016
 30
0
 10
182.116666820266
 20
162.6510350823016
 30
0
 10
181.923466820266
 20
162.4540350823016
 30
0
 10
181.537066820266
 20
162.4086350823016
 30
0
 10
181.537066820266
 20
162.4086350823016
 30
0
 10
181.931066820266
 20
162.3555350823016
 30
0
 10
182.128066820266
 20
162.1547350823016
 30
0
 10
182.128066820266
 20
161.8061350823016
 30
0
 10
182.128066820266
 20
161.8061350823016
 30
0
 10
182.128066820266
 20
161.8061350823016
 30
0
 10
182.128066820266
 20
158.3395350823016
 30
0
 10
182.128066820266
 20
158.3395350823016
 30
0
 10
182.128066820266
 20
158.3395350823016
 30
0
 10
182.128066820266
 20
158.3243350823016
 30
0
 10
182.135666820266
 20
158.3168350823016
 30
0
 10
182.150766820266
 20
158.3168350823016
 30
0
 10
182.150766820266
 20
158.3168350823016
 30
0
 10
182.150766820266
 20
158.3168350823016
 30
0
 10
188.368066820266
 20
158.3168350823016
 30
0
 10
188.368066820266
 20
158.3168350823016
 30
0
 10
188.368066820266
 20
158.3168350823016
 30
0
 10
188.368066820266
 20
158.3168350823016
 30
0
 10
188.368066820266
 20
156.5095350823016
 30
0
 10
188.368066820266
 20
156.5095350823016
 30
0
 10
188.368066820266
 20
156.5095350823016
 30
0
 10
188.368066820266
 20
156.5095350823016
 30
0
 10
180.945966820266
 20
156.5095350823016
 30
0
 10
180.945966820266
 20
156.5095350823016
 30
0
  0
SPLINE
  5
51
100
AcDbEntity
  8
Layer 1
  6
ByLayer
 62
  256
370
    9
100
AcDbSpline
210
0
220
0
230
0
 70
   11
 71
    3
 72
   28
 73
   24
 74
    0
 42
1e-007
 43
1e-007
 40
0
 40
0
 40
0
 40
0
 40
0.1428571428571428
 40
0.1428571428571428
 40
0.1428571428571428
 40
0.1428571428571428
 40
0.2857142857142857
 40
0.2857142857142857
 40
0.2857142857142857
 40
0.2857142857142857
 40
0.4285714285714285
 40
0.4285714285714285
 40
0.4285714285714285
 40
0.4285714285714285
 40
0.5714285714285714
 40
0.5714285714285714
 40
0.5714285714285714
 40
0.5714285714285714
 40
0.7142857142857143
 40
0.7142857142857143
 40
0.7142857142857143
 40
0.7142857142857143
 40
1
 40
1
 40
1
 40
1
 10
179.763866820266
 20
164.1930350823016
 30
0
 10
179.763866820266
 20
164.2082350823016
 30
0
 10
179.756366820266
 20
164.2158350823016
 30
0
 10
179.741166820266
 20
164.2158350823016
 30
0
 10
179.741166820266
 20
164.2158350823016
 30
0
 10
179.741166820266
 20
164.2158350823016
 30
0
 10
179.184266820266
 20
164.2158350823016
 30
0
 10
179.184266820266
 20
164.2158350823016
 30
0
 10
179.184266820266
 20
164.2158350823016
 30
0
 10
179.184266820266
 20
164.2158350823016
 30
0
 10
179.184266820266
 20
163.1246350823016
 30
0
 10
179.184266820266
 20
163.1246350823016
 30
0
 10
179.184266820266
 20
163.1246350823016
 30
0
 10
179.184266820266
 20
163.1246350823016
 30
0
 10
179.741166820266
 20
163.1246350823016
 30
0
 10
179.741166820266
 20
163.1246350823016
 30
0
 10
179.741166820266
 20
163.1246350823016
 30
0
 10
179.756366820266
 20
163.1246350823016
 30
0
 10
179.763866820266
 20
163.1322350823016
 30
0
 10
179.763866820266
 20
163.1473350823016
 30
0
 10
179.763866820266
 20
163.1473350823016
 30
0
 10
179.763866820266
 20
163.1473350823016
 30
0
 10
179.763866820266
 20
164.1930350823016
 30
0
 10
179.763866820266
 20
164.1930350823016
 30
0
  0
SPLINE
  5
52
100
AcDbEntity
  8
Layer 1
  6
ByLayer
 62
  256
370
    9
100
AcDbSpline
210
0
220
0
230
0
 70
   11
 71
    3
 72
   84
 73
   80
 74
    0
 42
1e-007
 43
1e-007
 40
0
 40
0
 40
0
 40
0
 40
0.0476190476190476
 40
0.0476190476190476
 40
0.0476190476190476
 40
0.0476190476190476
 40
0.09523809523809521
 40
0.09523809523809521
 40
0.09523809523809521
 40
0.09523809523809521
 40
0.1428571428571428
 40
0.1428571428571428
 40
0.1428571428571428
 40
0.1428571428571428
 40
0.1904761904761905
 40
0.1904761904761905
 40
0.1904761904761905
 40
0.1904761904761905
 40
0.2380952380952381
 40
0.2380952380952381
 40
0.2380952380952381
 40
0.2380952380952381
 40
0.2857142857142857
 40
0.2857142857142857
 40
0.2857142857142857
 40
0.2857142857142857
 40
0.3333333333333333
 40
0.3333333333333333
 40
0.3333333333333333
 40
0.3333333333333333
 40
0.3809523809523809
 40
0.3809523809523809
 40
0.3809523809523809
 40
0.3809523809523809
 40
0.4285714285714285
 40
0.4285714285714285
 40
0.4285714285714285
 40
0.4285714285714285
 40
0.4761904761904762
 40
0.4761904761904762
 40
0.4761904761904762
 40
0.4761904761904762
 40
0.5238095238095238
 40
0.5238095238095238
 40
0.5238095238095238
 40
0.5238095238095238
 40
0.5714285714285714
 40
0.5714285714285714
 40
0.5714285714285714
 40
0.5714285714285714
 40
0.6190476190476191
 40
0.6190476190476191
 40
0.6190476190476191
 40
0.6190476190476191
 40
0.6666666666666666
 40
0.6666666666666666
 40
0.6666666666666666
 40
0.6666666666666666
 40
0.7142857142857143
 40
0.7142857142857143
 40
0.7142857142857143
 40
0.7142857142857143
 40
0.7619047619047619
 40
0.7619047619047619
 40
0.7619047619047619
 40
0.7619047619047619
 40
0.8095238095238095
 40
0.8095238095238095
 40
0.8095238095238095
 40
0.8095238095238095
 40
0.8571428571428571
 40
0.8571428571428571
 40
0.8571428571428571
 40
0.8571428571428571
 40
0.9047619047619048
 40
0.9047619047619048
 40
0.9047619047619048
 40
0.9047619047619048
 40
1
 40
1
 40
1
 40
1
 10
184.242166820266
 20
158.7714350823016
 30
0
 10
183.454066820266
 20
158.7714350823016
 30
0
 10
183.060066820266
 20
159.0707350823016
 30
0
 10
183.060066820266
 20
159.6693350823016
 30
0
 10
183.060066820266
 20
159.6693350823016
 30
0
 10
183.060066820266
 20
159.6693350823016
 30
0
 10
183.060066820266
 20
163.7725350823016
 30
0
 10
183.060066820266
 20
163.7725350823016
 30
0
 10
183.060066820266
 20
163.7725350823016
 30
0
 10
183.060066820266
 20
163.7725350823016
 30
0
 10
182.480366820266
 20
163.7725350823016
 30
0
 10
182.480366820266
 20
163.7725350823016
 30
0
 10
182.480366820266
 20
163.7725350823016
 30
0
 10
182.480366820266
 20
163.7725350823016
 30
0
 10
182.480366820266
 20
165.5683350823016
 30
0
 10
182.480366820266
 20
165.5683350823016
 30
0
 10
182.480366820266
 20
165.5683350823016
 30
0
 10
182.480366820266
 20
165.5683350823016
 30
0
 10
183.060066820266
 20
165.5683350823016
 30
0
 10
183.060066820266
 20
165.5683350823016
 30
0
 10
183.060066820266
 20
165.5683350823016
 30
0
 10
183.060066820266
 20
165.5683350823016
 30
0
 10
183.060066820266
 20
166.0343350823016
 30
0
 10
183.060066820266
 20
166.0343350823016
 30
0
 10
183.060066820266
 20
166.0343350823016
 30
0
 10
183.060066820266
 20
166.0343350823016
 30
0
 10
185.424266820266
 20
166.0343350823016
 30
0
 10
185.424266820266
 20
166.0343350823016
 30
0
 10
185.424266820266
 20
166.0343350823016
 30
0
 10
185.424266820266
 20
166.0343350823016
 30
0
 10
185.424266820266
 20
165.5683350823016
 30
0
 10
185.424266820266
 20
165.5683350823016
 30
0
 10
185.424266820266
 20
165.5683350823016
 30
0
 10
185.424266820266
 20
165.5683350823016
 30
0
 10
188.368066820266
 20
165.5683350823016
 30
0
 10
188.368066820266
 20
165.5683350823016
 30
0
 10
188.368066820266
 20
165.5683350823016
 30
0
 10
188.368066820266
 20
165.5683350823016
 30
0
 10
188.368066820266
 20
163.7725350823016
 30
0
 10
188.368066820266
 20
163.7725350823016
 30
0
 10
188.368066820266
 20
163.7725350823016
 30
0
 10
188.368066820266
 20
163.7725350823016
 30
0
 10
185.424266820266
 20
163.7725350823016
 30
0
 10
185.424266820266
 20
163.7725350823016
 30
0
 10
185.424266820266
 20
163.7725350823016
 30
0
 10
185.424266820266
 20
163.7725350823016
 30
0
 10
185.424266820266
 20
160.6013350823016
 30
0
 10
185.424266820266
 20
160.6013350823016
 30
0
 10
185.424266820266
 20
160.6013350823016
 30
0
 10
185.424266820266
 20
160.5862350823016
 30
0
 10
185.431766820266
 20
160.5786350823016
 30
0
 10
185.446966820266
 20
160.5786350823016
 30
0
 10
185.446966820266
 20
160.5786350823016
 30
0
 10
185.446966820266
 20
160.5786350823016
 30
0
 10
185.992566820266
 20
160.5786350823016
 30
0
 10
185.992566820266
 20
160.5786350823016
 30
0
 10
185.992566820266
 20
160.5786350823016
 30
0
 10
186.007666820266
 20
160.5786350823016
 30
0
 10
186.015266820266
 20
160.5862350823016
 30
0
 10
186.015266820266
 20
160.6013350823016
 30
0
 10
186.015266820266
 20
160.6013350823016
 30
0
 10
186.015266820266
 20
160.6013350823016
 30
0
 10
186.015266820266
 20
163.3065350823016
 30
0
 10
186.015266820266
 20
163.3065350823016
 30
0
 10
186.015266820266
 20
163.3065350823016
 30
0
 10
186.015266820266
 20
163.3065350823016
 30
0
 10
188.368066820266
 20
163.3065350823016
 30
0
 10
188.368066820266
 20
163.3065350823016
 30
0
 10
188.368066820266
 20
163.3065350823016
 30
0
 10
188.368066820266
 20
163.3065350823016
 30
0
 10
188.368066820266
 20
159.6693350823016
 30
0
 10
188.368066820266
 20
159.6693350823016
 30
0
 10
188.368066820266
 20
159.6693350823016
 30
0
 10
188.368066820266
 20
159.0707350823016
 30
0
 10
187.974066820266
 20
158.7714350823016
 30
0
 10
187.185966820266
 20
158.7714350823016
 30
0
 10
187.185966820266
 20
158.7714350823016
 30
0
 10
187.185966820266
 20
158.7714350823016
 30
0
 10
184.242166820266
 20
158.7714350823016
 30
0
 10
184.242166820266
 20
158.7714350823016
 30
0
  0
SPLINE
  5
53
100
AcDbEntity
  8
Layer 1
  6
ByLayer
 62
  256
370
    9
100
AcDbSpline
210
0
220
0
230
0
 70
   11
 71
    3
 72
   28
 73
   24
 74
    0
 42
1e-007
 43
1e-007
 40
0
 40
0
 40
0
 40
0
 40
0.1428571428571428
 40
0.1428571428571428
 40
0.1428571428571428
 40
0.1428571428571428
 40
0.2857142857142857
 40
0.2857142857142857
 40
0.2857142857142857
 40
0.2857142857142857
 40
0.4285714285714285
 40
0.4285714285714285
 40
0.4285714285714285
 40
0.4285714285714285
 40
0.5714285714285714
 40
0.5714285714285714
 40
0.5714285714285714
 40
0.5714285714285714
 40
0.7142857142857143
 40
0.7142857142857143
 40
0.7142857142857143
 40
0.7142857142857143
 40
1
 40
1
 40
1
 40
1
 10
194.414766820266
 20
164.1930350823016
 30
0
 10
194.414766820266
 20
164.2082350823016
 30
0
 10
194.407166820266
 20
164.2158350823016
 30
0
 10
194.391966820266
 20
164.2158350823016
 30
0
 10
194.391966820266
 20
164.2158350823016
 30
0
 10
194.391966820266
 20
164.2158350823016
 30
0
 10
193.857766820266
 20
164.2158350823016
 30
0
 10
193.857766820266
 20
164.2158350823016
 30
0
 10
193.857766820266
 20
164.2158350823016
 30
0
 10
193.842666820266
 20
164.2158350823016
 30
0
 10
193.835066820266
 20
164.2082350823016
 30
0
 10
193.835066820266
 20
164.1930350823016
 30
0
 10
193.835066820266
 20
164.1930350823016
 30
0
 10
193.835066820266
 20
164.1930350823016
 30
0
 10
193.835066820266
 20
163.3065350823016
 30
0
 10
193.835066820266
 20
163.3065350823016
 30
0
 10
193.835066820266
 20
163.3065350823016
 30
0
 10
193.835066820266
 20
163.3065350823016
 30
0
 10
194.414766820266
 20
163.3065350823016
 30
0
 10
194.414766820266
 20
163.3065350823016
 30
0
 10
194.414766820266
 20
163.3065350823016
 30
0
 10
194.414766820266
 20
163.3065350823016
 30
0
 10
194.414766820266
 20
164.1930350823016
 30
0
 10
194.414766820266
 20
164.1930350823016
 30
0
  0
SPLINE
  5
54
100
AcDbEntity
  8
Layer 1
  6
ByLayer
 62
  256
370
    9
100
AcDbSpline
210
0
220
0
230
0
 70
   11
 71
    3
 72
   60
 73
   56
 74
    0
 42
1e-007
 43
1e-007
 40
0
 40
0
 40
0
 40
0
 40
0.06666666666666669
 40
0.06666666666666669
 40
0.06666666666666669
 40
0.06666666666666669
 40
0.1333333333333333
 40
0.1333333333333333
 40
0.1333333333333333
 40
0.1333333333333333
 40
0.2
 40
0.2
 40
0.2
 40
0.2
 40
0.2666666666666667
 40
0.2666666666666667
 40
0.2666666666666667
 40
0.2666666666666667
 40
0.3333333333333333
 40
0.3333333333333333
 40
0.3333333333333333
 40
0.3333333333333333
 40
0.4
 40
0.4
 40
0.4
 40
0.4
 40
0.4666666666666667
 40
0.4666666666666667
 40
0.4666666666666667
 40
0.4666666666666667
 40
0.5333333333333333
 40
0.5333333333333333
 40
0.5333333333333333
 40
0.5333333333333333
 40
0.6
 40
0.6
 40
0.6
 40
0.6
 40
0.6666666666666666
 40
0.6666666666666666
 40
0.6666666666666666
 40
0.6666666666666666
 40
0.7333333333333333
 40
0.7333333333333333
 40
0.7333333333333333
 40
0.7333333333333333
 40
0.8
 40
0.8
 40
0.8
 40
0.8
 40
0.8666666666666667
 40
0.8666666666666667
 40
0.8666666666666667
 40
0.8666666666666667
 40
1
 40
1
 40
1
 40
1
 10
195.596766820266
 20
156.5095350823016
 30
0
 10
194.808766820266
 20
156.5095350823016
 30
0
 10
194.414766820266
 20
156.8089350823016
 30
0
 10
194.414766820266
 20
157.4075350823016
 30
0
 10
194.414766820266
 20
157.4075350823016
 30
0
 10
194.414766820266
 20
157.4075350823016
 30
0
 10
194.414766820266
 20
161.4879350823016
 30
0
 10
194.414766820266
 20
161.4879350823016
 30
0
 10
194.414766820266
 20
161.4879350823016
 30
0
 10
194.414766820266
 20
161.4879350823016
 30
0
 10
193.835066820266
 20
161.4879350823016
 30
0
 10
193.835066820266
 20
161.4879350823016
 30
0
 10
193.835066820266
 20
161.4879350823016
 30
0
 10
193.835066820266
 20
161.4879350823016
 30
0
 10
193.835066820266
 20
158.7714350823016
 30
0
 10
193.835066820266
 20
158.7714350823016
 30
0
 10
193.835066820266
 20
158.7714350823016
 30
0
 10
193.835066820266
 20
158.7714350823016
 30
0
 10
191.470966820266
 20
158.7714350823016
 30
0
 10
191.470966820266
 20
158.7714350823016
 30
0
 10
191.470966820266
 20
158.7714350823016
 30
0
 10
191.470966820266
 20
158.7714350823016
 30
0
 10
191.470966820266
 20
165.1137350823016
 30
0
 10
191.470966820266
 20
165.1137350823016
 30
0
 10
191.470966820266
 20
165.1137350823016
 30
0
 10
191.470966820266
 20
165.7275350823016
 30
0
 10
191.864966820266
 20
166.0343350823016
 30
0
 10
192.652966820266
 20
166.0343350823016
 30
0
 10
192.652966820266
 20
166.0343350823016
 30
0
 10
192.652966820266
 20
166.0343350823016
 30
0
 10
195.596766820266
 20
166.0343350823016
 30
0
 10
195.596766820266
 20
166.0343350823016
 30
0
 10
195.596766820266
 20
166.0343350823016
 30
0
 10
196.384866820266
 20
166.0343350823016
 30
0
 10
196.778866820266
 20
165.7275350823016
 30
0
 10
196.778866820266
 20
165.1137350823016
 30
0
 10
196.778866820266
 20
165.1137350823016
 30
0
 10
196.778866820266
 20
165.1137350823016
 30
0
 10
196.778866820266
 20
158.3395350823016
 30
0
 10
196.778866820266
 20
158.3395350823016
 30
0
 10
196.778866820266
 20
158.3395350823016
 30
0
 10
196.778866820266
 20
158.3243350823016
 30
0
 10
196.786466820266
 20
158.3168350823016
 30
0
 10
196.801666820266
 20
158.3168350823016
 30
0
 10
196.801666820266
 20
158.3168350823016
 30
0
 10
196.801666820266
 20
158.3168350823016
 30
0
 10
203.018866820266
 20
158.3168350823016
 30
0
 10
203.018866820266
 20
158.3168350823016
 30
0
 10
203.018866820266
 20
158.3168350823016
 30
0
 10
203.018866820266
 20
158.3168350823016
 30
0
 10
203.018866820266
 20
156.5095350823016
 30
0
 10
203.018866820266
 20
156.5095350823016
 30
0
 10
203.018866820266
 20
156.5095350823016
 30
0
 10
203.018866820266
 20
156.5095350823016
 30
0
 10
195.596766820266
 20
156.5095350823016
 30
0
 10
195.596766820266
 20
156.5095350823016
 30
0
  0
SPLINE
  5
55
100
AcDbEntity
  8
Layer 1
  6
ByLayer
 62
  256
370
    9
100
AcDbSpline
210
0
220
0
230
0
 70
   11
 71
    3
 72
   84
 73
   80
 74
    0
 42
1e-007
 43
1e-007
 40
0
 40
0
 40
0
 40
0
 40
0.0476190476190476
 40
0.0476190476190476
 40
0.0476190476190476
 40
0.0476190476190476
 40
0.09523809523809521
 40
0.09523809523809521
 40
0.09523809523809521
 40
0.09523809523809521
 40
0.1428571428571428
 40
0.1428571428571428
 40
0.1428571428571428
 40
0.1428571428571428
 40
0.1904761904761905
 40
0.1904761904761905
 40
0.1904761904761905
 40
0.1904761904761905
 40
0.2380952380952381
 40
0.2380952380952381
 40
0.2380952380952381
 40
0.2380952380952381
 40
0.2857142857142857
 40
0.2857142857142857
 40
0.2857142857142857
 40
0.2857142857142857
 40
0.3333333333333333
 40
0.3333333333333333
 40
0.3333333333333333
 40
0.3333333333333333
 40
0.3809523809523809
 40
0.3809523809523809
 40
0.3809523809523809
 40
0.3809523809523809
 40
0.4285714285714285
 40
0.4285714285714285
 40
0.4285714285714285
 40
0.4285714285714285
 40
0.4761904761904762
 40
0.4761904761904762
 40
0.4761904761904762
 40
0.4761904761904762
 40
0.5238095238095238
 40
0.5238095238095238
 40
0.5238095238095238
 40
0.5238095238095238
 40
0.5714285714285714
 40
0.5714285714285714
 40
0.5714285714285714
 40
0.5714285714285714
 40
0.6190476190476191
 40
0.6190476190476191
 40
0.6190476190476191
 40
0.6190476190476191
 40
0.6666666666666666
 40
0.6666666666666666
 40
0.6666666666666666
 40
0.6666666666666666
 40
0.7142857142857143
 40
0.7142857142857143
 40
0.7142857142857143
 40
0.7142857142857143
 40
0.7619047619047619
 40
0.7619047619047619
 40
0.7619047619047619
 40
0.7619047619047619
 40
0.8095238095238095
 40
0.8095238095238095
 40
0.8095238095238095
 40
0.8095238095238095
 40
0.8571428571428571
 40
0.8571428571428571
 40
0.8571428571428571
 40
0.8571428571428571
 40
0.9047619047619048
 40
0.9047619047619048
 40
0.9047619047619048
 40
0.9047619047619048
 40
1
 40
1
 40
1
 40
1
 10
198.892966820266
 20
158.7714350823016
 30
0
 10
198.104966820266
 20
158.7714350823016
 30
0
 10
197.710866820266
 20
159.0707350823016
 30
0
 10
197.710866820266
 20
159.6693350823016
 30
0
 10
197.710866820266
 20
159.6693350823016
 30
0
 10
197.710866820266
 20
159.6693350823016
 30
0
 10
197.710866820266
 20
163.7725350823016
 30
0
 10
197.710866820266
 20
163.7725350823016
 30
0
 10
197.710866820266
 20
163.7725350823016
 30
0
 10
197.710866820266
 20
163.7725350823016
 30
0
 10
197.131266820266
 20
163.7725350823016
 30
0
 10
197.131266820266
 20
163.7725350823016
 30
0
 10
197.131266820266
 20
163.7725350823016
 30
0
 10
197.131266820266
 20
163.7725350823016
 30
0
 10
197.131266820266
 20
165.5683350823016
 30
0
 10
197.131266820266
 20
165.5683350823016
 30
0
 10
197.131266820266
 20
165.5683350823016
 30
0
 10
197.131266820266
 20
165.5683350823016
 30
0
 10
197.710866820266
 20
165.5683350823016
 30
0
 10
197.710866820266
 20
165.5683350823016
 30
0
 10
197.710866820266
 20
165.5683350823016
 30
0
 10
197.710866820266
 20
165.5683350823016
 30
0
 10
197.710866820266
 20
166.0343350823016
 30
0
 10
197.710866820266
 20
166.0343350823016
 30
0
 10
197.710866820266
 20
166.0343350823016
 30
0
 10
197.710866820266
 20
166.0343350823016
 30
0
 10
200.075066820266
 20
166.0343350823016
 30
0
 10
200.075066820266
 20
166.0343350823016
 30
0
 10
200.075066820266
 20
166.0343350823016
 30
0
 10
200.075066820266
 20
166.0343350823016
 30
0
 10
200.075066820266
 20
165.5683350823016
 30
0
 10
200.075066820266
 20
165.5683350823016
 30
0
 10
200.075066820266
 20
165.5683350823016
 30
0
 10
200.075066820266
 20
165.5683350823016
 30
0
 10
203.018866820266
 20
165.5683350823016
 30
0
 10
203.018866820266
 20
165.5683350823016
 30
0
 10
203.018866820266
 20
165.5683350823016
 30
0
 10
203.018866820266
 20
165.5683350823016
 30
0
 10
203.018866820266
 20
163.7725350823016
 30
0
 10
203.018866820266
 20
163.7725350823016
 30
0
 10
203.018866820266
 20
163.7725350823016
 30
0
 10
203.018866820266
 20
163.7725350823016
 30
0
 10
200.075066820266
 20
163.7725350823016
 30
0
 10
200.075066820266
 20
163.7725350823016
 30
0
 10
200.075066820266
 20
163.7725350823016
 30
0
 10
200.075066820266
 20
163.7725350823016
 30
0
 10
200.075066820266
 20
160.6013350823016
 30
0
 10
200.075066820266
 20
160.6013350823016
 30
0
 10
200.075066820266
 20
160.6013350823016
 30
0
 10
200.075066820266
 20
160.5862350823016
 30
0
 10
200.082666820266
 20
160.5786350823016
 30
0
 10
200.097766820266
 20
160.5786350823016
 30
0
 10
200.097766820266
 20
160.5786350823016
 30
0
 10
200.097766820266
 20
160.5786350823016
 30
0
 10
200.643366820266
 20
160.5786350823016
 30
0
 10
200.643366820266
 20
160.5786350823016
 30
0
 10
200.643366820266
 20
160.5786350823016
 30
0
 10
200.658466820266
 20
160.5786350823016
 30
0
 10
200.666066820266
 20
160.5862350823016
 30
0
 10
200.666066820266
 20
160.6013350823016
 30
0
 10
200.666066820266
 20
160.6013350823016
 30
0
 10
200.666066820266
 20
160.6013350823016
 30
0
 10
200.666066820266
 20
163.3065350823016
 30
0
 10
200.666066820266
 20
163.3065350823016
 30
0
 10
200.666066820266
 20
163.3065350823016
 30
0
 10
200.666066820266
 20
163.3065350823016
 30
0
 10
203.018866820266
 20
163.3065350823016
 30
0
 10
203.018866820266
 20
163.3065350823016
 30
0
 10
203.018866820266
 20
163.3065350823016
 30
0
 10
203.018866820266
 20
163.3065350823016
 30
0
 10
203.018866820266
 20
159.6693350823016
 30
0
 10
203.018866820266
 20
159.6693350823016
 30
0
 10
203.018866820266
 20
159.6693350823016
 30
0
 10
203.018866820266
 20
159.0707350823016
 30
0
 10
202.624866820266
 20
158.7714350823016
 30
0
 10
201.836766820266
 20
158.7714350823016
 30
0
 10
201.836766820266
 20
158.7714350823016
 30
0
 10
201.836766820266
 20
158.7714350823016
 30
0
 10
198.892966820266
 20
158.7714350823016
 30
0
 10
198.892966820266
 20
158.7714350823016
 30
0
  0
SPLINE
  5
56
100
AcDbEntity
  8
Layer 1
  6
ByLayer
 62
  256
370
    9
100
AcDbSpline
210
0
220
0
230
0
 70
   11
 71
    3
 72
   28
 73
   24
 74
    0
 42
1e-007
 43
1e-007
 40
0
 40
0
 40
0
 40
0
 40
0.1428571428571428
 40
0.1428571428571428
 40
0.1428571428571428
 40
0.1428571428571428
 40
0.2857142857142857
 40
0.2857142857142857
 40
0.2857142857142857
 40
0.2857142857142857
 40
0.4285714285714285
 40
0.4285714285714285
 40
0.4285714285714285
 40
0.4285714285714285
 40
0.5714285714285714
 40
0.5714285714285714
 40
0.5714285714285714
 40
0.5714285714285714
 40
0.7142857142857143
 40
0.7142857142857143
 40
0.7142857142857143
 40
0.7142857142857143
 40
1
 40
1
 40
1
 40
1
 10
203.598566820266
 20
156.5095350823016
 30
0
 10
203.598566820266
 20
156.5095350823016
 30
0
 10
203.598566820266
 20
166.0343350823016
 30
0
 10
203.598566820266
 20
166.0343350823016
 30
0
 10
203.598566820266
 20
166.0343350823016
 30
0
 10
203.598566820266
 20
166.0343350823016
 30
0
 10
205.962766820266
 20
166.0343350823016
 30
0
 10
205.962766820266
 20
166.0343350823016
 30
0
 10
205.962766820266
 20
166.0343350823016
 30
0
 10
205.962766820266
 20
166.0343350823016
 30
0
 10
205.962766820266
 20
158.3168350823016
 30
0
 10
205.962766820266
 20
158.3168350823016
 30
0
 10
205.962766820266
 20
158.3168350823016
 30
0
 10
205.962766820266
 20
158.3168350823016
 30
0
 10
211.838966820266
 20
158.3168350823016
 30
0
 10
211.838966820266
 20
158.3168350823016
 30
0
 10
211.838966820266
 20
158.3168350823016
 30
0
 10
211.838966820266
 20
158.3168350823016
 30
0
 10
211.838966820266
 20
156.5095350823016
 30
0
 10
211.838966820266
 20
156.5095350823016
 30
0
 10
211.838966820266
 20
156.5095350823016
 30
0
 10
211.838966820266
 20
156.5095350823016
 30
0
 10
203.598566820266
 20
156.5095350823016
 30
0
 10
203.598566820266
 20
156.5095350823016
 30
0
  0
SPLINE
  5
57
100
AcDbEntity
  8
Layer 1
  6
ByLayer
 62
  256
370
    9
100
AcDbSpline
210
0
220
0
230
0
 70
   11
 71
    3
 72
   28
 73
   24
 74
    0
 42
1e-007
 43
1e-007
 40
0
 40
0
 40
0
 40
0
 40
0.1428571428571428
 40
0.1428571428571428
 40
0.1428571428571428
 40
0.1428571428571428
 40
0.2857142857142857
 40
0.2857142857142857
 40
0.2857142857142857
 40
0.2857142857142857
 40
0.4285714285714285
 40
0.4285714285714285
 40
0.4285714285714285
 40
0.4285714285714285
 40
0.5714285714285714
 40
0.5714285714285714
 40
0.5714285714285714
 40
0.5714285714285714
 40
0.7142857142857143
 40
0.7142857142857143
 40
0.7142857142857143
 40
0.7142857142857143
 40
1
 40
1
 40
1
 40
1
 10
209.474866820266
 20
161.7152350823016
 30
0
 10
209.474866820266
 20
161.7152350823016
 30
0
 10
208.917966820266
 20
161.7152350823016
 30
0
 10
208.917966820266
 20
161.7152350823016
 30
0
 10
208.917966820266
 20
161.7152350823016
 30
0
 10
208.902766820266
 20
161.7152350823016
 30
0
 10
208.895166820266
 20
161.7076350823016
 30
0
 10
208.895166820266
 20
161.6925350823016
 30
0
 10
208.895166820266
 20
161.6925350823016
 30
0
 10
208.895166820266
 20
161.6925350823016
 30
0
 10
208.895166820266
 20
160.6013350823016
 30
0
 10
208.895166820266
 20
160.6013350823016
 30
0
 10
208.895166820266
 20
160.6013350823016
 30
0
 10
208.895166820266
 20
160.5862350823016
 30
0
 10
208.902766820266
 20
160.5786350823016
 30
0
 10
208.917966820266
 20
160.5786350823016
 30
0
 10
208.917966820266
 20
160.5786350823016
 30
0
 10
208.917966820266
 20
160.5786350823016
 30
0
 10
209.474866820266
 20
160.5786350823016
 30
0
 10
209.474866820266
 20
160.5786350823016
 30
0
 10
209.474866820266
 20
160.5786350823016
 30
0
 10
209.474866820266
 20
160.5786350823016
 30
0
 10
209.474866820266
 20
161.7152350823016
 30
0
 10
209.474866820266
 20
161.7152350823016
 30
0
  0
SPLINE
  5
58
100
AcDbEntity
  8
Layer 1
  6
ByLayer
 62
  256
370
    9
100
AcDbSpline
210
0
220
0
230
0
 70
   11
 71
    3
 72
   68
 73
   64
 74
    0
 42
1e-007
 43
1e-007
 40
0
 40
0
 40
0
 40
0
 40
0.0588235294117647
 40
0.0588235294117647
 40
0.0588235294117647
 40
0.0588235294117647
 40
0.1176470588235294
 40
0.1176470588235294
 40
0.1176470588235294
 40
0.1176470588235294
 40
0.1764705882352941
 40
0.1764705882352941
 40
0.1764705882352941
 40
0.1764705882352941
 40
0.2352941176470588
 40
0.2352941176470588
 40
0.2352941176470588
 40
0.2352941176470588
 40
0.2941176470588235
 40
0.2941176470588235
 40
0.2941176470588235
 40
0.2941176470588235
 40
0.3529411764705883
 40
0.3529411764705883
 40
0.3529411764705883
 40
0.3529411764705883
 40
0.4117647058823529
 40
0.4117647058823529
 40
0.4117647058823529
 40
0.4117647058823529
 40
0.4705882352941176
 40
0.4705882352941176
 40
0.4705882352941176
 40
0.4705882352941176
 40
0.5294117647058824
 40
0.5294117647058824
 40
0.5294117647058824
 40
0.5294117647058824
 40
0.5882352941176471
 40
0.5882352941176471
 40
0.5882352941176471
 40
0.5882352941176471
 40
0.6470588235294118
 40
0.6470588235294118
 40
0.6470588235294118
 40
0.6470588235294118
 40
0.7058823529411765
 40
0.7058823529411765
 40
0.7058823529411765
 40
0.7058823529411765
 40
0.7647058823529411
 40
0.7647058823529411
 40
0.7647058823529411
 40
0.7647058823529411
 40
0.8235294117647058
 40
0.8235294117647058
 40
0.8235294117647058
 40
0.8235294117647058
 40
0.8823529411764706
 40
0.8823529411764706
 40
0.8823529411764706
 40
0.8823529411764706
 40
1
 40
1
 40
1
 40
1
 10
207.713066820266
 20
158.7714350823016
 30
0
 10
206.925066820266
 20
158.7714350823016
 30
0
 10
206.531066820266
 20
159.0707350823016
 30
0
 10
206.531066820266
 20
159.6693350823016
 30
0
 10
206.531066820266
 20
159.6693350823016
 30
0
 10
206.531066820266
 20
159.6693350823016
 30
0
 10
206.531066820266
 20
162.4086350823016
 30
0
 10
206.531066820266
 20
162.4086350823016
 30
0
 10
206.531066820266
 20
162.4086350823016
 30
0
 10
206.531066820266
 20
163.0072350823016
 30
0
 10
206.925066820266
 20
163.3065350823016
 30
0
 10
207.713066820266
 20
163.3065350823016
 30
0
 10
207.713066820266
 20
163.3065350823016
 30
0
 10
207.713066820266
 20
163.3065350823016
 30
0
 10
209.474866820266
 20
163.3065350823016
 30
0
 10
209.474866820266
 20
163.3065350823016
 30
0
 10
209.474866820266
 20
163.3065350823016
 30
0
 10
209.474866820266
 20
163.3065350823016
 30
0
 10
209.474866820266
 20
164.1930350823016
 30
0
 10
209.474866820266
 20
164.1930350823016
 30
0
 10
209.474866820266
 20
164.1930350823016
 30
0
 10
209.474866820266
 20
164.2082350823016
 30
0
 10
209.467266820266
 20
164.2158350823016
 30
0
 10
209.452166820266
 20
164.2158350823016
 30
0
 10
209.452166820266
 20
164.2158350823016
 30
0
 10
209.452166820266
 20
164.2158350823016
 30
0
 10
208.917966820266
 20
164.2158350823016
 30
0
 10
208.917966820266
 20
164.2158350823016
 30
0
 10
208.917966820266
 20
164.2158350823016
 30
0
 10
208.902766820266
 20
164.2158350823016
 30
0
 10
208.895166820266
 20
164.2082350823016
 30
0
 10
208.895166820266
 20
164.1930350823016
 30
0
 10
208.895166820266
 20
164.1930350823016
 30
0
 10
208.895166820266
 20
164.1930350823016
 30
0
 10
208.895166820266
 20
163.7725350823016
 30
0
 10
208.895166820266
 20
163.7725350823016
 30
0
 10
208.895166820266
 20
163.7725350823016
 30
0
 10
208.895166820266
 20
163.7725350823016
 30
0
 10
206.531066820266
 20
163.7725350823016
 30
0
 10
206.531066820266
 20
163.7725350823016
 30
0
 10
206.531066820266
 20
163.7725350823016
 30
0
 10
206.531066820266
 20
163.7725350823016
 30
0
 10
206.531066820266
 20
165.1137350823016
 30
0
 10
206.531066820266
 20
165.1137350823016
 30
0
 10
206.531066820266
 20
165.1137350823016
 30
0
 10
206.531066820266
 20
165.7275350823016
 30
0
 10
206.925066820266
 20
166.0343350823016
 30
0
 10
207.713066820266
 20
166.0343350823016
 30
0
 10
207.713066820266
 20
166.0343350823016
 30
0
 10
207.713066820266
 20
166.0343350823016
 30
0
 10
210.656966820266
 20
166.0343350823016
 30
0
 10
210.656966820266
 20
166.0343350823016
 30
0
 10
210.656966820266
 20
166.0343350823016
 30
0
 10
211.444966820266
 20
166.0343350823016
 30
0
 10
211.838966820266
 20
165.7275350823016
 30
0
 10
211.838966820266
 20
165.1137350823016
 30
0
 10
211.838966820266
 20
165.1137350823016
 30
0
 10
211.838966820266
 20
165.1137350823016
 30
0
 10
211.838966820266
 20
158.7714350823016
 30
0
 10
211.838966820266
 20
158.7714350823016
 30
0
 10
211.838966820266
 20
158.7714350823016
 30
0
 10
211.838966820266
 20
158.7714350823016
 30
0
 10
207.713066820266
 20
158.7714350823016
 30
0
 10
207.713066820266
 20
158.7714350823016
 30
0
  0
SPLINE
  5
59
100
AcDbEntity
  8
Layer 1
  6
ByLayer
 62
  256
370
    9
100
AcDbSpline
210
0
220
0
230
0
 70
   11
 71
    3
 72
   72
 73
   68
 74
    0
 42
1e-007
 43
1e-007
 40
0
 40
0
 40
0
 40
0
 40
0.0555555555555556
 40
0.0555555555555556
 40
0.0555555555555556
 40
0.0555555555555556
 40
0.1111111111111111
 40
0.1111111111111111
 40
0.1111111111111111
 40
0.1111111111111111
 40
0.1666666666666667
 40
0.1666666666666667
 40
0.1666666666666667
 40
0.1666666666666667
 40
0.2222222222222222
 40
0.2222222222222222
 40
0.2222222222222222
 40
0.2222222222222222
 40
0.2777777777777778
 40
0.2777777777777778
 40
0.2777777777777778
 40
0.2777777777777778
 40
0.3333333333333333
 40
0.3333333333333333
 40
0.3333333333333333
 40
0.3333333333333333
 40
0.3888888888888889
 40
0.3888888888888889
 40
0.3888888888888889
 40
0.3888888888888889
 40
0.4444444444444444
 40
0.4444444444444444
 40
0.4444444444444444
 40
0.4444444444444444
 40
0.5
 40
0.5
 40
0.5
 40
0.5
 40
0.5555555555555556
 40
0.5555555555555556
 40
0.5555555555555556
 40
0.5555555555555556
 40
0.6111111111111112
 40
0.6111111111111112
 40
0.6111111111111112
 40
0.6111111111111112
 40
0.6666666666666666
 40
0.6666666666666666
 40
0.6666666666666666
 40
0.6666666666666666
 40
0.7222222222222222
 40
0.7222222222222222
 40
0.7222222222222222
 40
0.7222222222222222
 40
0.7777777777777778
 40
0.7777777777777778
 40
0.7777777777777778
 40
0.7777777777777778
 40
0.8333333333333334
 40
0.8333333333333334
 40
0.8333333333333334
 40
0.8333333333333334
 40
0.8888888888888888
 40
0.8888888888888888
 40
0.8888888888888888
 40
0.8888888888888888
 40
1
 40
1
 40
1
 40
1
 10
216.555966820266
 20
156.5095350823016
 30
0
 10
215.760366820266
 20
156.5095350823016
 30
0
 10
215.362466820266
 20
156.8089350823016
 30
0
 10
215.362466820266
 20
157.4075350823016
 30
0
 10
215.362466820266
 20
157.4075350823016
 30
0
 10
215.362466820266
 20
157.4075350823016
 30
0
 10
215.362466820266
 20
164.1930350823016
 30
0
 10
215.362466820266
 20
164.1930350823016
 30
0
 10
215.362466820266
 20
164.1930350823016
 30
0
 10
215.362466820266
 20
164.2082350823016
 30
0
 10
215.354966820266
 20
164.2158350823016
 30
0
 10
215.339766820266
 20
164.2158350823016
 30
0
 10
215.339766820266
 20
164.2158350823016
 30
0
 10
215.339766820266
 20
164.2158350823016
 30
0
 10
214.805566820266
 20
164.2158350823016
 30
0
 10
214.805566820266
 20
164.2158350823016
 30
0
 10
214.805566820266
 20
164.2158350823016
 30
0
 10
214.790366820266
 20
164.2158350823016
 30
0
 10
214.782866820266
 20
164.2082350823016
 30
0
 10
214.782866820266
 20
164.1930350823016
 30
0
 10
214.782866820266
 20
164.1930350823016
 30
0
 10
214.782866820266
 20
164.1930350823016
 30
0
 10
214.782866820266
 20
158.7714350823016
 30
0
 10
214.782866820266
 20
158.7714350823016
 30
0
 10
214.782866820266
 20
158.7714350823016
 30
0
 10
214.782866820266
 20
158.7714350823016
 30
0
 10
212.418666820266
 20
158.7714350823016
 30
0
 10
212.418666820266
 20
158.7714350823016
 30
0
 10
212.418666820266
 20
158.7714350823016
 30
0
 10
212.418666820266
 20
158.7714350823016
 30
0
 10
212.418666820266
 20
166.0343350823016
 30
0
 10
212.418666820266
 20
166.0343350823016
 30
0
 10
212.418666820266
 20
166.0343350823016
 30
0
 10
212.418666820266
 20
166.0343350823016
 30
0
 10
214.782866820266
 20
166.0343350823016
 30
0
 10
214.782866820266
 20
166.0343350823016
 30
0
 10
214.782866820266
 20
166.0343350823016
 30
0
 10
214.782866820266
 20
166.0343350823016
 30
0
 10
214.782866820266
 20
165.5683350823016
 30
0
 10
214.782866820266
 20
165.5683350823016
 30
0
 10
214.782866820266
 20
165.5683350823016
 30
0
 10
215.184466820266
 20
165.8790350823016
 30
0
 10
215.771666820266
 20
166.0343350823016
 30
0
 10
216.544566820266
 20
166.0343350823016
 30
0
 10
216.544566820266
 20
166.0343350823016
 30
0
 10
217.332666820266
 20
166.0343350823016
 30
0
 10
217.726666820266
 20
165.7275350823016
 30
0
 10
217.726666820266
 20
165.1137350823016
 30
0
 10
217.726666820266
 20
165.1137350823016
 30
0
 10
217.726666820266
 20
165.1137350823016
 30
0
 10
217.726666820266
 20
158.3395350823016
 30
0
 10
217.726666820266
 20
158.3395350823016
 30
0
 10
217.726666820266
 20
158.3395350823016
 30
0
 10
217.726666820266
 20
158.3243350823016
 30
0
 10
217.734266820266
 20
158.3168350823016
 30
0
 10
217.749366820266
 20
158.3168350823016
 30
0
 10
217.749366820266
 20
158.3168350823016
 30
0
 10
217.749366820266
 20
158.3168350823016
 30
0
 10
223.966666820266
 20
158.3168350823016
 30
0
 10
223.966666820266
 20
158.3168350823016
 30
0
 10
223.966666820266
 20
158.3168350823016
 30
0
 10
223.966666820266
 20
158.3168350823016
 30
0
 10
223.966666820266
 20
156.5095350823016
 30
0
 10
223.966666820266
 20
156.5095350823016
 30
0
 10
223.966666820266
 20
156.5095350823016
 30
0
 10
223.966666820266
 20
156.5095350823016
 30
0
 10
216.555966820266
 20
156.5095350823016
 30
0
 10
216.555966820266
 20
156.5095350823016
 30
0
  0
SPLINE
  5
5A
100
AcDbEntity
  8
Layer 1
  6
ByLayer
 62
  256
370
    9
100
AcDbSpline
210
0
220
0
230
0
 70
   11
 71
    3
 72
   84
 73
   80
 74
    0
 42
1e-007
 43
1e-007
 40
0
 40
0
 40
0
 40
0
 40
0.0476190476190476
 40
0.0476190476190476
 40
0.0476190476190476
 40
0.0476190476190476
 40
0.09523809523809521
 40
0.09523809523809521
 40
0.09523809523809521
 40
0.09523809523809521
 40
0.1428571428571428
 40
0.1428571428571428
 40
0.1428571428571428
 40
0.1428571428571428
 40
0.1904761904761905
 40
0.1904761904761905
 40
0.1904761904761905
 40
0.1904761904761905
 40
0.2380952380952381
 40
0.2380952380952381
 40
0.2380952380952381
 40
0.2380952380952381
 40
0.2857142857142857
 40
0.2857142857142857
 40
0.2857142857142857
 40
0.2857142857142857
 40
0.3333333333333333
 40
0.3333333333333333
 40
0.3333333333333333
 40
0.3333333333333333
 40
0.3809523809523809
 40
0.3809523809523809
 40
0.3809523809523809
 40
0.3809523809523809
 40
0.4285714285714285
 40
0.4285714285714285
 40
0.4285714285714285
 40
0.4285714285714285
 40
0.4761904761904762
 40
0.4761904761904762
 40
0.4761904761904762
 40
0.4761904761904762
 40
0.5238095238095238
 40
0.5238095238095238
 40
0.5238095238095238
 40
0.5238095238095238
 40
0.5714285714285714
 40
0.5714285714285714
 40
0.5714285714285714
 40
0.5714285714285714
 40
0.6190476190476191
 40
0.6190476190476191
 40
0.6190476190476191
 40
0.6190476190476191
 40
0.6666666666666666
 40
0.6666666666666666
 40
0.6666666666666666
 40
0.6666666666666666
 40
0.7142857142857143
 40
0.7142857142857143
 40
0.7142857142857143
 40
0.7142857142857143
 40
0.7619047619047619
 40
0.7619047619047619
 40
0.7619047619047619
 40
0.7619047619047619
 40
0.8095238095238095
 40
0.8095238095238095
 40
0.8095238095238095
 40
0.8095238095238095
 40
0.8571428571428571
 40
0.8571428571428571
 40
0.8571428571428571
 40
0.8571428571428571
 40
0.9047619047619048
 40
0.9047619047619048
 40
0.9047619047619048
 40
0.9047619047619048
 40
1
 40
1
 40
1
 40
1
 10
219.840766820266
 20
158.7714350823016
 30
0
 10
219.052666820266
 20
158.7714350823016
 30
0
 10
218.658666820266
 20
159.0707350823016
 30
0
 10
218.658666820266
 20
159.6693350823016
 30
0
 10
218.658666820266
 20
159.6693350823016
 30
0
 10
218.658666820266
 20
159.6693350823016
 30
0
 10
218.658666820266
 20
163.7725350823016
 30
0
 10
218.658666820266
 20
163.7725350823016
 30
0
 10
218.658666820266
 20
163.7725350823016
 30
0
 10
218.658666820266
 20
163.7725350823016
 30
0
 10
218.078966820266
 20
163.7725350823016
 30
0
 10
218.078966820266
 20
163.7725350823016
 30
0
 10
218.078966820266
 20
163.7725350823016
 30
0
 10
218.078966820266
 20
163.7725350823016
 30
0
 10
218.078966820266
 20
165.5683350823016
 30
0
 10
218.078966820266
 20
165.5683350823016
 30
0
 10
218.078966820266
 20
165.5683350823016
 30
0
 10
218.078966820266
 20
165.5683350823016
 30
0
 10
218.658666820266
 20
165.5683350823016
 30
0
 10
218.658666820266
 20
165.5683350823016
 30
0
 10
218.658666820266
 20
165.5683350823016
 30
0
 10
218.658666820266
 20
165.5683350823016
 30
0
 10
218.658666820266
 20
166.0343350823016
 30
0
 10
218.658666820266
 20
166.0343350823016
 30
0
 10
218.658666820266
 20
166.0343350823016
 30
0
 10
218.658666820266
 20
166.0343350823016
 30
0
 10
221.022866820266
 20
166.0343350823016
 30
0
 10
221.022866820266
 20
166.0343350823016
 30
0
 10
221.022866820266
 20
166.0343350823016
 30
0
 10
221.022866820266
 20
166.0343350823016
 30
0
 10
221.022866820266
 20
165.5683350823016
 30
0
 10
221.022866820266
 20
165.5683350823016
 30
0
 10
221.022866820266
 20
165.5683350823016
 30
0
 10
221.022866820266
 20
165.5683350823016
 30
0
 10
223.966666820266
 20
165.5683350823016
 30
0
 10
223.966666820266
 20
165.5683350823016
 30
0
 10
223.966666820266
 20
165.5683350823016
 30
0
 10
223.966666820266
 20
165.5683350823016
 30
0
 10
223.966666820266
 20
163.7725350823016
 30
0
 10
223.966666820266
 20
163.7725350823016
 30
0
 10
223.966666820266
 20
163.7725350823016
 30
0
 10
223.966666820266
 20
163.7725350823016
 30
0
 10
221.022866820266
 20
163.7725350823016
 30
0
 10
221.022866820266
 20
163.7725350823016
 30
0
 10
221.022866820266
 20
163.7725350823016
 30
0
 10
221.022866820266
 20
163.7725350823016
 30
0
 10
221.022866820266
 20
160.6013350823016
 30
0
 10
221.022866820266
 20
160.6013350823016
 30
0
 10
221.022866820266
 20
160.6013350823016
 30
0
 10
221.022866820266
 20
160.5862350823016
 30
0
 10
221.030366820266
 20
160.5786350823016
 30
0
 10
221.045566820266
 20
160.5786350823016
 30
0
 10
221.045566820266
 20
160.5786350823016
 30
0
 10
221.045566820266
 20
160.5786350823016
 30
0
 10
221.591166820266
 20
160.5786350823016
 30
0
 10
221.591166820266
 20
160.5786350823016
 30
0
 10
221.591166820266
 20
160.5786350823016
 30
0
 10
221.606266820266
 20
160.5786350823016
 30
0
 10
221.613866820266
 20
160.5862350823016
 30
0
 10
221.613866820266
 20
160.6013350823016
 30
0
 10
221.613866820266
 20
160.6013350823016
 30
0
 10
221.613866820266
 20
160.6013350823016
 30
0
 10
221.613866820266
 20
163.3065350823016
 30
0
 10
221.613866820266
 20
163.3065350823016
 30
0
 10
221.613866820266
 20
163.3065350823016
 30
0
 10
221.613866820266
 20
163.3065350823016
 30
0
 10
223.966666820266
 20
163.3065350823016
 30
0
 10
223.966666820266
 20
163.3065350823016
 30
0
 10
223.966666820266
 20
163.3065350823016
 30
0
 10
223.966666820266
 20
163.3065350823016
 30
0
 10
223.966666820266
 20
159.6693350823016
 30
0
 10
223.966666820266
 20
159.6693350823016
 30
0
 10
223.966666820266
 20
159.6693350823016
 30
0
 10
223.966666820266
 20
159.0707350823016
 30
0
 10
223.572666820266
 20
158.7714350823016
 30
0
 10
222.784566820266
 20
158.7714350823016
 30
0
 10
222.784566820266
 20
158.7714350823016
 30
0
 10
222.784566820266
 20
158.7714350823016
 30
0
 10
219.840766820266
 20
158.7714350823016
 30
0
 10
219.840766820266
 20
158.7714350823016
 30
0
  0
SPLINE
  5
5B
100
AcDbEntity
  8
Layer 1
  6
ByLayer
 62
  256
370
    9
100
AcDbSpline
210
0
220
0
230
0
 70
   11
 71
    3
 72
   28
 73
   24
 74
    0
 42
1e-007
 43
1e-007
 40
0
 40
0
 40
0
 40
0
 40
0.1428571428571428
 40
0.1428571428571428
 40
0.1428571428571428
 40
0.1428571428571428
 40
0.2857142857142857
 40
0.2857142857142857
 40
0.2857142857142857
 40
0.2857142857142857
 40
0.4285714285714285
 40
0.4285714285714285
 40
0.4285714285714285
 40
0.4285714285714285
 40
0.5714285714285714
 40
0.5714285714285714
 40
0.5714285714285714
 40
0.5714285714285714
 40
0.7142857142857143
 40
0.7142857142857143
 40
0.7142857142857143
 40
0.7142857142857143
 40
1
 40
1
 40
1
 40
1
 10
227.467366820266
 20
161.7152350823016
 30
0
 10
227.467366820266
 20
161.7152350823016
 30
0
 10
226.910466820266
 20
161.7152350823016
 30
0
 10
226.910466820266
 20
161.7152350823016
 30
0
 10
226.910466820266
 20
161.7152350823016
 30
0
 10
226.895266820266
 20
161.7152350823016
 30
0
 10
226.887666820266
 20
161.7076350823016
 30
0
 10
226.887666820266
 20
161.6925350823016
 30
0
 10
226.887666820266
 20
161.6925350823016
 30
0
 10
226.887666820266
 20
161.6925350823016
 30
0
 10
226.887666820266
 20
160.6013350823016
 30
0
 10
226.887666820266
 20
160.6013350823016
 30
0
 10
226.887666820266
 20
160.6013350823016
 30
0
 10
226.887666820266
 20
160.5862350823016
 30
0
 10
226.895266820266
 20
160.5786350823016
 30
0
 10
226.910466820266
 20
160.5786350823016
 30
0
 10
226.910466820266
 20
160.5786350823016
 30
0
 10
226.910466820266
 20
160.5786350823016
 30
0
 10
227.467366820266
 20
160.5786350823016
 30
0
 10
227.467366820266
 20
160.5786350823016
 30
0
 10
227.467366820266
 20
160.5786350823016
 30
0
 10
227.467366820266
 20
160.5786350823016
 30
0
 10
227.467366820266
 20
161.7152350823016
 30
0
 10
227.467366820266
 20
161.7152350823016
 30
0
  0
SPLINE
  5
5C
100
AcDbEntity
  8
Layer 1
  6
ByLayer
 62
  256
370
    9
100
AcDbSpline
210
0
220
0
230
0
 70
   11
 71
    3
 72
   68
 73
   64
 74
    0
 42
1e-007
 43
1e-007
 40
0
 40
0
 40
0
 40
0
 40
0.0588235294117647
 40
0.0588235294117647
 40
0.0588235294117647
 40
0.0588235294117647
 40
0.1176470588235294
 40
0.1176470588235294
 40
0.1176470588235294
 40
0.1176470588235294
 40
0.1764705882352941
 40
0.1764705882352941
 40
0.1764705882352941
 40
0.1764705882352941
 40
0.2352941176470588
 40
0.2352941176470588
 40
0.2352941176470588
 40
0.2352941176470588
 40
0.2941176470588235
 40
0.2941176470588235
 40
0.2941176470588235
 40
0.2941176470588235
 40
0.3529411764705883
 40
0.3529411764705883
 40
0.3529411764705883
 40
0.3529411764705883
 40
0.4117647058823529
 40
0.4117647058823529
 40
0.4117647058823529
 40
0.4117647058823529
 40
0.4705882352941176
 40
0.4705882352941176
 40
0.4705882352941176
 40
0.4705882352941176
 40
0.5294117647058824
 40
0.5294117647058824
 40
0.5294117647058824
 40
0.5294117647058824
 40
0.5882352941176471
 40
0.5882352941176471
 40
0.5882352941176471
 40
0.5882352941176471
 40
0.6470588235294118
 40
0.6470588235294118
 40
0.6470588235294118
 40
0.6470588235294118
 40
0.7058823529411765
 40
0.7058823529411765
 40
0.7058823529411765
 40
0.7058823529411765
 40
0.7647058823529411
 40
0.7647058823529411
 40
0.7647058823529411
 40
0.7647058823529411
 40
0.8235294117647058
 40
0.8235294117647058
 40
0.8235294117647058
 40
0.8235294117647058
 40
0.8823529411764706
 40
0.8823529411764706
 40
0.8823529411764706
 40
0.8823529411764706
 40
1
 40
1
 40
1
 40
1
 10
225.705666820266
 20
158.7714350823016
 30
0
 10
224.917566820266
 20
158.7714350823016
 30
0
 10
224.523566820266
 20
159.0707350823016
 30
0
 10
224.523566820266
 20
159.6693350823016
 30
0
 10
224.523566820266
 20
159.6693350823016
 30
0
 10
224.523566820266
 20
159.6693350823016
 30
0
 10
224.523566820266
 20
162.4086350823016
 30
0
 10
224.523566820266
 20
162.4086350823016
 30
0
 10
224.523566820266
 20
162.4086350823016
 30
0
 10
224.523566820266
 20
163.0072350823016
 30
0
 10
224.917566820266
 20
163.3065350823016
 30
0
 10
225.705666820266
 20
163.3065350823016
 30
0
 10
225.705666820266
 20
163.3065350823016
 30
0
 10
225.705666820266
 20
163.3065350823016
 30
0
 10
227.467366820266
 20
163.3065350823016
 30
0
 10
227.467366820266
 20
163.3065350823016
 30
0
 10
227.467366820266
 20
163.3065350823016
 30
0
 10
227.467366820266
 20
163.3065350823016
 30
0
 10
227.467366820266
 20
164.1930350823016
 30
0
 10
227.467366820266
 20
164.1930350823016
 30
0
 10
227.467366820266
 20
164.1930350823016
 30
0
 10
227.467366820266
 20
164.2082350823016
 30
0
 10
227.459766820266
 20
164.2158350823016
 30
0
 10
227.444666820266
 20
164.2158350823016
 30
0
 10
227.444666820266
 20
164.2158350823016
 30
0
 10
227.444666820266
 20
164.2158350823016
 30
0
 10
226.910466820266
 20
164.2158350823016
 30
0
 10
226.910466820266
 20
164.2158350823016
 30
0
 10
226.910466820266
 20
164.2158350823016
 30
0
 10
226.895266820266
 20
164.2158350823016
 30
0
 10
226.887666820266
 20
164.2082350823016
 30
0
 10
226.887666820266
 20
164.1930350823016
 30
0
 10
226.887666820266
 20
164.1930350823016
 30
0
 10
226.887666820266
 20
164.1930350823016
 30
0
 10
226.887666820266
 20
163.7725350823016
 30
0
 10
226.887666820266
 20
163.7725350823016
 30
0
 10
226.887666820266
 20
163.7725350823016
 30
0
 10
226.887666820266
 20
163.7725350823016
 30
0
 10
224.523566820266
 20
163.7725350823016
 30
0
 10
224.523566820266
 20
163.7725350823016
 30
0
 10
224.523566820266
 20
163.7725350823016
 30
0
 10
224.523566820266
 20
163.7725350823016
 30
0
 10
224.523566820266
 20
165.1137350823016
 30
0
 10
224.523566820266
 20
165.1137350823016
 30
0
 10
224.523566820266
 20
165.1137350823016
 30
0
 10
224.523566820266
 20
165.7275350823016
 30
0
 10
224.917566820266
 20
166.0343350823016
 30
0
 10
225.705666820266
 20
166.0343350823016
 30
0
 10
225.705666820266
 20
166.0343350823016
 30
0
 10
225.705666820266
 20
166.0343350823016
 30
0
 10
228.649466820266
 20
166.0343350823016
 30
0
 10
228.649466820266
 20
166.0343350823016
 30
0
 10
228.649466820266
 20
166.0343350823016
 30
0
 10
229.437466820266
 20
166.0343350823016
 30
0
 10
229.831566820266
 20
165.7275350823016
 30
0
 10
229.831566820266
 20
165.1137350823016
 30
0
 10
229.831566820266
 20
165.1137350823016
 30
0
 10
229.831566820266
 20
165.1137350823016
 30
0
 10
229.831566820266
 20
158.7714350823016
 30
0
 10
229.831566820266
 20
158.7714350823016
 30
0
 10
229.831566820266
 20
158.7714350823016
 30
0
 10
229.831566820266
 20
158.7714350823016
 30
0
 10
225.705666820266
 20
158.7714350823016
 30
0
 10
225.705666820266
 20
158.7714350823016
 30
0
  0
ENDSEC
  0
SECTION
  2
OBJECTS
  0
DICTIONARY
  5
C
330
0
100
AcDbDictionary
281
    1
  3
ACAD_GROUP
350
D
  0
DICTIONARY
  5
D
330
C
100
AcDbDictionary
281
    1
  0
ENDSEC
  0
EOF
