G04 #@! TF.GenerationSoftware,KiCad,Pcbnew,(5.0.1)-4*
G04 #@! TF.CreationDate,2019-01-24T17:24:16-05:00*
G04 #@! TF.ProjectId,GSRT Badge,475352542042616467652E6B69636164,rev?*
G04 #@! TF.SameCoordinates,Original*
G04 #@! TF.FileFunction,Soldermask,Bot*
G04 #@! TF.FilePolarity,Negative*
%FSLAX46Y46*%
G04 Gerber Fmt 4.6, Leading zero omitted, Abs format (unit mm)*
G04 Created by KiCad (PCBNEW (5.0.1)-4) date 1/24/2019 5:24:16 PM*
%MOMM*%
%LPD*%
G01*
G04 APERTURE LIST*
%ADD10C,0.100000*%
G04 APERTURE END LIST*
D10*
G36*
X64284015Y-167500284D02*
X64323846Y-167512366D01*
X64360545Y-167531982D01*
X64392715Y-167558385D01*
X64419118Y-167590555D01*
X64438734Y-167627254D01*
X64450816Y-167667085D01*
X64455500Y-167714641D01*
X64455500Y-168378159D01*
X64450816Y-168425715D01*
X64438734Y-168465546D01*
X64419118Y-168502245D01*
X64392715Y-168534415D01*
X64360545Y-168560818D01*
X64323846Y-168580434D01*
X64284015Y-168592516D01*
X64236459Y-168597200D01*
X61772941Y-168597200D01*
X61725385Y-168592516D01*
X61685554Y-168580434D01*
X61648855Y-168560818D01*
X61616685Y-168534415D01*
X61590282Y-168502245D01*
X61570666Y-168465546D01*
X61558584Y-168425715D01*
X61553900Y-168378159D01*
X61553900Y-167714641D01*
X61558584Y-167667085D01*
X61570666Y-167627254D01*
X61590282Y-167590555D01*
X61616685Y-167558385D01*
X61648855Y-167531982D01*
X61685554Y-167512366D01*
X61725385Y-167500284D01*
X61772941Y-167495600D01*
X64236459Y-167495600D01*
X64284015Y-167500284D01*
X64284015Y-167500284D01*
G37*
G36*
X56226400Y-168278100D02*
X55224800Y-168278100D01*
X55224800Y-166976500D01*
X56226400Y-166976500D01*
X56226400Y-168278100D01*
X56226400Y-168278100D01*
G37*
G36*
X52926400Y-168278100D02*
X51924800Y-168278100D01*
X51924800Y-166976500D01*
X52926400Y-166976500D01*
X52926400Y-168278100D01*
X52926400Y-168278100D01*
G37*
G36*
X49581221Y-167094114D02*
X49601815Y-167100362D01*
X49620797Y-167110508D01*
X49637437Y-167124163D01*
X49651092Y-167140803D01*
X49661238Y-167159785D01*
X49667486Y-167180379D01*
X49670200Y-167207940D01*
X49670200Y-167716460D01*
X49667486Y-167744021D01*
X49661238Y-167764615D01*
X49651092Y-167783597D01*
X49637437Y-167800237D01*
X49620797Y-167813892D01*
X49601815Y-167824038D01*
X49581221Y-167830286D01*
X49553660Y-167833000D01*
X49095140Y-167833000D01*
X49067579Y-167830286D01*
X49046985Y-167824038D01*
X49028003Y-167813892D01*
X49011363Y-167800237D01*
X48997708Y-167783597D01*
X48987562Y-167764615D01*
X48981314Y-167744021D01*
X48978600Y-167716460D01*
X48978600Y-167207940D01*
X48981314Y-167180379D01*
X48987562Y-167159785D01*
X48997708Y-167140803D01*
X49011363Y-167124163D01*
X49028003Y-167110508D01*
X49046985Y-167100362D01*
X49067579Y-167094114D01*
X49095140Y-167091400D01*
X49553660Y-167091400D01*
X49581221Y-167094114D01*
X49581221Y-167094114D01*
G37*
G36*
X50551221Y-167094114D02*
X50571815Y-167100362D01*
X50590797Y-167110508D01*
X50607437Y-167124163D01*
X50621092Y-167140803D01*
X50631238Y-167159785D01*
X50637486Y-167180379D01*
X50640200Y-167207940D01*
X50640200Y-167716460D01*
X50637486Y-167744021D01*
X50631238Y-167764615D01*
X50621092Y-167783597D01*
X50607437Y-167800237D01*
X50590797Y-167813892D01*
X50571815Y-167824038D01*
X50551221Y-167830286D01*
X50523660Y-167833000D01*
X50065140Y-167833000D01*
X50037579Y-167830286D01*
X50016985Y-167824038D01*
X49998003Y-167813892D01*
X49981363Y-167800237D01*
X49967708Y-167783597D01*
X49957562Y-167764615D01*
X49951314Y-167744021D01*
X49948600Y-167716460D01*
X49948600Y-167207940D01*
X49951314Y-167180379D01*
X49957562Y-167159785D01*
X49967708Y-167140803D01*
X49981363Y-167124163D01*
X49998003Y-167110508D01*
X50016985Y-167100362D01*
X50037579Y-167094114D01*
X50065140Y-167091400D01*
X50523660Y-167091400D01*
X50551221Y-167094114D01*
X50551221Y-167094114D01*
G37*
G36*
X47228800Y-167247600D02*
X45227200Y-167247600D01*
X45227200Y-166346000D01*
X47228800Y-166346000D01*
X47228800Y-167247600D01*
X47228800Y-167247600D01*
G37*
G36*
X75766821Y-166221914D02*
X75787415Y-166228162D01*
X75806397Y-166238308D01*
X75823037Y-166251963D01*
X75836692Y-166268603D01*
X75846838Y-166287585D01*
X75853086Y-166308179D01*
X75855800Y-166335740D01*
X75855800Y-166844260D01*
X75853086Y-166871821D01*
X75846838Y-166892415D01*
X75836692Y-166911397D01*
X75823037Y-166928037D01*
X75806397Y-166941692D01*
X75787415Y-166951838D01*
X75766821Y-166958086D01*
X75739260Y-166960800D01*
X75280740Y-166960800D01*
X75253179Y-166958086D01*
X75232585Y-166951838D01*
X75213603Y-166941692D01*
X75196963Y-166928037D01*
X75183308Y-166911397D01*
X75173162Y-166892415D01*
X75166914Y-166871821D01*
X75164200Y-166844260D01*
X75164200Y-166335740D01*
X75166914Y-166308179D01*
X75173162Y-166287585D01*
X75183308Y-166268603D01*
X75196963Y-166251963D01*
X75213603Y-166238308D01*
X75232585Y-166228162D01*
X75253179Y-166221914D01*
X75280740Y-166219200D01*
X75739260Y-166219200D01*
X75766821Y-166221914D01*
X75766821Y-166221914D01*
G37*
G36*
X74796821Y-166221914D02*
X74817415Y-166228162D01*
X74836397Y-166238308D01*
X74853037Y-166251963D01*
X74866692Y-166268603D01*
X74876838Y-166287585D01*
X74883086Y-166308179D01*
X74885800Y-166335740D01*
X74885800Y-166844260D01*
X74883086Y-166871821D01*
X74876838Y-166892415D01*
X74866692Y-166911397D01*
X74853037Y-166928037D01*
X74836397Y-166941692D01*
X74817415Y-166951838D01*
X74796821Y-166958086D01*
X74769260Y-166960800D01*
X74310740Y-166960800D01*
X74283179Y-166958086D01*
X74262585Y-166951838D01*
X74243603Y-166941692D01*
X74226963Y-166928037D01*
X74213308Y-166911397D01*
X74203162Y-166892415D01*
X74196914Y-166871821D01*
X74194200Y-166844260D01*
X74194200Y-166335740D01*
X74196914Y-166308179D01*
X74203162Y-166287585D01*
X74213308Y-166268603D01*
X74226963Y-166251963D01*
X74243603Y-166238308D01*
X74262585Y-166228162D01*
X74283179Y-166221914D01*
X74310740Y-166219200D01*
X74769260Y-166219200D01*
X74796821Y-166221914D01*
X74796821Y-166221914D01*
G37*
G36*
X70909400Y-166923600D02*
X69247800Y-166923600D01*
X69247800Y-164272000D01*
X70909400Y-164272000D01*
X70909400Y-166923600D01*
X70909400Y-166923600D01*
G37*
G36*
X73609400Y-166923600D02*
X71947800Y-166923600D01*
X71947800Y-166172000D01*
X73609400Y-166172000D01*
X73609400Y-166923600D01*
X73609400Y-166923600D01*
G37*
G36*
X60464509Y-165848362D02*
X60485569Y-165854751D01*
X60504988Y-165865131D01*
X60522005Y-165879095D01*
X60535969Y-165896112D01*
X60546349Y-165915531D01*
X60552738Y-165936591D01*
X60555500Y-165964640D01*
X60555500Y-166428160D01*
X60552738Y-166456209D01*
X60546349Y-166477269D01*
X60535969Y-166496688D01*
X60522005Y-166513705D01*
X60504988Y-166527669D01*
X60485569Y-166538049D01*
X60464509Y-166544438D01*
X60436460Y-166547200D01*
X58872940Y-166547200D01*
X58844891Y-166544438D01*
X58823831Y-166538049D01*
X58804412Y-166527669D01*
X58787395Y-166513705D01*
X58773431Y-166496688D01*
X58763051Y-166477269D01*
X58756662Y-166456209D01*
X58753900Y-166428160D01*
X58753900Y-165964640D01*
X58756662Y-165936591D01*
X58763051Y-165915531D01*
X58773431Y-165896112D01*
X58787395Y-165879095D01*
X58804412Y-165865131D01*
X58823831Y-165854751D01*
X58844891Y-165848362D01*
X58872940Y-165845600D01*
X60436460Y-165845600D01*
X60464509Y-165848362D01*
X60464509Y-165848362D01*
G37*
G36*
X44228800Y-166297600D02*
X42227200Y-166297600D01*
X42227200Y-165396000D01*
X44228800Y-165396000D01*
X44228800Y-166297600D01*
X44228800Y-166297600D01*
G37*
G36*
X51746821Y-165251914D02*
X51767415Y-165258162D01*
X51786397Y-165268308D01*
X51803037Y-165281963D01*
X51816692Y-165298603D01*
X51826838Y-165317585D01*
X51833086Y-165338179D01*
X51835800Y-165365740D01*
X51835800Y-165874260D01*
X51833086Y-165901821D01*
X51826838Y-165922415D01*
X51816692Y-165941397D01*
X51803037Y-165958037D01*
X51786397Y-165971692D01*
X51767415Y-165981838D01*
X51746821Y-165988086D01*
X51719260Y-165990800D01*
X51260740Y-165990800D01*
X51233179Y-165988086D01*
X51212585Y-165981838D01*
X51193603Y-165971692D01*
X51176963Y-165958037D01*
X51163308Y-165941397D01*
X51153162Y-165922415D01*
X51146914Y-165901821D01*
X51144200Y-165874260D01*
X51144200Y-165365740D01*
X51146914Y-165338179D01*
X51153162Y-165317585D01*
X51163308Y-165298603D01*
X51176963Y-165281963D01*
X51193603Y-165268308D01*
X51212585Y-165258162D01*
X51233179Y-165251914D01*
X51260740Y-165249200D01*
X51719260Y-165249200D01*
X51746821Y-165251914D01*
X51746821Y-165251914D01*
G37*
G36*
X52716821Y-165251914D02*
X52737415Y-165258162D01*
X52756397Y-165268308D01*
X52773037Y-165281963D01*
X52786692Y-165298603D01*
X52796838Y-165317585D01*
X52803086Y-165338179D01*
X52805800Y-165365740D01*
X52805800Y-165874260D01*
X52803086Y-165901821D01*
X52796838Y-165922415D01*
X52786692Y-165941397D01*
X52773037Y-165958037D01*
X52756397Y-165971692D01*
X52737415Y-165981838D01*
X52716821Y-165988086D01*
X52689260Y-165990800D01*
X52230740Y-165990800D01*
X52203179Y-165988086D01*
X52182585Y-165981838D01*
X52163603Y-165971692D01*
X52146963Y-165958037D01*
X52133308Y-165941397D01*
X52123162Y-165922415D01*
X52116914Y-165901821D01*
X52114200Y-165874260D01*
X52114200Y-165365740D01*
X52116914Y-165338179D01*
X52123162Y-165317585D01*
X52133308Y-165298603D01*
X52146963Y-165281963D01*
X52163603Y-165268308D01*
X52182585Y-165258162D01*
X52203179Y-165251914D01*
X52230740Y-165249200D01*
X52689260Y-165249200D01*
X52716821Y-165251914D01*
X52716821Y-165251914D01*
G37*
G36*
X49554017Y-164456123D02*
X49591495Y-164467493D01*
X49626044Y-164485959D01*
X49656317Y-164510803D01*
X49681161Y-164541076D01*
X49699627Y-164575625D01*
X49710997Y-164613103D01*
X49715440Y-164658218D01*
X49715440Y-165396742D01*
X49710997Y-165441857D01*
X49699627Y-165479335D01*
X49681161Y-165513884D01*
X49656317Y-165544157D01*
X49626044Y-165569001D01*
X49591495Y-165587467D01*
X49554017Y-165598837D01*
X49508902Y-165603280D01*
X48870378Y-165603280D01*
X48825263Y-165598837D01*
X48787785Y-165587467D01*
X48753236Y-165569001D01*
X48722963Y-165544157D01*
X48698119Y-165513884D01*
X48679653Y-165479335D01*
X48668283Y-165441857D01*
X48663840Y-165396742D01*
X48663840Y-164658218D01*
X48668283Y-164613103D01*
X48679653Y-164575625D01*
X48698119Y-164541076D01*
X48722963Y-164510803D01*
X48753236Y-164485959D01*
X48787785Y-164467493D01*
X48825263Y-164456123D01*
X48870378Y-164451680D01*
X49508902Y-164451680D01*
X49554017Y-164456123D01*
X49554017Y-164456123D01*
G37*
G36*
X47228800Y-165347600D02*
X45227200Y-165347600D01*
X45227200Y-164446000D01*
X47228800Y-164446000D01*
X47228800Y-165347600D01*
X47228800Y-165347600D01*
G37*
G36*
X60464509Y-164598362D02*
X60485569Y-164604751D01*
X60504988Y-164615131D01*
X60522005Y-164629095D01*
X60535969Y-164646112D01*
X60546349Y-164665531D01*
X60552738Y-164686591D01*
X60555500Y-164714640D01*
X60555500Y-165178160D01*
X60552738Y-165206209D01*
X60546349Y-165227269D01*
X60535969Y-165246688D01*
X60522005Y-165263705D01*
X60504988Y-165277669D01*
X60485569Y-165288049D01*
X60464509Y-165294438D01*
X60436460Y-165297200D01*
X58872940Y-165297200D01*
X58844891Y-165294438D01*
X58823831Y-165288049D01*
X58804412Y-165277669D01*
X58787395Y-165263705D01*
X58773431Y-165246688D01*
X58763051Y-165227269D01*
X58756662Y-165206209D01*
X58753900Y-165178160D01*
X58753900Y-164714640D01*
X58756662Y-164686591D01*
X58763051Y-164665531D01*
X58773431Y-164646112D01*
X58787395Y-164629095D01*
X58804412Y-164615131D01*
X58823831Y-164604751D01*
X58844891Y-164598362D01*
X58872940Y-164595600D01*
X60436460Y-164595600D01*
X60464509Y-164598362D01*
X60464509Y-164598362D01*
G37*
G36*
X73609400Y-165023600D02*
X71947800Y-165023600D01*
X71947800Y-164272000D01*
X73609400Y-164272000D01*
X73609400Y-165023600D01*
X73609400Y-165023600D01*
G37*
G36*
X43133200Y-156885500D02*
X43135602Y-156909886D01*
X43142715Y-156933335D01*
X43154266Y-156954946D01*
X43169812Y-156973888D01*
X43188754Y-156989434D01*
X43210365Y-157000985D01*
X43233814Y-157008098D01*
X43258200Y-157010500D01*
X45533200Y-157010500D01*
X45533200Y-163512100D01*
X43258200Y-163512100D01*
X43233814Y-163514502D01*
X43210365Y-163521615D01*
X43188754Y-163533166D01*
X43169812Y-163548712D01*
X43154266Y-163567654D01*
X43142715Y-163589265D01*
X43135602Y-163612714D01*
X43133200Y-163637100D01*
X43133200Y-164409600D01*
X41131600Y-164409600D01*
X41131600Y-160463000D01*
X43133200Y-160463000D01*
X43133200Y-161810500D01*
X43135602Y-161834886D01*
X43142715Y-161858335D01*
X43154266Y-161879946D01*
X43169812Y-161898888D01*
X43188754Y-161914434D01*
X43210365Y-161925985D01*
X43233814Y-161933098D01*
X43258200Y-161935500D01*
X43926600Y-161935500D01*
X43950986Y-161933098D01*
X43974435Y-161925985D01*
X43996046Y-161914434D01*
X44014988Y-161898888D01*
X44030534Y-161879946D01*
X44042085Y-161858335D01*
X44049198Y-161834886D01*
X44051600Y-161810500D01*
X44051600Y-158712100D01*
X44049198Y-158687714D01*
X44042085Y-158664265D01*
X44030534Y-158642654D01*
X44014988Y-158623712D01*
X43996046Y-158608166D01*
X43974435Y-158596615D01*
X43950986Y-158589502D01*
X43926600Y-158587100D01*
X43258200Y-158587100D01*
X43233814Y-158589502D01*
X43210365Y-158596615D01*
X43188754Y-158608166D01*
X43169812Y-158623712D01*
X43154266Y-158642654D01*
X43142715Y-158664265D01*
X43135602Y-158687714D01*
X43133200Y-158712100D01*
X43133200Y-160059600D01*
X41131600Y-160059600D01*
X41131600Y-156113000D01*
X43133200Y-156113000D01*
X43133200Y-156885500D01*
X43133200Y-156885500D01*
G37*
G36*
X49554017Y-162706123D02*
X49591495Y-162717493D01*
X49626044Y-162735959D01*
X49656317Y-162760803D01*
X49681161Y-162791076D01*
X49699627Y-162825625D01*
X49710997Y-162863103D01*
X49715440Y-162908218D01*
X49715440Y-163646742D01*
X49710997Y-163691857D01*
X49699627Y-163729335D01*
X49681161Y-163763884D01*
X49656317Y-163794157D01*
X49626044Y-163819001D01*
X49591495Y-163837467D01*
X49554017Y-163848837D01*
X49508902Y-163853280D01*
X48870378Y-163853280D01*
X48825263Y-163848837D01*
X48787785Y-163837467D01*
X48753236Y-163819001D01*
X48722963Y-163794157D01*
X48698119Y-163763884D01*
X48679653Y-163729335D01*
X48668283Y-163691857D01*
X48663840Y-163646742D01*
X48663840Y-162908218D01*
X48668283Y-162863103D01*
X48679653Y-162825625D01*
X48698119Y-162791076D01*
X48722963Y-162760803D01*
X48753236Y-162735959D01*
X48787785Y-162717493D01*
X48825263Y-162706123D01*
X48870378Y-162701680D01*
X49508902Y-162701680D01*
X49554017Y-162706123D01*
X49554017Y-162706123D01*
G37*
G36*
X64284015Y-162550284D02*
X64323846Y-162562366D01*
X64360545Y-162581982D01*
X64392715Y-162608385D01*
X64419118Y-162640555D01*
X64438734Y-162677254D01*
X64450816Y-162717085D01*
X64455500Y-162764641D01*
X64455500Y-163428159D01*
X64450816Y-163475715D01*
X64438734Y-163515546D01*
X64419118Y-163552245D01*
X64392715Y-163584415D01*
X64360545Y-163610818D01*
X64323846Y-163630434D01*
X64284015Y-163642516D01*
X64236459Y-163647200D01*
X61772941Y-163647200D01*
X61725385Y-163642516D01*
X61685554Y-163630434D01*
X61648855Y-163610818D01*
X61616685Y-163584415D01*
X61590282Y-163552245D01*
X61570666Y-163515546D01*
X61558584Y-163475715D01*
X61553900Y-163428159D01*
X61553900Y-162764641D01*
X61558584Y-162717085D01*
X61570666Y-162677254D01*
X61590282Y-162640555D01*
X61616685Y-162608385D01*
X61648855Y-162581982D01*
X61685554Y-162562366D01*
X61725385Y-162550284D01*
X61772941Y-162545600D01*
X64236459Y-162545600D01*
X64284015Y-162550284D01*
X64284015Y-162550284D01*
G37*
G36*
X75296177Y-161657643D02*
X75333655Y-161669013D01*
X75368204Y-161687479D01*
X75398477Y-161712323D01*
X75423321Y-161742596D01*
X75441787Y-161777145D01*
X75453157Y-161814623D01*
X75457600Y-161859738D01*
X75457600Y-162498262D01*
X75453157Y-162543377D01*
X75441787Y-162580855D01*
X75423321Y-162615404D01*
X75398477Y-162645677D01*
X75368204Y-162670521D01*
X75333655Y-162688987D01*
X75296177Y-162700357D01*
X75251062Y-162704800D01*
X74512538Y-162704800D01*
X74467423Y-162700357D01*
X74429945Y-162688987D01*
X74395396Y-162670521D01*
X74365123Y-162645677D01*
X74340279Y-162615404D01*
X74321813Y-162580855D01*
X74310443Y-162543377D01*
X74306000Y-162498262D01*
X74306000Y-161859738D01*
X74310443Y-161814623D01*
X74321813Y-161777145D01*
X74340279Y-161742596D01*
X74365123Y-161712323D01*
X74395396Y-161687479D01*
X74429945Y-161669013D01*
X74467423Y-161657643D01*
X74512538Y-161653200D01*
X75251062Y-161653200D01*
X75296177Y-161657643D01*
X75296177Y-161657643D01*
G37*
G36*
X77046177Y-161657643D02*
X77083655Y-161669013D01*
X77118204Y-161687479D01*
X77148477Y-161712323D01*
X77173321Y-161742596D01*
X77191787Y-161777145D01*
X77203157Y-161814623D01*
X77207600Y-161859738D01*
X77207600Y-162498262D01*
X77203157Y-162543377D01*
X77191787Y-162580855D01*
X77173321Y-162615404D01*
X77148477Y-162645677D01*
X77118204Y-162670521D01*
X77083655Y-162688987D01*
X77046177Y-162700357D01*
X77001062Y-162704800D01*
X76262538Y-162704800D01*
X76217423Y-162700357D01*
X76179945Y-162688987D01*
X76145396Y-162670521D01*
X76115123Y-162645677D01*
X76090279Y-162615404D01*
X76071813Y-162580855D01*
X76060443Y-162543377D01*
X76056000Y-162498262D01*
X76056000Y-161859738D01*
X76060443Y-161814623D01*
X76071813Y-161777145D01*
X76090279Y-161742596D01*
X76115123Y-161712323D01*
X76145396Y-161687479D01*
X76179945Y-161669013D01*
X76217423Y-161657643D01*
X76262538Y-161653200D01*
X77001062Y-161653200D01*
X77046177Y-161657643D01*
X77046177Y-161657643D01*
G37*
G36*
X71431477Y-161630943D02*
X71468955Y-161642313D01*
X71503504Y-161660779D01*
X71533777Y-161685623D01*
X71558621Y-161715896D01*
X71577087Y-161750445D01*
X71588457Y-161787923D01*
X71592900Y-161833038D01*
X71592900Y-162471562D01*
X71588457Y-162516677D01*
X71577087Y-162554155D01*
X71558621Y-162588704D01*
X71533777Y-162618977D01*
X71503504Y-162643821D01*
X71468955Y-162662287D01*
X71431477Y-162673657D01*
X71386362Y-162678100D01*
X70647838Y-162678100D01*
X70602723Y-162673657D01*
X70565245Y-162662287D01*
X70530696Y-162643821D01*
X70500423Y-162618977D01*
X70475579Y-162588704D01*
X70457113Y-162554155D01*
X70445743Y-162516677D01*
X70441300Y-162471562D01*
X70441300Y-161833038D01*
X70445743Y-161787923D01*
X70457113Y-161750445D01*
X70475579Y-161715896D01*
X70500423Y-161685623D01*
X70530696Y-161660779D01*
X70565245Y-161642313D01*
X70602723Y-161630943D01*
X70647838Y-161626500D01*
X71386362Y-161626500D01*
X71431477Y-161630943D01*
X71431477Y-161630943D01*
G37*
G36*
X69681477Y-161630943D02*
X69718955Y-161642313D01*
X69753504Y-161660779D01*
X69783777Y-161685623D01*
X69808621Y-161715896D01*
X69827087Y-161750445D01*
X69838457Y-161787923D01*
X69842900Y-161833038D01*
X69842900Y-162471562D01*
X69838457Y-162516677D01*
X69827087Y-162554155D01*
X69808621Y-162588704D01*
X69783777Y-162618977D01*
X69753504Y-162643821D01*
X69718955Y-162662287D01*
X69681477Y-162673657D01*
X69636362Y-162678100D01*
X68897838Y-162678100D01*
X68852723Y-162673657D01*
X68815245Y-162662287D01*
X68780696Y-162643821D01*
X68750423Y-162618977D01*
X68725579Y-162588704D01*
X68707113Y-162554155D01*
X68695743Y-162516677D01*
X68691300Y-162471562D01*
X68691300Y-161833038D01*
X68695743Y-161787923D01*
X68707113Y-161750445D01*
X68725579Y-161715896D01*
X68750423Y-161685623D01*
X68780696Y-161660779D01*
X68815245Y-161642313D01*
X68852723Y-161630943D01*
X68897838Y-161626500D01*
X69636362Y-161626500D01*
X69681477Y-161630943D01*
X69681477Y-161630943D01*
G37*
G36*
X51127637Y-156185181D02*
X51132289Y-156186592D01*
X51136578Y-156188885D01*
X51143102Y-156194239D01*
X51163477Y-156207853D01*
X51186116Y-156217230D01*
X51210149Y-156222010D01*
X51234654Y-156222010D01*
X51258687Y-156217229D01*
X51281326Y-156207851D01*
X51301698Y-156194239D01*
X51308222Y-156188885D01*
X51312511Y-156186592D01*
X51317163Y-156185181D01*
X51328140Y-156184100D01*
X51616660Y-156184100D01*
X51627637Y-156185181D01*
X51632289Y-156186592D01*
X51636578Y-156188885D01*
X51643102Y-156194239D01*
X51663477Y-156207853D01*
X51686116Y-156217230D01*
X51710149Y-156222010D01*
X51734654Y-156222010D01*
X51758687Y-156217229D01*
X51781326Y-156207851D01*
X51801698Y-156194239D01*
X51808222Y-156188885D01*
X51812511Y-156186592D01*
X51817163Y-156185181D01*
X51828140Y-156184100D01*
X52116660Y-156184100D01*
X52127637Y-156185181D01*
X52132289Y-156186592D01*
X52136578Y-156188885D01*
X52143102Y-156194239D01*
X52163477Y-156207853D01*
X52186116Y-156217230D01*
X52210149Y-156222010D01*
X52234654Y-156222010D01*
X52258687Y-156217229D01*
X52281326Y-156207851D01*
X52301698Y-156194239D01*
X52308222Y-156188885D01*
X52312511Y-156186592D01*
X52317163Y-156185181D01*
X52328140Y-156184100D01*
X52616660Y-156184100D01*
X52627637Y-156185181D01*
X52632289Y-156186592D01*
X52636578Y-156188885D01*
X52643102Y-156194239D01*
X52663477Y-156207853D01*
X52686116Y-156217230D01*
X52710149Y-156222010D01*
X52734654Y-156222010D01*
X52758687Y-156217229D01*
X52781326Y-156207851D01*
X52801698Y-156194239D01*
X52808222Y-156188885D01*
X52812511Y-156186592D01*
X52817163Y-156185181D01*
X52828140Y-156184100D01*
X53116660Y-156184100D01*
X53127637Y-156185181D01*
X53132289Y-156186592D01*
X53136578Y-156188885D01*
X53143102Y-156194239D01*
X53163477Y-156207853D01*
X53186116Y-156217230D01*
X53210149Y-156222010D01*
X53234654Y-156222010D01*
X53258687Y-156217229D01*
X53281326Y-156207851D01*
X53301698Y-156194239D01*
X53308222Y-156188885D01*
X53312511Y-156186592D01*
X53317163Y-156185181D01*
X53328140Y-156184100D01*
X53616660Y-156184100D01*
X53627637Y-156185181D01*
X53632289Y-156186592D01*
X53636578Y-156188885D01*
X53640333Y-156191967D01*
X53643415Y-156195722D01*
X53645708Y-156200011D01*
X53647119Y-156204663D01*
X53648200Y-156215640D01*
X53648200Y-157034100D01*
X53650602Y-157058486D01*
X53657715Y-157081935D01*
X53669266Y-157103546D01*
X53684812Y-157122488D01*
X53703754Y-157138034D01*
X53725365Y-157149585D01*
X53748814Y-157156698D01*
X53773200Y-157159100D01*
X54591660Y-157159100D01*
X54602637Y-157160181D01*
X54607289Y-157161592D01*
X54611578Y-157163885D01*
X54615333Y-157166967D01*
X54618415Y-157170722D01*
X54620708Y-157175011D01*
X54622119Y-157179663D01*
X54623200Y-157190640D01*
X54623200Y-157479160D01*
X54622119Y-157490137D01*
X54620708Y-157494789D01*
X54618415Y-157499078D01*
X54613061Y-157505602D01*
X54599447Y-157525977D01*
X54590070Y-157548616D01*
X54585290Y-157572649D01*
X54585290Y-157597154D01*
X54590071Y-157621187D01*
X54599449Y-157643826D01*
X54613061Y-157664198D01*
X54618415Y-157670722D01*
X54620708Y-157675011D01*
X54622119Y-157679663D01*
X54623200Y-157690640D01*
X54623200Y-157979160D01*
X54622119Y-157990137D01*
X54620708Y-157994789D01*
X54618415Y-157999078D01*
X54613061Y-158005602D01*
X54599447Y-158025977D01*
X54590070Y-158048616D01*
X54585290Y-158072649D01*
X54585290Y-158097154D01*
X54590071Y-158121187D01*
X54599449Y-158143826D01*
X54613061Y-158164198D01*
X54618415Y-158170722D01*
X54620708Y-158175011D01*
X54622119Y-158179663D01*
X54623200Y-158190640D01*
X54623200Y-158479160D01*
X54622119Y-158490137D01*
X54620708Y-158494789D01*
X54618415Y-158499078D01*
X54613061Y-158505602D01*
X54599447Y-158525977D01*
X54590070Y-158548616D01*
X54585290Y-158572649D01*
X54585290Y-158597154D01*
X54590071Y-158621187D01*
X54599449Y-158643826D01*
X54613061Y-158664198D01*
X54618415Y-158670722D01*
X54620708Y-158675011D01*
X54622119Y-158679663D01*
X54623200Y-158690640D01*
X54623200Y-158979160D01*
X54622119Y-158990137D01*
X54620708Y-158994789D01*
X54618415Y-158999078D01*
X54613061Y-159005602D01*
X54599447Y-159025977D01*
X54590070Y-159048616D01*
X54585290Y-159072649D01*
X54585290Y-159097154D01*
X54590071Y-159121187D01*
X54599449Y-159143826D01*
X54613061Y-159164198D01*
X54618415Y-159170722D01*
X54620708Y-159175011D01*
X54622119Y-159179663D01*
X54623200Y-159190640D01*
X54623200Y-159479160D01*
X54622119Y-159490137D01*
X54620708Y-159494789D01*
X54618415Y-159499078D01*
X54613061Y-159505602D01*
X54599447Y-159525977D01*
X54590070Y-159548616D01*
X54585290Y-159572649D01*
X54585290Y-159597154D01*
X54590071Y-159621187D01*
X54599449Y-159643826D01*
X54613061Y-159664198D01*
X54618415Y-159670722D01*
X54620708Y-159675011D01*
X54622119Y-159679663D01*
X54623200Y-159690640D01*
X54623200Y-159979160D01*
X54622119Y-159990137D01*
X54620708Y-159994789D01*
X54618415Y-159999078D01*
X54615333Y-160002833D01*
X54611578Y-160005915D01*
X54607289Y-160008208D01*
X54602637Y-160009619D01*
X54591660Y-160010700D01*
X53773200Y-160010700D01*
X53748814Y-160013102D01*
X53725365Y-160020215D01*
X53703754Y-160031766D01*
X53684812Y-160047312D01*
X53669266Y-160066254D01*
X53657715Y-160087865D01*
X53650602Y-160111314D01*
X53648200Y-160135700D01*
X53648200Y-160954160D01*
X53647119Y-160965137D01*
X53645708Y-160969789D01*
X53643415Y-160974078D01*
X53640333Y-160977833D01*
X53636578Y-160980915D01*
X53632289Y-160983208D01*
X53627637Y-160984619D01*
X53616660Y-160985700D01*
X53328140Y-160985700D01*
X53317163Y-160984619D01*
X53312511Y-160983208D01*
X53308222Y-160980915D01*
X53301698Y-160975561D01*
X53281323Y-160961947D01*
X53258684Y-160952570D01*
X53234651Y-160947790D01*
X53210146Y-160947790D01*
X53186113Y-160952571D01*
X53163474Y-160961949D01*
X53143102Y-160975561D01*
X53136578Y-160980915D01*
X53132289Y-160983208D01*
X53127637Y-160984619D01*
X53116660Y-160985700D01*
X52828140Y-160985700D01*
X52817163Y-160984619D01*
X52812511Y-160983208D01*
X52808222Y-160980915D01*
X52801698Y-160975561D01*
X52781323Y-160961947D01*
X52758684Y-160952570D01*
X52734651Y-160947790D01*
X52710146Y-160947790D01*
X52686113Y-160952571D01*
X52663474Y-160961949D01*
X52643102Y-160975561D01*
X52636578Y-160980915D01*
X52632289Y-160983208D01*
X52627637Y-160984619D01*
X52616660Y-160985700D01*
X52328140Y-160985700D01*
X52317163Y-160984619D01*
X52312511Y-160983208D01*
X52308222Y-160980915D01*
X52301698Y-160975561D01*
X52281323Y-160961947D01*
X52258684Y-160952570D01*
X52234651Y-160947790D01*
X52210146Y-160947790D01*
X52186113Y-160952571D01*
X52163474Y-160961949D01*
X52143102Y-160975561D01*
X52136578Y-160980915D01*
X52132289Y-160983208D01*
X52127637Y-160984619D01*
X52116660Y-160985700D01*
X51828140Y-160985700D01*
X51817163Y-160984619D01*
X51812511Y-160983208D01*
X51808222Y-160980915D01*
X51801698Y-160975561D01*
X51781323Y-160961947D01*
X51758684Y-160952570D01*
X51734651Y-160947790D01*
X51710146Y-160947790D01*
X51686113Y-160952571D01*
X51663474Y-160961949D01*
X51643102Y-160975561D01*
X51636578Y-160980915D01*
X51632289Y-160983208D01*
X51627637Y-160984619D01*
X51616660Y-160985700D01*
X51328140Y-160985700D01*
X51317163Y-160984619D01*
X51312511Y-160983208D01*
X51308222Y-160980915D01*
X51301698Y-160975561D01*
X51281323Y-160961947D01*
X51258684Y-160952570D01*
X51234651Y-160947790D01*
X51210146Y-160947790D01*
X51186113Y-160952571D01*
X51163474Y-160961949D01*
X51143102Y-160975561D01*
X51136578Y-160980915D01*
X51132289Y-160983208D01*
X51127637Y-160984619D01*
X51116660Y-160985700D01*
X50828140Y-160985700D01*
X50817163Y-160984619D01*
X50812511Y-160983208D01*
X50808222Y-160980915D01*
X50804467Y-160977833D01*
X50801385Y-160974078D01*
X50799092Y-160969789D01*
X50797681Y-160965137D01*
X50796600Y-160954160D01*
X50796600Y-160135700D01*
X50794198Y-160111314D01*
X50787085Y-160087865D01*
X50775534Y-160066254D01*
X50759988Y-160047312D01*
X50741046Y-160031766D01*
X50719435Y-160020215D01*
X50695986Y-160013102D01*
X50671600Y-160010700D01*
X49853140Y-160010700D01*
X49842163Y-160009619D01*
X49837511Y-160008208D01*
X49833222Y-160005915D01*
X49829467Y-160002833D01*
X49826385Y-159999078D01*
X49824092Y-159994789D01*
X49822681Y-159990137D01*
X49821600Y-159979160D01*
X49821600Y-159690640D01*
X49822681Y-159679663D01*
X49824092Y-159675011D01*
X49826385Y-159670722D01*
X49831739Y-159664198D01*
X49845353Y-159643823D01*
X49854730Y-159621184D01*
X49859510Y-159597151D01*
X49859510Y-159572646D01*
X49854729Y-159548613D01*
X49845351Y-159525974D01*
X49831739Y-159505602D01*
X49826385Y-159499078D01*
X49824092Y-159494789D01*
X49822681Y-159490137D01*
X49821600Y-159479160D01*
X49821600Y-159190640D01*
X49822681Y-159179663D01*
X49824092Y-159175011D01*
X49826385Y-159170722D01*
X49831739Y-159164198D01*
X49845353Y-159143823D01*
X49854730Y-159121184D01*
X49859510Y-159097151D01*
X49859510Y-159072646D01*
X49854729Y-159048613D01*
X49845351Y-159025974D01*
X49831739Y-159005602D01*
X49826385Y-158999078D01*
X49824092Y-158994789D01*
X49822681Y-158990137D01*
X49821600Y-158979160D01*
X49821600Y-158690640D01*
X49822681Y-158679663D01*
X49824092Y-158675011D01*
X49826385Y-158670722D01*
X49831739Y-158664198D01*
X49845353Y-158643823D01*
X49854730Y-158621184D01*
X49859510Y-158597151D01*
X49859510Y-158572646D01*
X49854729Y-158548613D01*
X49845351Y-158525974D01*
X49831739Y-158505602D01*
X49826385Y-158499078D01*
X49824092Y-158494789D01*
X49822681Y-158490137D01*
X49821600Y-158479160D01*
X49821600Y-158190640D01*
X49822681Y-158179663D01*
X49824092Y-158175011D01*
X49826385Y-158170722D01*
X49831739Y-158164198D01*
X49845353Y-158143823D01*
X49854730Y-158121184D01*
X49859510Y-158097151D01*
X49859510Y-158072646D01*
X49854729Y-158048613D01*
X49845351Y-158025974D01*
X49831739Y-158005602D01*
X49826385Y-157999078D01*
X49824092Y-157994789D01*
X49822681Y-157990137D01*
X49821600Y-157979160D01*
X49821600Y-157690640D01*
X49822681Y-157679663D01*
X49824092Y-157675011D01*
X49826385Y-157670722D01*
X49831739Y-157664198D01*
X49845353Y-157643823D01*
X49854730Y-157621184D01*
X49859510Y-157597151D01*
X49859510Y-157572646D01*
X49854729Y-157548613D01*
X49845351Y-157525974D01*
X49831739Y-157505602D01*
X49826385Y-157499078D01*
X49824092Y-157494789D01*
X49822681Y-157490137D01*
X49821600Y-157479160D01*
X49821600Y-157190640D01*
X49822681Y-157179663D01*
X49824092Y-157175011D01*
X49826385Y-157170722D01*
X49829467Y-157166967D01*
X49833222Y-157163885D01*
X49837511Y-157161592D01*
X49842163Y-157160181D01*
X49853140Y-157159100D01*
X50671600Y-157159100D01*
X50695986Y-157156698D01*
X50719435Y-157149585D01*
X50741046Y-157138034D01*
X50759988Y-157122488D01*
X50775534Y-157103546D01*
X50787085Y-157081935D01*
X50794198Y-157058486D01*
X50796600Y-157034100D01*
X50796600Y-156215640D01*
X50797681Y-156204663D01*
X50799092Y-156200011D01*
X50801385Y-156195722D01*
X50804467Y-156191967D01*
X50808222Y-156188885D01*
X50812511Y-156186592D01*
X50817163Y-156185181D01*
X50828140Y-156184100D01*
X51116660Y-156184100D01*
X51127637Y-156185181D01*
X51127637Y-156185181D01*
G37*
G36*
X57603421Y-160096514D02*
X57624015Y-160102762D01*
X57642997Y-160112908D01*
X57659637Y-160126563D01*
X57673292Y-160143203D01*
X57683438Y-160162185D01*
X57689686Y-160182779D01*
X57692400Y-160210340D01*
X57692400Y-160718860D01*
X57689686Y-160746421D01*
X57683438Y-160767015D01*
X57673292Y-160785997D01*
X57659637Y-160802637D01*
X57642997Y-160816292D01*
X57624015Y-160826438D01*
X57603421Y-160832686D01*
X57575860Y-160835400D01*
X57117340Y-160835400D01*
X57089779Y-160832686D01*
X57069185Y-160826438D01*
X57050203Y-160816292D01*
X57033563Y-160802637D01*
X57019908Y-160785997D01*
X57009762Y-160767015D01*
X57003514Y-160746421D01*
X57000800Y-160718860D01*
X57000800Y-160210340D01*
X57003514Y-160182779D01*
X57009762Y-160162185D01*
X57019908Y-160143203D01*
X57033563Y-160126563D01*
X57050203Y-160112908D01*
X57069185Y-160102762D01*
X57089779Y-160096514D01*
X57117340Y-160093800D01*
X57575860Y-160093800D01*
X57603421Y-160096514D01*
X57603421Y-160096514D01*
G37*
G36*
X58573421Y-160096514D02*
X58594015Y-160102762D01*
X58612997Y-160112908D01*
X58629637Y-160126563D01*
X58643292Y-160143203D01*
X58653438Y-160162185D01*
X58659686Y-160182779D01*
X58662400Y-160210340D01*
X58662400Y-160718860D01*
X58659686Y-160746421D01*
X58653438Y-160767015D01*
X58643292Y-160785997D01*
X58629637Y-160802637D01*
X58612997Y-160816292D01*
X58594015Y-160826438D01*
X58573421Y-160832686D01*
X58545860Y-160835400D01*
X58087340Y-160835400D01*
X58059779Y-160832686D01*
X58039185Y-160826438D01*
X58020203Y-160816292D01*
X58003563Y-160802637D01*
X57989908Y-160785997D01*
X57979762Y-160767015D01*
X57973514Y-160746421D01*
X57970800Y-160718860D01*
X57970800Y-160210340D01*
X57973514Y-160182779D01*
X57979762Y-160162185D01*
X57989908Y-160143203D01*
X58003563Y-160126563D01*
X58020203Y-160112908D01*
X58039185Y-160102762D01*
X58059779Y-160096514D01*
X58087340Y-160093800D01*
X58545860Y-160093800D01*
X58573421Y-160096514D01*
X58573421Y-160096514D01*
G37*
G36*
X69812321Y-158369214D02*
X69832915Y-158375462D01*
X69851897Y-158385608D01*
X69868537Y-158399263D01*
X69882192Y-158415903D01*
X69892338Y-158434885D01*
X69898586Y-158455479D01*
X69901300Y-158483040D01*
X69901300Y-158991560D01*
X69898586Y-159019121D01*
X69892338Y-159039715D01*
X69882192Y-159058697D01*
X69868537Y-159075337D01*
X69851897Y-159088992D01*
X69832915Y-159099138D01*
X69812321Y-159105386D01*
X69784760Y-159108100D01*
X69326240Y-159108100D01*
X69298679Y-159105386D01*
X69278085Y-159099138D01*
X69259103Y-159088992D01*
X69242463Y-159075337D01*
X69228808Y-159058697D01*
X69218662Y-159039715D01*
X69212414Y-159019121D01*
X69209700Y-158991560D01*
X69209700Y-158483040D01*
X69212414Y-158455479D01*
X69218662Y-158434885D01*
X69228808Y-158415903D01*
X69242463Y-158399263D01*
X69259103Y-158385608D01*
X69278085Y-158375462D01*
X69298679Y-158369214D01*
X69326240Y-158366500D01*
X69784760Y-158366500D01*
X69812321Y-158369214D01*
X69812321Y-158369214D01*
G37*
G36*
X70782321Y-158369214D02*
X70802915Y-158375462D01*
X70821897Y-158385608D01*
X70838537Y-158399263D01*
X70852192Y-158415903D01*
X70862338Y-158434885D01*
X70868586Y-158455479D01*
X70871300Y-158483040D01*
X70871300Y-158991560D01*
X70868586Y-159019121D01*
X70862338Y-159039715D01*
X70852192Y-159058697D01*
X70838537Y-159075337D01*
X70821897Y-159088992D01*
X70802915Y-159099138D01*
X70782321Y-159105386D01*
X70754760Y-159108100D01*
X70296240Y-159108100D01*
X70268679Y-159105386D01*
X70248085Y-159099138D01*
X70229103Y-159088992D01*
X70212463Y-159075337D01*
X70198808Y-159058697D01*
X70188662Y-159039715D01*
X70182414Y-159019121D01*
X70179700Y-158991560D01*
X70179700Y-158483040D01*
X70182414Y-158455479D01*
X70188662Y-158434885D01*
X70198808Y-158415903D01*
X70212463Y-158399263D01*
X70229103Y-158385608D01*
X70248085Y-158375462D01*
X70268679Y-158369214D01*
X70296240Y-158366500D01*
X70754760Y-158366500D01*
X70782321Y-158369214D01*
X70782321Y-158369214D01*
G37*
G36*
X58958400Y-157197000D02*
X56306800Y-157197000D01*
X56306800Y-155535400D01*
X58958400Y-155535400D01*
X58958400Y-157197000D01*
X58958400Y-157197000D01*
G37*
G36*
X52109600Y-154703700D02*
X50448000Y-154703700D01*
X50448000Y-153952100D01*
X52109600Y-153952100D01*
X52109600Y-154703700D01*
X52109600Y-154703700D01*
G37*
G36*
X54809600Y-154703700D02*
X53148000Y-154703700D01*
X53148000Y-152052100D01*
X54809600Y-152052100D01*
X54809600Y-154703700D01*
X54809600Y-154703700D01*
G37*
G36*
X61826021Y-154001114D02*
X61846615Y-154007362D01*
X61865597Y-154017508D01*
X61882237Y-154031163D01*
X61895892Y-154047803D01*
X61906038Y-154066785D01*
X61912286Y-154087379D01*
X61915000Y-154114940D01*
X61915000Y-154573460D01*
X61912286Y-154601021D01*
X61906038Y-154621615D01*
X61895892Y-154640597D01*
X61882237Y-154657237D01*
X61865597Y-154670892D01*
X61846615Y-154681038D01*
X61826021Y-154687286D01*
X61798460Y-154690000D01*
X61289940Y-154690000D01*
X61262379Y-154687286D01*
X61241785Y-154681038D01*
X61222803Y-154670892D01*
X61206163Y-154657237D01*
X61192508Y-154640597D01*
X61182362Y-154621615D01*
X61176114Y-154601021D01*
X61173400Y-154573460D01*
X61173400Y-154114940D01*
X61176114Y-154087379D01*
X61182362Y-154066785D01*
X61192508Y-154047803D01*
X61206163Y-154031163D01*
X61222803Y-154017508D01*
X61241785Y-154007362D01*
X61262379Y-154001114D01*
X61289940Y-153998400D01*
X61798460Y-153998400D01*
X61826021Y-154001114D01*
X61826021Y-154001114D01*
G37*
G36*
X48609421Y-153860714D02*
X48630015Y-153866962D01*
X48648997Y-153877108D01*
X48665637Y-153890763D01*
X48679292Y-153907403D01*
X48689438Y-153926385D01*
X48695686Y-153946979D01*
X48698400Y-153974540D01*
X48698400Y-154483060D01*
X48695686Y-154510621D01*
X48689438Y-154531215D01*
X48679292Y-154550197D01*
X48665637Y-154566837D01*
X48648997Y-154580492D01*
X48630015Y-154590638D01*
X48609421Y-154596886D01*
X48581860Y-154599600D01*
X48123340Y-154599600D01*
X48095779Y-154596886D01*
X48075185Y-154590638D01*
X48056203Y-154580492D01*
X48039563Y-154566837D01*
X48025908Y-154550197D01*
X48015762Y-154531215D01*
X48009514Y-154510621D01*
X48006800Y-154483060D01*
X48006800Y-153974540D01*
X48009514Y-153946979D01*
X48015762Y-153926385D01*
X48025908Y-153907403D01*
X48039563Y-153890763D01*
X48056203Y-153877108D01*
X48075185Y-153866962D01*
X48095779Y-153860714D01*
X48123340Y-153858000D01*
X48581860Y-153858000D01*
X48609421Y-153860714D01*
X48609421Y-153860714D01*
G37*
G36*
X47639421Y-153860714D02*
X47660015Y-153866962D01*
X47678997Y-153877108D01*
X47695637Y-153890763D01*
X47709292Y-153907403D01*
X47719438Y-153926385D01*
X47725686Y-153946979D01*
X47728400Y-153974540D01*
X47728400Y-154483060D01*
X47725686Y-154510621D01*
X47719438Y-154531215D01*
X47709292Y-154550197D01*
X47695637Y-154566837D01*
X47678997Y-154580492D01*
X47660015Y-154590638D01*
X47639421Y-154596886D01*
X47611860Y-154599600D01*
X47153340Y-154599600D01*
X47125779Y-154596886D01*
X47105185Y-154590638D01*
X47086203Y-154580492D01*
X47069563Y-154566837D01*
X47055908Y-154550197D01*
X47045762Y-154531215D01*
X47039514Y-154510621D01*
X47036800Y-154483060D01*
X47036800Y-153974540D01*
X47039514Y-153946979D01*
X47045762Y-153926385D01*
X47055908Y-153907403D01*
X47069563Y-153890763D01*
X47086203Y-153877108D01*
X47105185Y-153866962D01*
X47125779Y-153860714D01*
X47153340Y-153858000D01*
X47611860Y-153858000D01*
X47639421Y-153860714D01*
X47639421Y-153860714D01*
G37*
G36*
X57058400Y-154497000D02*
X56306800Y-154497000D01*
X56306800Y-152835400D01*
X57058400Y-152835400D01*
X57058400Y-154497000D01*
X57058400Y-154497000D01*
G37*
G36*
X58958400Y-154497000D02*
X58206800Y-154497000D01*
X58206800Y-152835400D01*
X58958400Y-152835400D01*
X58958400Y-154497000D01*
X58958400Y-154497000D01*
G37*
G36*
X61826021Y-153031114D02*
X61846615Y-153037362D01*
X61865597Y-153047508D01*
X61882237Y-153061163D01*
X61895892Y-153077803D01*
X61906038Y-153096785D01*
X61912286Y-153117379D01*
X61915000Y-153144940D01*
X61915000Y-153603460D01*
X61912286Y-153631021D01*
X61906038Y-153651615D01*
X61895892Y-153670597D01*
X61882237Y-153687237D01*
X61865597Y-153700892D01*
X61846615Y-153711038D01*
X61826021Y-153717286D01*
X61798460Y-153720000D01*
X61289940Y-153720000D01*
X61262379Y-153717286D01*
X61241785Y-153711038D01*
X61222803Y-153700892D01*
X61206163Y-153687237D01*
X61192508Y-153670597D01*
X61182362Y-153651615D01*
X61176114Y-153631021D01*
X61173400Y-153603460D01*
X61173400Y-153144940D01*
X61176114Y-153117379D01*
X61182362Y-153096785D01*
X61192508Y-153077803D01*
X61206163Y-153061163D01*
X61222803Y-153047508D01*
X61241785Y-153037362D01*
X61262379Y-153031114D01*
X61289940Y-153028400D01*
X61798460Y-153028400D01*
X61826021Y-153031114D01*
X61826021Y-153031114D01*
G37*
G36*
X52109600Y-152803700D02*
X50448000Y-152803700D01*
X50448000Y-152052100D01*
X52109600Y-152052100D01*
X52109600Y-152803700D01*
X52109600Y-152803700D01*
G37*
G36*
X50783377Y-149529943D02*
X50820855Y-149541313D01*
X50855404Y-149559779D01*
X50885677Y-149584623D01*
X50910521Y-149614896D01*
X50928987Y-149649445D01*
X50940357Y-149686923D01*
X50944800Y-149732038D01*
X50944800Y-150470562D01*
X50940357Y-150515677D01*
X50928987Y-150553155D01*
X50910521Y-150587704D01*
X50885677Y-150617977D01*
X50855404Y-150642821D01*
X50820855Y-150661287D01*
X50783377Y-150672657D01*
X50738262Y-150677100D01*
X50099738Y-150677100D01*
X50054623Y-150672657D01*
X50017145Y-150661287D01*
X49982596Y-150642821D01*
X49952323Y-150617977D01*
X49927479Y-150587704D01*
X49909013Y-150553155D01*
X49897643Y-150515677D01*
X49893200Y-150470562D01*
X49893200Y-149732038D01*
X49897643Y-149686923D01*
X49909013Y-149649445D01*
X49927479Y-149614896D01*
X49952323Y-149584623D01*
X49982596Y-149559779D01*
X50017145Y-149541313D01*
X50054623Y-149529943D01*
X50099738Y-149525500D01*
X50738262Y-149525500D01*
X50783377Y-149529943D01*
X50783377Y-149529943D01*
G37*
G36*
X49371137Y-149526003D02*
X49408615Y-149537373D01*
X49443164Y-149555839D01*
X49473437Y-149580683D01*
X49498281Y-149610956D01*
X49516747Y-149645505D01*
X49528117Y-149682983D01*
X49532560Y-149728098D01*
X49532560Y-150466622D01*
X49528117Y-150511737D01*
X49516747Y-150549215D01*
X49498281Y-150583764D01*
X49473437Y-150614037D01*
X49443164Y-150638881D01*
X49408615Y-150657347D01*
X49371137Y-150668717D01*
X49326022Y-150673160D01*
X48687498Y-150673160D01*
X48642383Y-150668717D01*
X48604905Y-150657347D01*
X48570356Y-150638881D01*
X48540083Y-150614037D01*
X48515239Y-150583764D01*
X48496773Y-150549215D01*
X48485403Y-150511737D01*
X48480960Y-150466622D01*
X48480960Y-149728098D01*
X48485403Y-149682983D01*
X48496773Y-149645505D01*
X48515239Y-149610956D01*
X48540083Y-149580683D01*
X48570356Y-149555839D01*
X48604905Y-149537373D01*
X48642383Y-149526003D01*
X48687498Y-149521560D01*
X49326022Y-149521560D01*
X49371137Y-149526003D01*
X49371137Y-149526003D01*
G37*
G36*
X46004700Y-150439000D02*
X44343100Y-150439000D01*
X44343100Y-149687400D01*
X46004700Y-149687400D01*
X46004700Y-150439000D01*
X46004700Y-150439000D01*
G37*
G36*
X43304700Y-150439000D02*
X41643100Y-150439000D01*
X41643100Y-147787400D01*
X43304700Y-147787400D01*
X43304700Y-150439000D01*
X43304700Y-150439000D01*
G37*
G36*
X50783377Y-147779943D02*
X50820855Y-147791313D01*
X50855404Y-147809779D01*
X50885677Y-147834623D01*
X50910521Y-147864896D01*
X50928987Y-147899445D01*
X50940357Y-147936923D01*
X50944800Y-147982038D01*
X50944800Y-148720562D01*
X50940357Y-148765677D01*
X50928987Y-148803155D01*
X50910521Y-148837704D01*
X50885677Y-148867977D01*
X50855404Y-148892821D01*
X50820855Y-148911287D01*
X50783377Y-148922657D01*
X50738262Y-148927100D01*
X50099738Y-148927100D01*
X50054623Y-148922657D01*
X50017145Y-148911287D01*
X49982596Y-148892821D01*
X49952323Y-148867977D01*
X49927479Y-148837704D01*
X49909013Y-148803155D01*
X49897643Y-148765677D01*
X49893200Y-148720562D01*
X49893200Y-147982038D01*
X49897643Y-147936923D01*
X49909013Y-147899445D01*
X49927479Y-147864896D01*
X49952323Y-147834623D01*
X49982596Y-147809779D01*
X50017145Y-147791313D01*
X50054623Y-147779943D01*
X50099738Y-147775500D01*
X50738262Y-147775500D01*
X50783377Y-147779943D01*
X50783377Y-147779943D01*
G37*
G36*
X49371137Y-147776003D02*
X49408615Y-147787373D01*
X49443164Y-147805839D01*
X49473437Y-147830683D01*
X49498281Y-147860956D01*
X49516747Y-147895505D01*
X49528117Y-147932983D01*
X49532560Y-147978098D01*
X49532560Y-148716622D01*
X49528117Y-148761737D01*
X49516747Y-148799215D01*
X49498281Y-148833764D01*
X49473437Y-148864037D01*
X49443164Y-148888881D01*
X49408615Y-148907347D01*
X49371137Y-148918717D01*
X49326022Y-148923160D01*
X48687498Y-148923160D01*
X48642383Y-148918717D01*
X48604905Y-148907347D01*
X48570356Y-148888881D01*
X48540083Y-148864037D01*
X48515239Y-148833764D01*
X48496773Y-148799215D01*
X48485403Y-148761737D01*
X48480960Y-148716622D01*
X48480960Y-147978098D01*
X48485403Y-147932983D01*
X48496773Y-147895505D01*
X48515239Y-147860956D01*
X48540083Y-147830683D01*
X48570356Y-147805839D01*
X48604905Y-147787373D01*
X48642383Y-147776003D01*
X48687498Y-147771560D01*
X49326022Y-147771560D01*
X49371137Y-147776003D01*
X49371137Y-147776003D01*
G37*
G36*
X46004700Y-148539000D02*
X44343100Y-148539000D01*
X44343100Y-147787400D01*
X46004700Y-147787400D01*
X46004700Y-148539000D01*
X46004700Y-148539000D01*
G37*
G36*
X43857021Y-145110414D02*
X43877615Y-145116662D01*
X43896597Y-145126808D01*
X43913237Y-145140463D01*
X43926892Y-145157103D01*
X43937038Y-145176085D01*
X43943286Y-145196679D01*
X43946000Y-145224240D01*
X43946000Y-145732760D01*
X43943286Y-145760321D01*
X43937038Y-145780915D01*
X43926892Y-145799897D01*
X43913237Y-145816537D01*
X43896597Y-145830192D01*
X43877615Y-145840338D01*
X43857021Y-145846586D01*
X43829460Y-145849300D01*
X43370940Y-145849300D01*
X43343379Y-145846586D01*
X43322785Y-145840338D01*
X43303803Y-145830192D01*
X43287163Y-145816537D01*
X43273508Y-145799897D01*
X43263362Y-145780915D01*
X43257114Y-145760321D01*
X43254400Y-145732760D01*
X43254400Y-145224240D01*
X43257114Y-145196679D01*
X43263362Y-145176085D01*
X43273508Y-145157103D01*
X43287163Y-145140463D01*
X43303803Y-145126808D01*
X43322785Y-145116662D01*
X43343379Y-145110414D01*
X43370940Y-145107700D01*
X43829460Y-145107700D01*
X43857021Y-145110414D01*
X43857021Y-145110414D01*
G37*
G36*
X42887021Y-145110414D02*
X42907615Y-145116662D01*
X42926597Y-145126808D01*
X42943237Y-145140463D01*
X42956892Y-145157103D01*
X42967038Y-145176085D01*
X42973286Y-145196679D01*
X42976000Y-145224240D01*
X42976000Y-145732760D01*
X42973286Y-145760321D01*
X42967038Y-145780915D01*
X42956892Y-145799897D01*
X42943237Y-145816537D01*
X42926597Y-145830192D01*
X42907615Y-145840338D01*
X42887021Y-145846586D01*
X42859460Y-145849300D01*
X42400940Y-145849300D01*
X42373379Y-145846586D01*
X42352785Y-145840338D01*
X42333803Y-145830192D01*
X42317163Y-145816537D01*
X42303508Y-145799897D01*
X42293362Y-145780915D01*
X42287114Y-145760321D01*
X42284400Y-145732760D01*
X42284400Y-145224240D01*
X42287114Y-145196679D01*
X42293362Y-145176085D01*
X42303508Y-145157103D01*
X42317163Y-145140463D01*
X42333803Y-145126808D01*
X42352785Y-145116662D01*
X42373379Y-145110414D01*
X42400940Y-145107700D01*
X42859460Y-145107700D01*
X42887021Y-145110414D01*
X42887021Y-145110414D01*
G37*
G36*
X44379177Y-142810843D02*
X44416655Y-142822213D01*
X44451204Y-142840679D01*
X44481477Y-142865523D01*
X44506321Y-142895796D01*
X44524787Y-142930345D01*
X44536157Y-142967823D01*
X44540600Y-143012938D01*
X44540600Y-143651462D01*
X44536157Y-143696577D01*
X44524787Y-143734055D01*
X44506321Y-143768604D01*
X44481477Y-143798877D01*
X44451204Y-143823721D01*
X44416655Y-143842187D01*
X44379177Y-143853557D01*
X44334062Y-143858000D01*
X43595538Y-143858000D01*
X43550423Y-143853557D01*
X43512945Y-143842187D01*
X43478396Y-143823721D01*
X43448123Y-143798877D01*
X43423279Y-143768604D01*
X43404813Y-143734055D01*
X43393443Y-143696577D01*
X43389000Y-143651462D01*
X43389000Y-143012938D01*
X43393443Y-142967823D01*
X43404813Y-142930345D01*
X43423279Y-142895796D01*
X43448123Y-142865523D01*
X43478396Y-142840679D01*
X43512945Y-142822213D01*
X43550423Y-142810843D01*
X43595538Y-142806400D01*
X44334062Y-142806400D01*
X44379177Y-142810843D01*
X44379177Y-142810843D01*
G37*
G36*
X42629177Y-142810843D02*
X42666655Y-142822213D01*
X42701204Y-142840679D01*
X42731477Y-142865523D01*
X42756321Y-142895796D01*
X42774787Y-142930345D01*
X42786157Y-142967823D01*
X42790600Y-143012938D01*
X42790600Y-143651462D01*
X42786157Y-143696577D01*
X42774787Y-143734055D01*
X42756321Y-143768604D01*
X42731477Y-143798877D01*
X42701204Y-143823721D01*
X42666655Y-143842187D01*
X42629177Y-143853557D01*
X42584062Y-143858000D01*
X41845538Y-143858000D01*
X41800423Y-143853557D01*
X41762945Y-143842187D01*
X41728396Y-143823721D01*
X41698123Y-143798877D01*
X41673279Y-143768604D01*
X41654813Y-143734055D01*
X41643443Y-143696577D01*
X41639000Y-143651462D01*
X41639000Y-143012938D01*
X41643443Y-142967823D01*
X41654813Y-142930345D01*
X41673279Y-142895796D01*
X41698123Y-142865523D01*
X41728396Y-142840679D01*
X41762945Y-142822213D01*
X41800423Y-142810843D01*
X41845538Y-142806400D01*
X42584062Y-142806400D01*
X42629177Y-142810843D01*
X42629177Y-142810843D01*
G37*
G36*
X42837521Y-141059114D02*
X42858115Y-141065362D01*
X42877097Y-141075508D01*
X42893737Y-141089163D01*
X42907392Y-141105803D01*
X42917538Y-141124785D01*
X42923786Y-141145379D01*
X42926500Y-141172940D01*
X42926500Y-141681460D01*
X42923786Y-141709021D01*
X42917538Y-141729615D01*
X42907392Y-141748597D01*
X42893737Y-141765237D01*
X42877097Y-141778892D01*
X42858115Y-141789038D01*
X42837521Y-141795286D01*
X42809960Y-141798000D01*
X42351440Y-141798000D01*
X42323879Y-141795286D01*
X42303285Y-141789038D01*
X42284303Y-141778892D01*
X42267663Y-141765237D01*
X42254008Y-141748597D01*
X42243862Y-141729615D01*
X42237614Y-141709021D01*
X42234900Y-141681460D01*
X42234900Y-141172940D01*
X42237614Y-141145379D01*
X42243862Y-141124785D01*
X42254008Y-141105803D01*
X42267663Y-141089163D01*
X42284303Y-141075508D01*
X42303285Y-141065362D01*
X42323879Y-141059114D01*
X42351440Y-141056400D01*
X42809960Y-141056400D01*
X42837521Y-141059114D01*
X42837521Y-141059114D01*
G37*
G36*
X43807521Y-141059114D02*
X43828115Y-141065362D01*
X43847097Y-141075508D01*
X43863737Y-141089163D01*
X43877392Y-141105803D01*
X43887538Y-141124785D01*
X43893786Y-141145379D01*
X43896500Y-141172940D01*
X43896500Y-141681460D01*
X43893786Y-141709021D01*
X43887538Y-141729615D01*
X43877392Y-141748597D01*
X43863737Y-141765237D01*
X43847097Y-141778892D01*
X43828115Y-141789038D01*
X43807521Y-141795286D01*
X43779960Y-141798000D01*
X43321440Y-141798000D01*
X43293879Y-141795286D01*
X43273285Y-141789038D01*
X43254303Y-141778892D01*
X43237663Y-141765237D01*
X43224008Y-141748597D01*
X43213862Y-141729615D01*
X43207614Y-141709021D01*
X43204900Y-141681460D01*
X43204900Y-141172940D01*
X43207614Y-141145379D01*
X43213862Y-141124785D01*
X43224008Y-141105803D01*
X43237663Y-141089163D01*
X43254303Y-141075508D01*
X43273285Y-141065362D01*
X43293879Y-141059114D01*
X43321440Y-141056400D01*
X43779960Y-141056400D01*
X43807521Y-141059114D01*
X43807521Y-141059114D01*
G37*
G36*
X71897500Y-137805000D02*
X48005900Y-137805000D01*
X48005900Y-136253400D01*
X71897500Y-136253400D01*
X71897500Y-137805000D01*
X71897500Y-137805000D01*
G37*
G36*
X108980977Y-134403243D02*
X109018455Y-134414613D01*
X109053004Y-134433079D01*
X109083277Y-134457923D01*
X109108121Y-134488196D01*
X109126587Y-134522745D01*
X109137957Y-134560223D01*
X109142400Y-134605338D01*
X109142400Y-135243862D01*
X109137957Y-135288977D01*
X109126587Y-135326455D01*
X109108121Y-135361004D01*
X109083277Y-135391277D01*
X109053004Y-135416121D01*
X109018455Y-135434587D01*
X108980977Y-135445957D01*
X108935862Y-135450400D01*
X108197338Y-135450400D01*
X108152223Y-135445957D01*
X108114745Y-135434587D01*
X108080196Y-135416121D01*
X108049923Y-135391277D01*
X108025079Y-135361004D01*
X108006613Y-135326455D01*
X107995243Y-135288977D01*
X107990800Y-135243862D01*
X107990800Y-134605338D01*
X107995243Y-134560223D01*
X108006613Y-134522745D01*
X108025079Y-134488196D01*
X108049923Y-134457923D01*
X108080196Y-134433079D01*
X108114745Y-134414613D01*
X108152223Y-134403243D01*
X108197338Y-134398800D01*
X108935862Y-134398800D01*
X108980977Y-134403243D01*
X108980977Y-134403243D01*
G37*
G36*
X107230977Y-134403243D02*
X107268455Y-134414613D01*
X107303004Y-134433079D01*
X107333277Y-134457923D01*
X107358121Y-134488196D01*
X107376587Y-134522745D01*
X107387957Y-134560223D01*
X107392400Y-134605338D01*
X107392400Y-135243862D01*
X107387957Y-135288977D01*
X107376587Y-135326455D01*
X107358121Y-135361004D01*
X107333277Y-135391277D01*
X107303004Y-135416121D01*
X107268455Y-135434587D01*
X107230977Y-135445957D01*
X107185862Y-135450400D01*
X106447338Y-135450400D01*
X106402223Y-135445957D01*
X106364745Y-135434587D01*
X106330196Y-135416121D01*
X106299923Y-135391277D01*
X106275079Y-135361004D01*
X106256613Y-135326455D01*
X106245243Y-135288977D01*
X106240800Y-135243862D01*
X106240800Y-134605338D01*
X106245243Y-134560223D01*
X106256613Y-134522745D01*
X106275079Y-134488196D01*
X106299923Y-134457923D01*
X106330196Y-134433079D01*
X106364745Y-134414613D01*
X106402223Y-134403243D01*
X106447338Y-134398800D01*
X107185862Y-134398800D01*
X107230977Y-134403243D01*
X107230977Y-134403243D01*
G37*
G36*
X75498421Y-131316514D02*
X75519015Y-131322762D01*
X75537997Y-131332908D01*
X75554637Y-131346563D01*
X75568292Y-131363203D01*
X75578438Y-131382185D01*
X75584686Y-131402779D01*
X75587400Y-131430340D01*
X75587400Y-131888860D01*
X75584686Y-131916421D01*
X75578438Y-131937015D01*
X75568292Y-131955997D01*
X75554637Y-131972637D01*
X75537997Y-131986292D01*
X75519015Y-131996438D01*
X75498421Y-132002686D01*
X75470860Y-132005400D01*
X74962340Y-132005400D01*
X74934779Y-132002686D01*
X74914185Y-131996438D01*
X74895203Y-131986292D01*
X74878563Y-131972637D01*
X74864908Y-131955997D01*
X74854762Y-131937015D01*
X74848514Y-131916421D01*
X74845800Y-131888860D01*
X74845800Y-131430340D01*
X74848514Y-131402779D01*
X74854762Y-131382185D01*
X74864908Y-131363203D01*
X74878563Y-131346563D01*
X74895203Y-131332908D01*
X74914185Y-131322762D01*
X74934779Y-131316514D01*
X74962340Y-131313800D01*
X75470860Y-131313800D01*
X75498421Y-131316514D01*
X75498421Y-131316514D01*
G37*
G36*
X75498421Y-130346514D02*
X75519015Y-130352762D01*
X75537997Y-130362908D01*
X75554637Y-130376563D01*
X75568292Y-130393203D01*
X75578438Y-130412185D01*
X75584686Y-130432779D01*
X75587400Y-130460340D01*
X75587400Y-130918860D01*
X75584686Y-130946421D01*
X75578438Y-130967015D01*
X75568292Y-130985997D01*
X75554637Y-131002637D01*
X75537997Y-131016292D01*
X75519015Y-131026438D01*
X75498421Y-131032686D01*
X75470860Y-131035400D01*
X74962340Y-131035400D01*
X74934779Y-131032686D01*
X74914185Y-131026438D01*
X74895203Y-131016292D01*
X74878563Y-131002637D01*
X74864908Y-130985997D01*
X74854762Y-130967015D01*
X74848514Y-130946421D01*
X74845800Y-130918860D01*
X74845800Y-130460340D01*
X74848514Y-130432779D01*
X74854762Y-130412185D01*
X74864908Y-130393203D01*
X74878563Y-130376563D01*
X74895203Y-130362908D01*
X74914185Y-130352762D01*
X74934779Y-130346514D01*
X74962340Y-130343800D01*
X75470860Y-130343800D01*
X75498421Y-130346514D01*
X75498421Y-130346514D01*
G37*
G36*
X109692400Y-130825400D02*
X104590800Y-130825400D01*
X104590800Y-129223800D01*
X109692400Y-129223800D01*
X109692400Y-130825400D01*
X109692400Y-130825400D01*
G37*
G36*
X79392400Y-129700400D02*
X74290800Y-129700400D01*
X74290800Y-128098800D01*
X79392400Y-128098800D01*
X79392400Y-129700400D01*
X79392400Y-129700400D01*
G37*
G36*
X58362500Y-128890000D02*
X54260900Y-128890000D01*
X54260900Y-124788400D01*
X58362500Y-124788400D01*
X58362500Y-128890000D01*
X58362500Y-128890000D01*
G37*
G36*
X109692400Y-124925400D02*
X104590800Y-124925400D01*
X104590800Y-123323800D01*
X109692400Y-123323800D01*
X109692400Y-124925400D01*
X109692400Y-124925400D01*
G37*
G36*
X103391821Y-124076914D02*
X103412415Y-124083162D01*
X103431397Y-124093308D01*
X103448037Y-124106963D01*
X103461692Y-124123603D01*
X103471838Y-124142585D01*
X103478086Y-124163179D01*
X103480800Y-124190740D01*
X103480800Y-124649260D01*
X103478086Y-124676821D01*
X103471838Y-124697415D01*
X103461692Y-124716397D01*
X103448037Y-124733037D01*
X103431397Y-124746692D01*
X103412415Y-124756838D01*
X103391821Y-124763086D01*
X103364260Y-124765800D01*
X102855740Y-124765800D01*
X102828179Y-124763086D01*
X102807585Y-124756838D01*
X102788603Y-124746692D01*
X102771963Y-124733037D01*
X102758308Y-124716397D01*
X102748162Y-124697415D01*
X102741914Y-124676821D01*
X102739200Y-124649260D01*
X102739200Y-124190740D01*
X102741914Y-124163179D01*
X102748162Y-124142585D01*
X102758308Y-124123603D01*
X102771963Y-124106963D01*
X102788603Y-124093308D01*
X102807585Y-124083162D01*
X102828179Y-124076914D01*
X102855740Y-124074200D01*
X103364260Y-124074200D01*
X103391821Y-124076914D01*
X103391821Y-124076914D01*
G37*
G36*
X79392400Y-123800400D02*
X74290800Y-123800400D01*
X74290800Y-122198800D01*
X79392400Y-122198800D01*
X79392400Y-123800400D01*
X79392400Y-123800400D01*
G37*
G36*
X103391821Y-123106914D02*
X103412415Y-123113162D01*
X103431397Y-123123308D01*
X103448037Y-123136963D01*
X103461692Y-123153603D01*
X103471838Y-123172585D01*
X103478086Y-123193179D01*
X103480800Y-123220740D01*
X103480800Y-123679260D01*
X103478086Y-123706821D01*
X103471838Y-123727415D01*
X103461692Y-123746397D01*
X103448037Y-123763037D01*
X103431397Y-123776692D01*
X103412415Y-123786838D01*
X103391821Y-123793086D01*
X103364260Y-123795800D01*
X102855740Y-123795800D01*
X102828179Y-123793086D01*
X102807585Y-123786838D01*
X102788603Y-123776692D01*
X102771963Y-123763037D01*
X102758308Y-123746397D01*
X102748162Y-123727415D01*
X102741914Y-123706821D01*
X102739200Y-123679260D01*
X102739200Y-123220740D01*
X102741914Y-123193179D01*
X102748162Y-123172585D01*
X102758308Y-123153603D01*
X102771963Y-123136963D01*
X102788603Y-123123308D01*
X102807585Y-123113162D01*
X102828179Y-123106914D01*
X102855740Y-123104200D01*
X103364260Y-123104200D01*
X103391821Y-123106914D01*
X103391821Y-123106914D01*
G37*
G36*
X106468421Y-120421514D02*
X106489015Y-120427762D01*
X106507997Y-120437908D01*
X106524637Y-120451563D01*
X106538292Y-120468203D01*
X106548438Y-120487185D01*
X106554686Y-120507779D01*
X106557400Y-120535340D01*
X106557400Y-120993860D01*
X106554686Y-121021421D01*
X106548438Y-121042015D01*
X106538292Y-121060997D01*
X106524637Y-121077637D01*
X106507997Y-121091292D01*
X106489015Y-121101438D01*
X106468421Y-121107686D01*
X106440860Y-121110400D01*
X105932340Y-121110400D01*
X105904779Y-121107686D01*
X105884185Y-121101438D01*
X105865203Y-121091292D01*
X105848563Y-121077637D01*
X105834908Y-121060997D01*
X105824762Y-121042015D01*
X105818514Y-121021421D01*
X105815800Y-120993860D01*
X105815800Y-120535340D01*
X105818514Y-120507779D01*
X105824762Y-120487185D01*
X105834908Y-120468203D01*
X105848563Y-120451563D01*
X105865203Y-120437908D01*
X105884185Y-120427762D01*
X105904779Y-120421514D01*
X105932340Y-120418800D01*
X106440860Y-120418800D01*
X106468421Y-120421514D01*
X106468421Y-120421514D01*
G37*
G36*
X104361821Y-120301914D02*
X104382415Y-120308162D01*
X104401397Y-120318308D01*
X104418037Y-120331963D01*
X104431692Y-120348603D01*
X104441838Y-120367585D01*
X104448086Y-120388179D01*
X104450800Y-120415740D01*
X104450800Y-120874260D01*
X104448086Y-120901821D01*
X104441838Y-120922415D01*
X104431692Y-120941397D01*
X104418037Y-120958037D01*
X104401397Y-120971692D01*
X104382415Y-120981838D01*
X104361821Y-120988086D01*
X104334260Y-120990800D01*
X103825740Y-120990800D01*
X103798179Y-120988086D01*
X103777585Y-120981838D01*
X103758603Y-120971692D01*
X103741963Y-120958037D01*
X103728308Y-120941397D01*
X103718162Y-120922415D01*
X103711914Y-120901821D01*
X103709200Y-120874260D01*
X103709200Y-120415740D01*
X103711914Y-120388179D01*
X103718162Y-120367585D01*
X103728308Y-120348603D01*
X103741963Y-120331963D01*
X103758603Y-120318308D01*
X103777585Y-120308162D01*
X103798179Y-120301914D01*
X103825740Y-120299200D01*
X104334260Y-120299200D01*
X104361821Y-120301914D01*
X104361821Y-120301914D01*
G37*
G36*
X79981821Y-120226914D02*
X80002415Y-120233162D01*
X80021397Y-120243308D01*
X80038037Y-120256963D01*
X80051692Y-120273603D01*
X80061838Y-120292585D01*
X80068086Y-120313179D01*
X80070800Y-120340740D01*
X80070800Y-120799260D01*
X80068086Y-120826821D01*
X80061838Y-120847415D01*
X80051692Y-120866397D01*
X80038037Y-120883037D01*
X80021397Y-120896692D01*
X80002415Y-120906838D01*
X79981821Y-120913086D01*
X79954260Y-120915800D01*
X79445740Y-120915800D01*
X79418179Y-120913086D01*
X79397585Y-120906838D01*
X79378603Y-120896692D01*
X79361963Y-120883037D01*
X79348308Y-120866397D01*
X79338162Y-120847415D01*
X79331914Y-120826821D01*
X79329200Y-120799260D01*
X79329200Y-120340740D01*
X79331914Y-120313179D01*
X79338162Y-120292585D01*
X79348308Y-120273603D01*
X79361963Y-120256963D01*
X79378603Y-120243308D01*
X79397585Y-120233162D01*
X79418179Y-120226914D01*
X79445740Y-120224200D01*
X79954260Y-120224200D01*
X79981821Y-120226914D01*
X79981821Y-120226914D01*
G37*
G36*
X73841821Y-120211914D02*
X73862415Y-120218162D01*
X73881397Y-120228308D01*
X73898037Y-120241963D01*
X73911692Y-120258603D01*
X73921838Y-120277585D01*
X73928086Y-120298179D01*
X73930800Y-120325740D01*
X73930800Y-120784260D01*
X73928086Y-120811821D01*
X73921838Y-120832415D01*
X73911692Y-120851397D01*
X73898037Y-120868037D01*
X73881397Y-120881692D01*
X73862415Y-120891838D01*
X73841821Y-120898086D01*
X73814260Y-120900800D01*
X73305740Y-120900800D01*
X73278179Y-120898086D01*
X73257585Y-120891838D01*
X73238603Y-120881692D01*
X73221963Y-120868037D01*
X73208308Y-120851397D01*
X73198162Y-120832415D01*
X73191914Y-120811821D01*
X73189200Y-120784260D01*
X73189200Y-120325740D01*
X73191914Y-120298179D01*
X73198162Y-120277585D01*
X73208308Y-120258603D01*
X73221963Y-120241963D01*
X73238603Y-120228308D01*
X73257585Y-120218162D01*
X73278179Y-120211914D01*
X73305740Y-120209200D01*
X73814260Y-120209200D01*
X73841821Y-120211914D01*
X73841821Y-120211914D01*
G37*
G36*
X108121821Y-120201914D02*
X108142415Y-120208162D01*
X108161397Y-120218308D01*
X108178037Y-120231963D01*
X108191692Y-120248603D01*
X108201838Y-120267585D01*
X108208086Y-120288179D01*
X108210800Y-120315740D01*
X108210800Y-120774260D01*
X108208086Y-120801821D01*
X108201838Y-120822415D01*
X108191692Y-120841397D01*
X108178037Y-120858037D01*
X108161397Y-120871692D01*
X108142415Y-120881838D01*
X108121821Y-120888086D01*
X108094260Y-120890800D01*
X107585740Y-120890800D01*
X107558179Y-120888086D01*
X107537585Y-120881838D01*
X107518603Y-120871692D01*
X107501963Y-120858037D01*
X107488308Y-120841397D01*
X107478162Y-120822415D01*
X107471914Y-120801821D01*
X107469200Y-120774260D01*
X107469200Y-120315740D01*
X107471914Y-120288179D01*
X107478162Y-120267585D01*
X107488308Y-120248603D01*
X107501963Y-120231963D01*
X107518603Y-120218308D01*
X107537585Y-120208162D01*
X107558179Y-120201914D01*
X107585740Y-120199200D01*
X108094260Y-120199200D01*
X108121821Y-120201914D01*
X108121821Y-120201914D01*
G37*
G36*
X110861821Y-120186914D02*
X110882415Y-120193162D01*
X110901397Y-120203308D01*
X110918037Y-120216963D01*
X110931692Y-120233603D01*
X110941838Y-120252585D01*
X110948086Y-120273179D01*
X110950800Y-120300740D01*
X110950800Y-120759260D01*
X110948086Y-120786821D01*
X110941838Y-120807415D01*
X110931692Y-120826397D01*
X110918037Y-120843037D01*
X110901397Y-120856692D01*
X110882415Y-120866838D01*
X110861821Y-120873086D01*
X110834260Y-120875800D01*
X110325740Y-120875800D01*
X110298179Y-120873086D01*
X110277585Y-120866838D01*
X110258603Y-120856692D01*
X110241963Y-120843037D01*
X110228308Y-120826397D01*
X110218162Y-120807415D01*
X110211914Y-120786821D01*
X110209200Y-120759260D01*
X110209200Y-120300740D01*
X110211914Y-120273179D01*
X110218162Y-120252585D01*
X110228308Y-120233603D01*
X110241963Y-120216963D01*
X110258603Y-120203308D01*
X110277585Y-120193162D01*
X110298179Y-120186914D01*
X110325740Y-120184200D01*
X110834260Y-120184200D01*
X110861821Y-120186914D01*
X110861821Y-120186914D01*
G37*
G36*
X75971821Y-119611914D02*
X75992415Y-119618162D01*
X76011397Y-119628308D01*
X76028037Y-119641963D01*
X76041692Y-119658603D01*
X76051838Y-119677585D01*
X76058086Y-119698179D01*
X76060800Y-119725740D01*
X76060800Y-120184260D01*
X76058086Y-120211821D01*
X76051838Y-120232415D01*
X76041692Y-120251397D01*
X76028037Y-120268037D01*
X76011397Y-120281692D01*
X75992415Y-120291838D01*
X75971821Y-120298086D01*
X75944260Y-120300800D01*
X75435740Y-120300800D01*
X75408179Y-120298086D01*
X75387585Y-120291838D01*
X75368603Y-120281692D01*
X75351963Y-120268037D01*
X75338308Y-120251397D01*
X75328162Y-120232415D01*
X75321914Y-120211821D01*
X75319200Y-120184260D01*
X75319200Y-119725740D01*
X75321914Y-119698179D01*
X75328162Y-119677585D01*
X75338308Y-119658603D01*
X75351963Y-119641963D01*
X75368603Y-119628308D01*
X75387585Y-119618162D01*
X75408179Y-119611914D01*
X75435740Y-119609200D01*
X75944260Y-119609200D01*
X75971821Y-119611914D01*
X75971821Y-119611914D01*
G37*
G36*
X77671821Y-119586914D02*
X77692415Y-119593162D01*
X77711397Y-119603308D01*
X77728037Y-119616963D01*
X77741692Y-119633603D01*
X77751838Y-119652585D01*
X77758086Y-119673179D01*
X77760800Y-119700740D01*
X77760800Y-120159260D01*
X77758086Y-120186821D01*
X77751838Y-120207415D01*
X77741692Y-120226397D01*
X77728037Y-120243037D01*
X77711397Y-120256692D01*
X77692415Y-120266838D01*
X77671821Y-120273086D01*
X77644260Y-120275800D01*
X77135740Y-120275800D01*
X77108179Y-120273086D01*
X77087585Y-120266838D01*
X77068603Y-120256692D01*
X77051963Y-120243037D01*
X77038308Y-120226397D01*
X77028162Y-120207415D01*
X77021914Y-120186821D01*
X77019200Y-120159260D01*
X77019200Y-119700740D01*
X77021914Y-119673179D01*
X77028162Y-119652585D01*
X77038308Y-119633603D01*
X77051963Y-119616963D01*
X77068603Y-119603308D01*
X77087585Y-119593162D01*
X77108179Y-119586914D01*
X77135740Y-119584200D01*
X77644260Y-119584200D01*
X77671821Y-119586914D01*
X77671821Y-119586914D01*
G37*
G36*
X71897500Y-120185000D02*
X48005900Y-120185000D01*
X48005900Y-118633400D01*
X71897500Y-118633400D01*
X71897500Y-120185000D01*
X71897500Y-120185000D01*
G37*
G36*
X106468421Y-119451514D02*
X106489015Y-119457762D01*
X106507997Y-119467908D01*
X106524637Y-119481563D01*
X106538292Y-119498203D01*
X106548438Y-119517185D01*
X106554686Y-119537779D01*
X106557400Y-119565340D01*
X106557400Y-120023860D01*
X106554686Y-120051421D01*
X106548438Y-120072015D01*
X106538292Y-120090997D01*
X106524637Y-120107637D01*
X106507997Y-120121292D01*
X106489015Y-120131438D01*
X106468421Y-120137686D01*
X106440860Y-120140400D01*
X105932340Y-120140400D01*
X105904779Y-120137686D01*
X105884185Y-120131438D01*
X105865203Y-120121292D01*
X105848563Y-120107637D01*
X105834908Y-120090997D01*
X105824762Y-120072015D01*
X105818514Y-120051421D01*
X105815800Y-120023860D01*
X105815800Y-119565340D01*
X105818514Y-119537779D01*
X105824762Y-119517185D01*
X105834908Y-119498203D01*
X105848563Y-119481563D01*
X105865203Y-119467908D01*
X105884185Y-119457762D01*
X105904779Y-119451514D01*
X105932340Y-119448800D01*
X106440860Y-119448800D01*
X106468421Y-119451514D01*
X106468421Y-119451514D01*
G37*
G36*
X104361821Y-119331914D02*
X104382415Y-119338162D01*
X104401397Y-119348308D01*
X104418037Y-119361963D01*
X104431692Y-119378603D01*
X104441838Y-119397585D01*
X104448086Y-119418179D01*
X104450800Y-119445740D01*
X104450800Y-119904260D01*
X104448086Y-119931821D01*
X104441838Y-119952415D01*
X104431692Y-119971397D01*
X104418037Y-119988037D01*
X104401397Y-120001692D01*
X104382415Y-120011838D01*
X104361821Y-120018086D01*
X104334260Y-120020800D01*
X103825740Y-120020800D01*
X103798179Y-120018086D01*
X103777585Y-120011838D01*
X103758603Y-120001692D01*
X103741963Y-119988037D01*
X103728308Y-119971397D01*
X103718162Y-119952415D01*
X103711914Y-119931821D01*
X103709200Y-119904260D01*
X103709200Y-119445740D01*
X103711914Y-119418179D01*
X103718162Y-119397585D01*
X103728308Y-119378603D01*
X103741963Y-119361963D01*
X103758603Y-119348308D01*
X103777585Y-119338162D01*
X103798179Y-119331914D01*
X103825740Y-119329200D01*
X104334260Y-119329200D01*
X104361821Y-119331914D01*
X104361821Y-119331914D01*
G37*
G36*
X79981821Y-119256914D02*
X80002415Y-119263162D01*
X80021397Y-119273308D01*
X80038037Y-119286963D01*
X80051692Y-119303603D01*
X80061838Y-119322585D01*
X80068086Y-119343179D01*
X80070800Y-119370740D01*
X80070800Y-119829260D01*
X80068086Y-119856821D01*
X80061838Y-119877415D01*
X80051692Y-119896397D01*
X80038037Y-119913037D01*
X80021397Y-119926692D01*
X80002415Y-119936838D01*
X79981821Y-119943086D01*
X79954260Y-119945800D01*
X79445740Y-119945800D01*
X79418179Y-119943086D01*
X79397585Y-119936838D01*
X79378603Y-119926692D01*
X79361963Y-119913037D01*
X79348308Y-119896397D01*
X79338162Y-119877415D01*
X79331914Y-119856821D01*
X79329200Y-119829260D01*
X79329200Y-119370740D01*
X79331914Y-119343179D01*
X79338162Y-119322585D01*
X79348308Y-119303603D01*
X79361963Y-119286963D01*
X79378603Y-119273308D01*
X79397585Y-119263162D01*
X79418179Y-119256914D01*
X79445740Y-119254200D01*
X79954260Y-119254200D01*
X79981821Y-119256914D01*
X79981821Y-119256914D01*
G37*
G36*
X73841821Y-119241914D02*
X73862415Y-119248162D01*
X73881397Y-119258308D01*
X73898037Y-119271963D01*
X73911692Y-119288603D01*
X73921838Y-119307585D01*
X73928086Y-119328179D01*
X73930800Y-119355740D01*
X73930800Y-119814260D01*
X73928086Y-119841821D01*
X73921838Y-119862415D01*
X73911692Y-119881397D01*
X73898037Y-119898037D01*
X73881397Y-119911692D01*
X73862415Y-119921838D01*
X73841821Y-119928086D01*
X73814260Y-119930800D01*
X73305740Y-119930800D01*
X73278179Y-119928086D01*
X73257585Y-119921838D01*
X73238603Y-119911692D01*
X73221963Y-119898037D01*
X73208308Y-119881397D01*
X73198162Y-119862415D01*
X73191914Y-119841821D01*
X73189200Y-119814260D01*
X73189200Y-119355740D01*
X73191914Y-119328179D01*
X73198162Y-119307585D01*
X73208308Y-119288603D01*
X73221963Y-119271963D01*
X73238603Y-119258308D01*
X73257585Y-119248162D01*
X73278179Y-119241914D01*
X73305740Y-119239200D01*
X73814260Y-119239200D01*
X73841821Y-119241914D01*
X73841821Y-119241914D01*
G37*
G36*
X108121821Y-119231914D02*
X108142415Y-119238162D01*
X108161397Y-119248308D01*
X108178037Y-119261963D01*
X108191692Y-119278603D01*
X108201838Y-119297585D01*
X108208086Y-119318179D01*
X108210800Y-119345740D01*
X108210800Y-119804260D01*
X108208086Y-119831821D01*
X108201838Y-119852415D01*
X108191692Y-119871397D01*
X108178037Y-119888037D01*
X108161397Y-119901692D01*
X108142415Y-119911838D01*
X108121821Y-119918086D01*
X108094260Y-119920800D01*
X107585740Y-119920800D01*
X107558179Y-119918086D01*
X107537585Y-119911838D01*
X107518603Y-119901692D01*
X107501963Y-119888037D01*
X107488308Y-119871397D01*
X107478162Y-119852415D01*
X107471914Y-119831821D01*
X107469200Y-119804260D01*
X107469200Y-119345740D01*
X107471914Y-119318179D01*
X107478162Y-119297585D01*
X107488308Y-119278603D01*
X107501963Y-119261963D01*
X107518603Y-119248308D01*
X107537585Y-119238162D01*
X107558179Y-119231914D01*
X107585740Y-119229200D01*
X108094260Y-119229200D01*
X108121821Y-119231914D01*
X108121821Y-119231914D01*
G37*
G36*
X110861821Y-119216914D02*
X110882415Y-119223162D01*
X110901397Y-119233308D01*
X110918037Y-119246963D01*
X110931692Y-119263603D01*
X110941838Y-119282585D01*
X110948086Y-119303179D01*
X110950800Y-119330740D01*
X110950800Y-119789260D01*
X110948086Y-119816821D01*
X110941838Y-119837415D01*
X110931692Y-119856397D01*
X110918037Y-119873037D01*
X110901397Y-119886692D01*
X110882415Y-119896838D01*
X110861821Y-119903086D01*
X110834260Y-119905800D01*
X110325740Y-119905800D01*
X110298179Y-119903086D01*
X110277585Y-119896838D01*
X110258603Y-119886692D01*
X110241963Y-119873037D01*
X110228308Y-119856397D01*
X110218162Y-119837415D01*
X110211914Y-119816821D01*
X110209200Y-119789260D01*
X110209200Y-119330740D01*
X110211914Y-119303179D01*
X110218162Y-119282585D01*
X110228308Y-119263603D01*
X110241963Y-119246963D01*
X110258603Y-119233308D01*
X110277585Y-119223162D01*
X110298179Y-119216914D01*
X110325740Y-119214200D01*
X110834260Y-119214200D01*
X110861821Y-119216914D01*
X110861821Y-119216914D01*
G37*
G36*
X77671821Y-118616914D02*
X77692415Y-118623162D01*
X77711397Y-118633308D01*
X77728037Y-118646963D01*
X77741692Y-118663603D01*
X77751838Y-118682585D01*
X77758086Y-118703179D01*
X77760800Y-118730740D01*
X77760800Y-118915347D01*
X77763202Y-118939733D01*
X77770315Y-118963182D01*
X77781866Y-118984793D01*
X77797412Y-119003735D01*
X77816354Y-119019281D01*
X77837965Y-119030832D01*
X77861414Y-119037945D01*
X77885800Y-119040347D01*
X77910186Y-119037945D01*
X77933635Y-119030832D01*
X77955246Y-119019281D01*
X77974188Y-119003735D01*
X77989734Y-118984793D01*
X78001285Y-118963182D01*
X78005418Y-118951633D01*
X78008164Y-118942581D01*
X78018308Y-118923603D01*
X78031963Y-118906963D01*
X78048603Y-118893308D01*
X78067585Y-118883162D01*
X78088179Y-118876914D01*
X78115740Y-118874200D01*
X78624260Y-118874200D01*
X78651821Y-118876914D01*
X78672415Y-118883162D01*
X78691397Y-118893308D01*
X78708037Y-118906963D01*
X78721692Y-118923603D01*
X78731838Y-118942585D01*
X78738086Y-118963179D01*
X78740800Y-118990740D01*
X78740800Y-119449260D01*
X78738086Y-119476821D01*
X78731838Y-119497415D01*
X78721692Y-119516397D01*
X78708037Y-119533037D01*
X78691397Y-119546692D01*
X78672415Y-119556838D01*
X78651821Y-119563086D01*
X78624260Y-119565800D01*
X78115740Y-119565800D01*
X78088179Y-119563086D01*
X78067585Y-119556838D01*
X78048603Y-119546692D01*
X78031963Y-119533037D01*
X78018308Y-119516397D01*
X78008162Y-119497415D01*
X78001914Y-119476821D01*
X77999200Y-119449260D01*
X77999200Y-119264653D01*
X77996798Y-119240267D01*
X77989685Y-119216818D01*
X77978134Y-119195207D01*
X77962588Y-119176265D01*
X77943646Y-119160719D01*
X77922035Y-119149168D01*
X77898586Y-119142055D01*
X77874200Y-119139653D01*
X77849814Y-119142055D01*
X77826365Y-119149168D01*
X77804754Y-119160719D01*
X77785812Y-119176265D01*
X77770266Y-119195207D01*
X77758715Y-119216818D01*
X77754582Y-119228367D01*
X77751836Y-119237419D01*
X77741692Y-119256397D01*
X77728037Y-119273037D01*
X77711397Y-119286692D01*
X77692415Y-119296838D01*
X77671821Y-119303086D01*
X77644260Y-119305800D01*
X77135740Y-119305800D01*
X77108179Y-119303086D01*
X77087585Y-119296838D01*
X77068603Y-119286692D01*
X77051963Y-119273037D01*
X77038308Y-119256397D01*
X77028162Y-119237415D01*
X77021914Y-119216821D01*
X77019200Y-119189260D01*
X77019200Y-118730740D01*
X77021914Y-118703179D01*
X77028162Y-118682585D01*
X77038308Y-118663603D01*
X77051963Y-118646963D01*
X77068603Y-118633308D01*
X77087585Y-118623162D01*
X77108179Y-118616914D01*
X77135740Y-118614200D01*
X77644260Y-118614200D01*
X77671821Y-118616914D01*
X77671821Y-118616914D01*
G37*
G36*
X75971821Y-118641914D02*
X75992415Y-118648162D01*
X76011397Y-118658308D01*
X76028037Y-118671963D01*
X76041692Y-118688603D01*
X76051838Y-118707585D01*
X76058086Y-118728179D01*
X76060800Y-118755740D01*
X76060800Y-119214260D01*
X76058086Y-119241821D01*
X76051838Y-119262415D01*
X76041692Y-119281397D01*
X76028037Y-119298037D01*
X76011397Y-119311692D01*
X75992415Y-119321838D01*
X75971821Y-119328086D01*
X75944260Y-119330800D01*
X75435740Y-119330800D01*
X75408179Y-119328086D01*
X75387585Y-119321838D01*
X75368603Y-119311692D01*
X75351963Y-119298037D01*
X75338308Y-119281397D01*
X75328162Y-119262415D01*
X75321914Y-119241821D01*
X75319200Y-119214260D01*
X75319200Y-118755740D01*
X75321914Y-118728179D01*
X75328162Y-118707585D01*
X75338308Y-118688603D01*
X75351963Y-118671963D01*
X75368603Y-118658308D01*
X75387585Y-118648162D01*
X75408179Y-118641914D01*
X75435740Y-118639200D01*
X75944260Y-118639200D01*
X75971821Y-118641914D01*
X75971821Y-118641914D01*
G37*
G36*
X109271821Y-118451914D02*
X109292415Y-118458162D01*
X109311397Y-118468308D01*
X109328037Y-118481963D01*
X109341692Y-118498603D01*
X109351838Y-118517585D01*
X109358086Y-118538179D01*
X109360800Y-118565740D01*
X109360800Y-119024260D01*
X109358086Y-119051821D01*
X109351838Y-119072415D01*
X109341692Y-119091397D01*
X109328037Y-119108037D01*
X109311397Y-119121692D01*
X109292415Y-119131838D01*
X109271821Y-119138086D01*
X109244260Y-119140800D01*
X108735740Y-119140800D01*
X108708179Y-119138086D01*
X108687585Y-119131838D01*
X108668603Y-119121692D01*
X108651963Y-119108037D01*
X108638308Y-119091397D01*
X108628162Y-119072415D01*
X108621914Y-119051821D01*
X108619200Y-119024260D01*
X108619200Y-118565740D01*
X108621914Y-118538179D01*
X108628162Y-118517585D01*
X108638308Y-118498603D01*
X108651963Y-118481963D01*
X108668603Y-118468308D01*
X108687585Y-118458162D01*
X108708179Y-118451914D01*
X108735740Y-118449200D01*
X109244260Y-118449200D01*
X109271821Y-118451914D01*
X109271821Y-118451914D01*
G37*
G36*
X105201821Y-118426914D02*
X105222415Y-118433162D01*
X105241397Y-118443308D01*
X105258037Y-118456963D01*
X105271692Y-118473603D01*
X105281838Y-118492585D01*
X105288086Y-118513179D01*
X105290800Y-118540740D01*
X105290800Y-118999260D01*
X105288086Y-119026821D01*
X105281838Y-119047415D01*
X105271692Y-119066397D01*
X105258037Y-119083037D01*
X105241397Y-119096692D01*
X105222415Y-119106838D01*
X105201821Y-119113086D01*
X105174260Y-119115800D01*
X104665740Y-119115800D01*
X104638179Y-119113086D01*
X104617585Y-119106838D01*
X104598603Y-119096692D01*
X104581963Y-119083037D01*
X104568308Y-119066397D01*
X104558162Y-119047415D01*
X104551914Y-119026821D01*
X104549200Y-118999260D01*
X104549200Y-118540740D01*
X104551914Y-118513179D01*
X104558162Y-118492585D01*
X104568308Y-118473603D01*
X104581963Y-118456963D01*
X104598603Y-118443308D01*
X104617585Y-118433162D01*
X104638179Y-118426914D01*
X104665740Y-118424200D01*
X105174260Y-118424200D01*
X105201821Y-118426914D01*
X105201821Y-118426914D01*
G37*
G36*
X107098421Y-118276514D02*
X107119015Y-118282762D01*
X107137997Y-118292908D01*
X107154637Y-118306563D01*
X107168292Y-118323203D01*
X107178438Y-118342185D01*
X107184686Y-118362779D01*
X107187400Y-118390340D01*
X107187400Y-118848860D01*
X107184686Y-118876421D01*
X107178438Y-118897015D01*
X107168292Y-118915997D01*
X107154637Y-118932637D01*
X107137997Y-118946292D01*
X107119015Y-118956438D01*
X107098421Y-118962686D01*
X107070860Y-118965400D01*
X106562340Y-118965400D01*
X106534779Y-118962686D01*
X106514185Y-118956438D01*
X106495203Y-118946292D01*
X106478563Y-118932637D01*
X106464908Y-118915997D01*
X106454762Y-118897015D01*
X106448514Y-118876421D01*
X106445800Y-118848860D01*
X106445800Y-118390340D01*
X106448514Y-118362779D01*
X106454762Y-118342185D01*
X106464908Y-118323203D01*
X106478563Y-118306563D01*
X106495203Y-118292908D01*
X106514185Y-118282762D01*
X106534779Y-118276514D01*
X106562340Y-118273800D01*
X107070860Y-118273800D01*
X107098421Y-118276514D01*
X107098421Y-118276514D01*
G37*
G36*
X74991821Y-118041914D02*
X75012415Y-118048162D01*
X75031397Y-118058308D01*
X75048037Y-118071963D01*
X75061692Y-118088603D01*
X75071838Y-118107585D01*
X75078086Y-118128179D01*
X75080800Y-118155740D01*
X75080800Y-118614260D01*
X75078086Y-118641821D01*
X75071838Y-118662415D01*
X75061692Y-118681397D01*
X75048037Y-118698037D01*
X75031397Y-118711692D01*
X75012415Y-118721838D01*
X74991821Y-118728086D01*
X74964260Y-118730800D01*
X74455740Y-118730800D01*
X74428179Y-118728086D01*
X74407585Y-118721838D01*
X74388603Y-118711692D01*
X74371963Y-118698037D01*
X74358308Y-118681397D01*
X74348162Y-118662415D01*
X74341914Y-118641821D01*
X74339200Y-118614260D01*
X74339200Y-118155740D01*
X74341914Y-118128179D01*
X74348162Y-118107585D01*
X74358308Y-118088603D01*
X74371963Y-118071963D01*
X74388603Y-118058308D01*
X74407585Y-118048162D01*
X74428179Y-118041914D01*
X74455740Y-118039200D01*
X74964260Y-118039200D01*
X74991821Y-118041914D01*
X74991821Y-118041914D01*
G37*
G36*
X78651821Y-117906914D02*
X78672415Y-117913162D01*
X78691397Y-117923308D01*
X78708037Y-117936963D01*
X78721692Y-117953603D01*
X78731838Y-117972585D01*
X78738086Y-117993179D01*
X78740800Y-118020740D01*
X78740800Y-118479260D01*
X78738086Y-118506821D01*
X78731838Y-118527415D01*
X78721692Y-118546397D01*
X78708037Y-118563037D01*
X78691397Y-118576692D01*
X78672415Y-118586838D01*
X78651821Y-118593086D01*
X78624260Y-118595800D01*
X78115740Y-118595800D01*
X78088179Y-118593086D01*
X78067585Y-118586838D01*
X78048603Y-118576692D01*
X78031963Y-118563037D01*
X78018308Y-118546397D01*
X78008162Y-118527415D01*
X78001914Y-118506821D01*
X77999200Y-118479260D01*
X77999200Y-118020740D01*
X78001914Y-117993179D01*
X78008162Y-117972585D01*
X78018308Y-117953603D01*
X78031963Y-117936963D01*
X78048603Y-117923308D01*
X78067585Y-117913162D01*
X78088179Y-117906914D01*
X78115740Y-117904200D01*
X78624260Y-117904200D01*
X78651821Y-117906914D01*
X78651821Y-117906914D01*
G37*
G36*
X109271821Y-117481914D02*
X109292415Y-117488162D01*
X109311397Y-117498308D01*
X109328037Y-117511963D01*
X109341692Y-117528603D01*
X109351838Y-117547585D01*
X109358086Y-117568179D01*
X109360800Y-117595740D01*
X109360800Y-118054260D01*
X109358086Y-118081821D01*
X109351838Y-118102415D01*
X109341692Y-118121397D01*
X109328037Y-118138037D01*
X109311397Y-118151692D01*
X109292415Y-118161838D01*
X109271821Y-118168086D01*
X109244260Y-118170800D01*
X108735740Y-118170800D01*
X108708179Y-118168086D01*
X108687585Y-118161838D01*
X108668603Y-118151692D01*
X108651963Y-118138037D01*
X108638308Y-118121397D01*
X108628162Y-118102415D01*
X108621914Y-118081821D01*
X108619200Y-118054260D01*
X108619200Y-117595740D01*
X108621914Y-117568179D01*
X108628162Y-117547585D01*
X108638308Y-117528603D01*
X108651963Y-117511963D01*
X108668603Y-117498308D01*
X108687585Y-117488162D01*
X108708179Y-117481914D01*
X108735740Y-117479200D01*
X109244260Y-117479200D01*
X109271821Y-117481914D01*
X109271821Y-117481914D01*
G37*
G36*
X76798421Y-117481514D02*
X76819015Y-117487762D01*
X76837997Y-117497908D01*
X76854637Y-117511563D01*
X76868292Y-117528203D01*
X76878438Y-117547185D01*
X76884686Y-117567779D01*
X76887400Y-117595340D01*
X76887400Y-118053860D01*
X76884686Y-118081421D01*
X76878438Y-118102015D01*
X76868292Y-118120997D01*
X76854637Y-118137637D01*
X76837997Y-118151292D01*
X76819015Y-118161438D01*
X76798421Y-118167686D01*
X76770860Y-118170400D01*
X76262340Y-118170400D01*
X76234779Y-118167686D01*
X76214185Y-118161438D01*
X76195203Y-118151292D01*
X76178563Y-118137637D01*
X76164908Y-118120997D01*
X76154762Y-118102015D01*
X76148514Y-118081421D01*
X76145800Y-118053860D01*
X76145800Y-117595340D01*
X76148514Y-117567779D01*
X76154762Y-117547185D01*
X76164908Y-117528203D01*
X76178563Y-117511563D01*
X76195203Y-117497908D01*
X76214185Y-117487762D01*
X76234779Y-117481514D01*
X76262340Y-117478800D01*
X76770860Y-117478800D01*
X76798421Y-117481514D01*
X76798421Y-117481514D01*
G37*
G36*
X105201821Y-117456914D02*
X105222415Y-117463162D01*
X105241397Y-117473308D01*
X105258037Y-117486963D01*
X105271692Y-117503603D01*
X105281838Y-117522585D01*
X105288086Y-117543179D01*
X105290800Y-117570740D01*
X105290800Y-118029260D01*
X105288086Y-118056821D01*
X105281838Y-118077415D01*
X105271692Y-118096397D01*
X105258037Y-118113037D01*
X105241397Y-118126692D01*
X105222415Y-118136838D01*
X105201821Y-118143086D01*
X105174260Y-118145800D01*
X104665740Y-118145800D01*
X104638179Y-118143086D01*
X104617585Y-118136838D01*
X104598603Y-118126692D01*
X104581963Y-118113037D01*
X104568308Y-118096397D01*
X104558162Y-118077415D01*
X104551914Y-118056821D01*
X104549200Y-118029260D01*
X104549200Y-117570740D01*
X104551914Y-117543179D01*
X104558162Y-117522585D01*
X104568308Y-117503603D01*
X104581963Y-117486963D01*
X104598603Y-117473308D01*
X104617585Y-117463162D01*
X104638179Y-117456914D01*
X104665740Y-117454200D01*
X105174260Y-117454200D01*
X105201821Y-117456914D01*
X105201821Y-117456914D01*
G37*
G36*
X107098421Y-117306514D02*
X107119015Y-117312762D01*
X107137997Y-117322908D01*
X107154637Y-117336563D01*
X107168292Y-117353203D01*
X107178438Y-117372185D01*
X107184686Y-117392779D01*
X107187400Y-117420340D01*
X107187400Y-117878860D01*
X107184686Y-117906421D01*
X107178438Y-117927015D01*
X107168292Y-117945997D01*
X107154637Y-117962637D01*
X107137997Y-117976292D01*
X107119015Y-117986438D01*
X107098421Y-117992686D01*
X107070860Y-117995400D01*
X106562340Y-117995400D01*
X106534779Y-117992686D01*
X106514185Y-117986438D01*
X106495203Y-117976292D01*
X106478563Y-117962637D01*
X106464908Y-117945997D01*
X106454762Y-117927015D01*
X106448514Y-117906421D01*
X106445800Y-117878860D01*
X106445800Y-117420340D01*
X106448514Y-117392779D01*
X106454762Y-117372185D01*
X106464908Y-117353203D01*
X106478563Y-117336563D01*
X106495203Y-117322908D01*
X106514185Y-117312762D01*
X106534779Y-117306514D01*
X106562340Y-117303800D01*
X107070860Y-117303800D01*
X107098421Y-117306514D01*
X107098421Y-117306514D01*
G37*
G36*
X74991821Y-117071914D02*
X75012415Y-117078162D01*
X75031397Y-117088308D01*
X75048037Y-117101963D01*
X75061692Y-117118603D01*
X75071838Y-117137585D01*
X75078086Y-117158179D01*
X75080800Y-117185740D01*
X75080800Y-117644260D01*
X75078086Y-117671821D01*
X75071838Y-117692415D01*
X75061692Y-117711397D01*
X75048037Y-117728037D01*
X75031397Y-117741692D01*
X75012415Y-117751838D01*
X74991821Y-117758086D01*
X74964260Y-117760800D01*
X74455740Y-117760800D01*
X74428179Y-117758086D01*
X74407585Y-117751838D01*
X74388603Y-117741692D01*
X74371963Y-117728037D01*
X74358308Y-117711397D01*
X74348162Y-117692415D01*
X74341914Y-117671821D01*
X74339200Y-117644260D01*
X74339200Y-117185740D01*
X74341914Y-117158179D01*
X74348162Y-117137585D01*
X74358308Y-117118603D01*
X74371963Y-117101963D01*
X74388603Y-117088308D01*
X74407585Y-117078162D01*
X74428179Y-117071914D01*
X74455740Y-117069200D01*
X74964260Y-117069200D01*
X74991821Y-117071914D01*
X74991821Y-117071914D01*
G37*
G36*
X76798421Y-116511514D02*
X76819015Y-116517762D01*
X76837997Y-116527908D01*
X76854637Y-116541563D01*
X76868292Y-116558203D01*
X76878438Y-116577185D01*
X76884686Y-116597779D01*
X76887400Y-116625340D01*
X76887400Y-117083860D01*
X76884686Y-117111421D01*
X76878438Y-117132015D01*
X76868292Y-117150997D01*
X76854637Y-117167637D01*
X76837997Y-117181292D01*
X76819015Y-117191438D01*
X76798421Y-117197686D01*
X76770860Y-117200400D01*
X76262340Y-117200400D01*
X76234779Y-117197686D01*
X76214185Y-117191438D01*
X76195203Y-117181292D01*
X76178563Y-117167637D01*
X76164908Y-117150997D01*
X76154762Y-117132015D01*
X76148514Y-117111421D01*
X76145800Y-117083860D01*
X76145800Y-116625340D01*
X76148514Y-116597779D01*
X76154762Y-116577185D01*
X76164908Y-116558203D01*
X76178563Y-116541563D01*
X76195203Y-116527908D01*
X76214185Y-116517762D01*
X76234779Y-116511514D01*
X76262340Y-116508800D01*
X76770860Y-116508800D01*
X76798421Y-116511514D01*
X76798421Y-116511514D01*
G37*
G36*
X55005421Y-116129014D02*
X55026015Y-116135262D01*
X55044997Y-116145408D01*
X55061637Y-116159063D01*
X55075292Y-116175703D01*
X55085438Y-116194685D01*
X55091686Y-116215279D01*
X55094400Y-116242840D01*
X55094400Y-116751360D01*
X55091686Y-116778921D01*
X55085438Y-116799515D01*
X55075292Y-116818497D01*
X55061637Y-116835137D01*
X55044997Y-116848792D01*
X55026015Y-116858938D01*
X55005421Y-116865186D01*
X54977860Y-116867900D01*
X54519340Y-116867900D01*
X54491779Y-116865186D01*
X54471185Y-116858938D01*
X54452203Y-116848792D01*
X54435563Y-116835137D01*
X54421908Y-116818497D01*
X54411762Y-116799515D01*
X54405514Y-116778921D01*
X54402800Y-116751360D01*
X54402800Y-116242840D01*
X54405514Y-116215279D01*
X54411762Y-116194685D01*
X54421908Y-116175703D01*
X54435563Y-116159063D01*
X54452203Y-116145408D01*
X54471185Y-116135262D01*
X54491779Y-116129014D01*
X54519340Y-116126300D01*
X54977860Y-116126300D01*
X55005421Y-116129014D01*
X55005421Y-116129014D01*
G37*
G36*
X55975421Y-116129014D02*
X55996015Y-116135262D01*
X56014997Y-116145408D01*
X56031637Y-116159063D01*
X56045292Y-116175703D01*
X56055438Y-116194685D01*
X56061686Y-116215279D01*
X56064400Y-116242840D01*
X56064400Y-116751360D01*
X56061686Y-116778921D01*
X56055438Y-116799515D01*
X56045292Y-116818497D01*
X56031637Y-116835137D01*
X56014997Y-116848792D01*
X55996015Y-116858938D01*
X55975421Y-116865186D01*
X55947860Y-116867900D01*
X55489340Y-116867900D01*
X55461779Y-116865186D01*
X55441185Y-116858938D01*
X55422203Y-116848792D01*
X55405563Y-116835137D01*
X55391908Y-116818497D01*
X55381762Y-116799515D01*
X55375514Y-116778921D01*
X55372800Y-116751360D01*
X55372800Y-116242840D01*
X55375514Y-116215279D01*
X55381762Y-116194685D01*
X55391908Y-116175703D01*
X55405563Y-116159063D01*
X55422203Y-116145408D01*
X55441185Y-116135262D01*
X55461779Y-116129014D01*
X55489340Y-116126300D01*
X55947860Y-116126300D01*
X55975421Y-116129014D01*
X55975421Y-116129014D01*
G37*
M02*
