M48
;DRILL file {KiCad (5.0.1)-4} date 1/24/2019 5:24:10 PM
;FORMAT={-:-/ absolute / inch / decimal}
FMAT,2
INCH,TZ
T1C0.0157
%
G90
G05
M72
T1
X1.729Y-6.099
X1.7991Y-6.0171
X1.806Y-6.6175
X1.8209Y-5.7799
X1.8615Y-6.32
X1.8629Y-6.2766
X1.8657Y-6.1953
X1.873Y-6.4395
X1.8759Y-6.6049
X1.9034Y-6.134
X1.9452Y-6.5421
X1.9902Y-6.4665
X1.9955Y-6.3815
X2.0343Y-6.424
X2.0381Y-4.8523
X2.082Y-4.8455
X2.1035Y-5.8862
X2.121Y-6.382
X2.1296Y-4.4144
X2.1445Y-6.1275
X2.1542Y-5.8947
X2.2366Y-4.4146
X2.2388Y-6.5403
X2.2488Y-4.1516
X2.2518Y-6.2514
X2.2759Y-4.8674
X2.2776Y-4.7732
X2.2969Y-5.6358
X2.339Y-5.6053
X2.3554Y-6.2439
X2.3599Y-6.5876
X2.4223Y-6.1573
X2.4736Y-4.774
X2.4898Y-4.5173
X2.5566Y-4.8214
X2.5601Y-5.512
X2.5681Y-4.5354
X2.6001Y-4.9399
X2.6217Y-4.4662
X2.635Y-4.0291
X2.6602Y-4.1917
X2.6614Y-5.5307
X2.6635Y-6.561
X2.6677Y-4.5933
X2.669Y-6.4355
X2.6915Y-6.5215
X2.6953Y-4.0303
X2.8003Y-5.0557
X2.8264Y-4.9271
X2.8766Y-4.5927
X2.8814Y-5.1718
X2.895Y-6.424
X2.9043Y-4.1575
X2.9091Y-5.5015
X2.9433Y-4.4201
X2.9469Y-4.5181
X2.9475Y-5.0057
X3.0563Y-4.2933
X3.0646Y-5.1555
X3.0717Y-4.5579
X3.0744Y-4.5102
X3.1091Y-4.6205
X3.1394Y-4.5354
X3.1424Y-4.664
X3.1456Y-5.2338
X3.1749Y-4.6102
X3.2646Y-4.4691
X3.2657Y-3.9898
X3.2936Y-4.4943
X3.315Y-3.9882
X3.4633Y-4.7234
X3.479Y-4.6077
X3.7392Y-4.6453
X3.9026Y-4.6947
X3.9881Y-4.6848
X4.0321Y-4.7872
X4.0366Y-5.1494
X4.0697Y-4.6134
X4.0773Y-5.1568
X4.0802Y-4.8277
X4.1433Y-4.5626
X4.1516Y-5.1925
X4.1699Y-5.0531
X4.1756Y-4.3469
X4.2043Y-4.5358
X4.2089Y-4.3221
X4.2404Y-4.5071
X4.2433Y-5.0567
X4.2744Y-4.4854
X4.2835Y-4.9752
X4.2902Y-4.5425
X4.3224Y-4.622
X4.3472Y-4.6657
X4.605Y-4.5197
X4.6247Y-4.6319
X4.6837Y-4.5059
X4.7441Y-6.1173
T0
M30
