G04 #@! TF.GenerationSoftware,KiCad,Pcbnew,(5.0.1)-4*
G04 #@! TF.CreationDate,2019-01-24T17:24:16-05:00*
G04 #@! TF.ProjectId,GSRT Badge,475352542042616467652E6B69636164,rev?*
G04 #@! TF.SameCoordinates,Original*
G04 #@! TF.FileFunction,Legend,Bot*
G04 #@! TF.FilePolarity,Positive*
%FSLAX46Y46*%
G04 Gerber Fmt 4.6, Leading zero omitted, Abs format (unit mm)*
G04 Created by KiCad (PCBNEW (5.0.1)-4) date 1/24/2019 5:24:16 PM*
%MOMM*%
%LPD*%
G01*
G04 APERTURE LIST*
%ADD10C,0.200000*%
%ADD11C,0.120000*%
%ADD12C,0.100000*%
%ADD13C,0.150000*%
%ADD14C,0.304800*%
%ADD15C,0.127000*%
%ADD16C,0.125000*%
%ADD17C,0.050000*%
G04 APERTURE END LIST*
D10*
X104385089Y-123074600D02*
G75*
G03X104385089Y-123074600I-98489J0D01*
G01*
X74531739Y-124199600D02*
G75*
G03X74531739Y-124199600I-90139J0D01*
G01*
X53498287Y-161508440D02*
G75*
G03X53498287Y-161508440I-36367J0D01*
G01*
X51915272Y-168783000D02*
G75*
G03X51915272Y-168783000I-137372J0D01*
G01*
X54775100Y-151714200D02*
G75*
G03X54775100Y-151714200I-127000J0D01*
G01*
X47123731Y-164134800D02*
G75*
G03X47123731Y-164134800I-159131J0D01*
G01*
X46130155Y-163182300D02*
G75*
G03X46130155Y-163182300I-130755J0D01*
G01*
X41799684Y-151066500D02*
G75*
G03X41799684Y-151066500I-143684J0D01*
G01*
X69268208Y-167360600D02*
G75*
G03X69268208Y-167360600I-269108J0D01*
G01*
X59533306Y-157187900D02*
G75*
G03X59533306Y-157187900I-148106J0D01*
G01*
X53652420Y-161493200D02*
G75*
G03X53652420Y-161493200I-190500J0D01*
G01*
D11*
G04 #@! TO.C,J2*
X64214700Y-167286400D02*
X64214700Y-163856400D01*
X59744700Y-162586400D02*
X59744700Y-164386400D01*
X61344700Y-162586400D02*
X59744700Y-162586400D01*
X59744700Y-166756400D02*
X58804700Y-166756400D01*
X59744700Y-168556400D02*
X59744700Y-166756400D01*
X61344700Y-168556400D02*
X59744700Y-168556400D01*
G04 #@! TO.C,C1*
X48496760Y-149393627D02*
X48496760Y-149051093D01*
X49516760Y-149393627D02*
X49516760Y-149051093D01*
G04 #@! TO.C,C2*
X42918533Y-143842200D02*
X43261067Y-143842200D01*
X42918533Y-142822200D02*
X43261067Y-142822200D01*
G04 #@! TO.C,C3*
X49699640Y-163981213D02*
X49699640Y-164323747D01*
X48679640Y-163981213D02*
X48679640Y-164323747D01*
G04 #@! TO.C,C4*
X50929000Y-149397567D02*
X50929000Y-149055033D01*
X49909000Y-149397567D02*
X49909000Y-149055033D01*
G04 #@! TO.C,C5*
X75928067Y-162689000D02*
X75585533Y-162689000D01*
X75928067Y-161669000D02*
X75585533Y-161669000D01*
G04 #@! TO.C,C6*
X70313367Y-161642300D02*
X69970833Y-161642300D01*
X70313367Y-162662300D02*
X69970833Y-162662300D01*
D12*
G04 #@! TO.C,D2*
X50949400Y-167462200D02*
G75*
G03X50949400Y-167462200I-50000J0D01*
G01*
D11*
G04 #@! TO.C,C7*
X107520333Y-135434600D02*
X107862867Y-135434600D01*
X107520333Y-134414600D02*
X107862867Y-134414600D01*
D13*
G04 #@! TO.C,U7*
X104341600Y-123299600D02*
X104341600Y-129274600D01*
X109866600Y-124874600D02*
X109866600Y-129274600D01*
G04 #@! TO.C,U6*
X79566600Y-123749600D02*
X79566600Y-128149600D01*
X74041600Y-122174600D02*
X74041600Y-128149600D01*
D14*
G04 #@! TO.C,U1*
X48493500Y-118119200D02*
G75*
G03X48493500Y-118119200I-111800J0D01*
G01*
D15*
X72331700Y-119219200D02*
X72481700Y-119219200D01*
X72481700Y-137219200D02*
X72281700Y-137219200D01*
X72481700Y-119219200D02*
X72481700Y-137219200D01*
X41081700Y-137219200D02*
X47831700Y-137219200D01*
X41081700Y-119219200D02*
X41081700Y-137219200D01*
X47831700Y-119219200D02*
X41081700Y-119219200D01*
D11*
G04 #@! TO.C,D1*
X51825600Y-168627300D02*
X55725600Y-168627300D01*
X51825600Y-166627300D02*
X55725600Y-166627300D01*
X51825600Y-168627300D02*
X51825600Y-166627300D01*
G04 #@! TO.C,J1*
X40732400Y-164071300D02*
X40992400Y-164071300D01*
X43272400Y-164071300D02*
X45042400Y-164071300D01*
X45042400Y-164071300D02*
X45042400Y-163691300D01*
X45042400Y-156451300D02*
X43272400Y-156451300D01*
X40992400Y-156451300D02*
X40732400Y-156451300D01*
X45042400Y-156451300D02*
X45042400Y-156831300D01*
G04 #@! TO.C,U2*
X54332400Y-160219900D02*
X54332400Y-160694900D01*
X50112400Y-156474900D02*
X50587400Y-156474900D01*
X50112400Y-156949900D02*
X50112400Y-156474900D01*
X50112400Y-160694900D02*
X50587400Y-160694900D01*
X50112400Y-160219900D02*
X50112400Y-160694900D01*
X54332400Y-156474900D02*
X53857400Y-156474900D01*
X54332400Y-156949900D02*
X54332400Y-156474900D01*
G04 #@! TO.C,Q1*
X51728800Y-151767900D02*
X54178800Y-151767900D01*
X53528800Y-154987900D02*
X51728800Y-154987900D01*
G04 #@! TO.C,Q2*
X59242600Y-154116200D02*
X59242600Y-156566200D01*
X56022600Y-155916200D02*
X56022600Y-154116200D01*
G04 #@! TO.C,U4*
X44723900Y-150723200D02*
X42273900Y-150723200D01*
X42923900Y-147503200D02*
X44723900Y-147503200D01*
G04 #@! TO.C,U5*
X72328600Y-167207800D02*
X69878600Y-167207800D01*
X70528600Y-163987800D02*
X72328600Y-163987800D01*
G04 #@! TO.C,U3*
X43968000Y-167426800D02*
X45428000Y-167426800D01*
X43968000Y-164266800D02*
X47128000Y-164266800D01*
X43968000Y-164266800D02*
X43968000Y-165196800D01*
X43968000Y-167426800D02*
X43968000Y-166496800D01*
G04 #@! TO.C,R24*
D16*
X109301190Y-116383571D02*
X109063095Y-116216904D01*
X109301190Y-116097857D02*
X108801190Y-116097857D01*
X108801190Y-116288333D01*
X108825000Y-116335952D01*
X108848809Y-116359761D01*
X108896428Y-116383571D01*
X108967857Y-116383571D01*
X109015476Y-116359761D01*
X109039285Y-116335952D01*
X109063095Y-116288333D01*
X109063095Y-116097857D01*
X108848809Y-116574047D02*
X108825000Y-116597857D01*
X108801190Y-116645476D01*
X108801190Y-116764523D01*
X108825000Y-116812142D01*
X108848809Y-116835952D01*
X108896428Y-116859761D01*
X108944047Y-116859761D01*
X109015476Y-116835952D01*
X109301190Y-116550238D01*
X109301190Y-116859761D01*
X108967857Y-117288333D02*
X109301190Y-117288333D01*
X108777380Y-117169285D02*
X109134523Y-117050238D01*
X109134523Y-117359761D01*
G04 #@! TO.C,J2*
D13*
X62258533Y-160716980D02*
X62258533Y-161431266D01*
X62306152Y-161574123D01*
X62401390Y-161669361D01*
X62544247Y-161716980D01*
X62639485Y-161716980D01*
X61829961Y-160812219D02*
X61782342Y-160764600D01*
X61687104Y-160716980D01*
X61449009Y-160716980D01*
X61353771Y-160764600D01*
X61306152Y-160812219D01*
X61258533Y-160907457D01*
X61258533Y-161002695D01*
X61306152Y-161145552D01*
X61877580Y-161716980D01*
X61258533Y-161716980D01*
G04 #@! TO.C,R21*
D16*
X106422790Y-121673171D02*
X106184695Y-121506504D01*
X106422790Y-121387457D02*
X105922790Y-121387457D01*
X105922790Y-121577933D01*
X105946600Y-121625552D01*
X105970409Y-121649361D01*
X106018028Y-121673171D01*
X106089457Y-121673171D01*
X106137076Y-121649361D01*
X106160885Y-121625552D01*
X106184695Y-121577933D01*
X106184695Y-121387457D01*
X105970409Y-121863647D02*
X105946600Y-121887457D01*
X105922790Y-121935076D01*
X105922790Y-122054123D01*
X105946600Y-122101742D01*
X105970409Y-122125552D01*
X106018028Y-122149361D01*
X106065647Y-122149361D01*
X106137076Y-122125552D01*
X106422790Y-121839838D01*
X106422790Y-122149361D01*
X106422790Y-122625552D02*
X106422790Y-122339838D01*
X106422790Y-122482695D02*
X105922790Y-122482695D01*
X105994219Y-122435076D01*
X106041838Y-122387457D01*
X106065647Y-122339838D01*
G04 #@! TO.C,C1*
X48015171Y-150371266D02*
X48038980Y-150347457D01*
X48062790Y-150276028D01*
X48062790Y-150228409D01*
X48038980Y-150156980D01*
X47991361Y-150109361D01*
X47943742Y-150085552D01*
X47848504Y-150061742D01*
X47777076Y-150061742D01*
X47681838Y-150085552D01*
X47634219Y-150109361D01*
X47586600Y-150156980D01*
X47562790Y-150228409D01*
X47562790Y-150276028D01*
X47586600Y-150347457D01*
X47610409Y-150371266D01*
X48062790Y-150847457D02*
X48062790Y-150561742D01*
X48062790Y-150704600D02*
X47562790Y-150704600D01*
X47634219Y-150656980D01*
X47681838Y-150609361D01*
X47705647Y-150561742D01*
G04 #@! TO.C,C2*
X44409933Y-144653171D02*
X44433742Y-144676980D01*
X44505171Y-144700790D01*
X44552790Y-144700790D01*
X44624219Y-144676980D01*
X44671838Y-144629361D01*
X44695647Y-144581742D01*
X44719457Y-144486504D01*
X44719457Y-144415076D01*
X44695647Y-144319838D01*
X44671838Y-144272219D01*
X44624219Y-144224600D01*
X44552790Y-144200790D01*
X44505171Y-144200790D01*
X44433742Y-144224600D01*
X44409933Y-144248409D01*
X44219457Y-144248409D02*
X44195647Y-144224600D01*
X44148028Y-144200790D01*
X44028980Y-144200790D01*
X43981361Y-144224600D01*
X43957552Y-144248409D01*
X43933742Y-144296028D01*
X43933742Y-144343647D01*
X43957552Y-144415076D01*
X44243266Y-144700790D01*
X43933742Y-144700790D01*
G04 #@! TO.C,C3*
X50535171Y-162911266D02*
X50558980Y-162887457D01*
X50582790Y-162816028D01*
X50582790Y-162768409D01*
X50558980Y-162696980D01*
X50511361Y-162649361D01*
X50463742Y-162625552D01*
X50368504Y-162601742D01*
X50297076Y-162601742D01*
X50201838Y-162625552D01*
X50154219Y-162649361D01*
X50106600Y-162696980D01*
X50082790Y-162768409D01*
X50082790Y-162816028D01*
X50106600Y-162887457D01*
X50130409Y-162911266D01*
X50082790Y-163077933D02*
X50082790Y-163387457D01*
X50273266Y-163220790D01*
X50273266Y-163292219D01*
X50297076Y-163339838D01*
X50320885Y-163363647D01*
X50368504Y-163387457D01*
X50487552Y-163387457D01*
X50535171Y-163363647D01*
X50558980Y-163339838D01*
X50582790Y-163292219D01*
X50582790Y-163149361D01*
X50558980Y-163101742D01*
X50535171Y-163077933D01*
G04 #@! TO.C,C4*
X51795171Y-147961266D02*
X51818980Y-147937457D01*
X51842790Y-147866028D01*
X51842790Y-147818409D01*
X51818980Y-147746980D01*
X51771361Y-147699361D01*
X51723742Y-147675552D01*
X51628504Y-147651742D01*
X51557076Y-147651742D01*
X51461838Y-147675552D01*
X51414219Y-147699361D01*
X51366600Y-147746980D01*
X51342790Y-147818409D01*
X51342790Y-147866028D01*
X51366600Y-147937457D01*
X51390409Y-147961266D01*
X51509457Y-148389838D02*
X51842790Y-148389838D01*
X51318980Y-148270790D02*
X51676123Y-148151742D01*
X51676123Y-148461266D01*
G04 #@! TO.C,C5*
D13*
X75923466Y-161106142D02*
X75971085Y-161153761D01*
X76113942Y-161201380D01*
X76209180Y-161201380D01*
X76352038Y-161153761D01*
X76447276Y-161058523D01*
X76494895Y-160963285D01*
X76542514Y-160772809D01*
X76542514Y-160629952D01*
X76494895Y-160439476D01*
X76447276Y-160344238D01*
X76352038Y-160249000D01*
X76209180Y-160201380D01*
X76113942Y-160201380D01*
X75971085Y-160249000D01*
X75923466Y-160296619D01*
X75018704Y-160201380D02*
X75494895Y-160201380D01*
X75542514Y-160677571D01*
X75494895Y-160629952D01*
X75399657Y-160582333D01*
X75161561Y-160582333D01*
X75066323Y-160629952D01*
X75018704Y-160677571D01*
X74971085Y-160772809D01*
X74971085Y-161010904D01*
X75018704Y-161106142D01*
X75066323Y-161153761D01*
X75161561Y-161201380D01*
X75399657Y-161201380D01*
X75494895Y-161153761D01*
X75542514Y-161106142D01*
G04 #@! TO.C,C6*
X69103266Y-161061742D02*
X69150885Y-161109361D01*
X69293742Y-161156980D01*
X69388980Y-161156980D01*
X69531838Y-161109361D01*
X69627076Y-161014123D01*
X69674695Y-160918885D01*
X69722314Y-160728409D01*
X69722314Y-160585552D01*
X69674695Y-160395076D01*
X69627076Y-160299838D01*
X69531838Y-160204600D01*
X69388980Y-160156980D01*
X69293742Y-160156980D01*
X69150885Y-160204600D01*
X69103266Y-160252219D01*
X68246123Y-160156980D02*
X68436600Y-160156980D01*
X68531838Y-160204600D01*
X68579457Y-160252219D01*
X68674695Y-160395076D01*
X68722314Y-160585552D01*
X68722314Y-160966504D01*
X68674695Y-161061742D01*
X68627076Y-161109361D01*
X68531838Y-161156980D01*
X68341361Y-161156980D01*
X68246123Y-161109361D01*
X68198504Y-161061742D01*
X68150885Y-160966504D01*
X68150885Y-160728409D01*
X68198504Y-160633171D01*
X68246123Y-160585552D01*
X68341361Y-160537933D01*
X68531838Y-160537933D01*
X68627076Y-160585552D01*
X68674695Y-160633171D01*
X68722314Y-160728409D01*
G04 #@! TO.C,D2*
D16*
X50245647Y-166870790D02*
X50245647Y-166370790D01*
X50126600Y-166370790D01*
X50055171Y-166394600D01*
X50007552Y-166442219D01*
X49983742Y-166489838D01*
X49959933Y-166585076D01*
X49959933Y-166656504D01*
X49983742Y-166751742D01*
X50007552Y-166799361D01*
X50055171Y-166846980D01*
X50126600Y-166870790D01*
X50245647Y-166870790D01*
X49769457Y-166418409D02*
X49745647Y-166394600D01*
X49698028Y-166370790D01*
X49578980Y-166370790D01*
X49531361Y-166394600D01*
X49507552Y-166418409D01*
X49483742Y-166466028D01*
X49483742Y-166513647D01*
X49507552Y-166585076D01*
X49793266Y-166870790D01*
X49483742Y-166870790D01*
G04 #@! TO.C,R15*
X77606190Y-120868571D02*
X77368095Y-120701904D01*
X77606190Y-120582857D02*
X77106190Y-120582857D01*
X77106190Y-120773333D01*
X77130000Y-120820952D01*
X77153809Y-120844761D01*
X77201428Y-120868571D01*
X77272857Y-120868571D01*
X77320476Y-120844761D01*
X77344285Y-120820952D01*
X77368095Y-120773333D01*
X77368095Y-120582857D01*
X77606190Y-121344761D02*
X77606190Y-121059047D01*
X77606190Y-121201904D02*
X77106190Y-121201904D01*
X77177619Y-121154285D01*
X77225238Y-121106666D01*
X77249047Y-121059047D01*
X77106190Y-121797142D02*
X77106190Y-121559047D01*
X77344285Y-121535238D01*
X77320476Y-121559047D01*
X77296666Y-121606666D01*
X77296666Y-121725714D01*
X77320476Y-121773333D01*
X77344285Y-121797142D01*
X77391904Y-121820952D01*
X77510952Y-121820952D01*
X77558571Y-121797142D01*
X77582380Y-121773333D01*
X77606190Y-121725714D01*
X77606190Y-121606666D01*
X77582380Y-121559047D01*
X77558571Y-121535238D01*
G04 #@! TO.C,R17*
X79926190Y-121493571D02*
X79688095Y-121326904D01*
X79926190Y-121207857D02*
X79426190Y-121207857D01*
X79426190Y-121398333D01*
X79450000Y-121445952D01*
X79473809Y-121469761D01*
X79521428Y-121493571D01*
X79592857Y-121493571D01*
X79640476Y-121469761D01*
X79664285Y-121445952D01*
X79688095Y-121398333D01*
X79688095Y-121207857D01*
X79926190Y-121969761D02*
X79926190Y-121684047D01*
X79926190Y-121826904D02*
X79426190Y-121826904D01*
X79497619Y-121779285D01*
X79545238Y-121731666D01*
X79569047Y-121684047D01*
X79426190Y-122136428D02*
X79426190Y-122469761D01*
X79926190Y-122255476D01*
G04 #@! TO.C,R18*
X102336190Y-123418571D02*
X102098095Y-123251904D01*
X102336190Y-123132857D02*
X101836190Y-123132857D01*
X101836190Y-123323333D01*
X101860000Y-123370952D01*
X101883809Y-123394761D01*
X101931428Y-123418571D01*
X102002857Y-123418571D01*
X102050476Y-123394761D01*
X102074285Y-123370952D01*
X102098095Y-123323333D01*
X102098095Y-123132857D01*
X102336190Y-123894761D02*
X102336190Y-123609047D01*
X102336190Y-123751904D02*
X101836190Y-123751904D01*
X101907619Y-123704285D01*
X101955238Y-123656666D01*
X101979047Y-123609047D01*
X102050476Y-124180476D02*
X102026666Y-124132857D01*
X102002857Y-124109047D01*
X101955238Y-124085238D01*
X101931428Y-124085238D01*
X101883809Y-124109047D01*
X101860000Y-124132857D01*
X101836190Y-124180476D01*
X101836190Y-124275714D01*
X101860000Y-124323333D01*
X101883809Y-124347142D01*
X101931428Y-124370952D01*
X101955238Y-124370952D01*
X102002857Y-124347142D01*
X102026666Y-124323333D01*
X102050476Y-124275714D01*
X102050476Y-124180476D01*
X102074285Y-124132857D01*
X102098095Y-124109047D01*
X102145714Y-124085238D01*
X102240952Y-124085238D01*
X102288571Y-124109047D01*
X102312380Y-124132857D01*
X102336190Y-124180476D01*
X102336190Y-124275714D01*
X102312380Y-124323333D01*
X102288571Y-124347142D01*
X102240952Y-124370952D01*
X102145714Y-124370952D01*
X102098095Y-124347142D01*
X102074285Y-124323333D01*
X102050476Y-124275714D01*
G04 #@! TO.C,R19*
X104296190Y-121718571D02*
X104058095Y-121551904D01*
X104296190Y-121432857D02*
X103796190Y-121432857D01*
X103796190Y-121623333D01*
X103820000Y-121670952D01*
X103843809Y-121694761D01*
X103891428Y-121718571D01*
X103962857Y-121718571D01*
X104010476Y-121694761D01*
X104034285Y-121670952D01*
X104058095Y-121623333D01*
X104058095Y-121432857D01*
X104296190Y-122194761D02*
X104296190Y-121909047D01*
X104296190Y-122051904D02*
X103796190Y-122051904D01*
X103867619Y-122004285D01*
X103915238Y-121956666D01*
X103939047Y-121909047D01*
X104296190Y-122432857D02*
X104296190Y-122528095D01*
X104272380Y-122575714D01*
X104248571Y-122599523D01*
X104177142Y-122647142D01*
X104081904Y-122670952D01*
X103891428Y-122670952D01*
X103843809Y-122647142D01*
X103820000Y-122623333D01*
X103796190Y-122575714D01*
X103796190Y-122480476D01*
X103820000Y-122432857D01*
X103843809Y-122409047D01*
X103891428Y-122385238D01*
X104010476Y-122385238D01*
X104058095Y-122409047D01*
X104081904Y-122432857D01*
X104105714Y-122480476D01*
X104105714Y-122575714D01*
X104081904Y-122623333D01*
X104058095Y-122647142D01*
X104010476Y-122670952D01*
G04 #@! TO.C,R20*
X104306190Y-117838571D02*
X104068095Y-117671904D01*
X104306190Y-117552857D02*
X103806190Y-117552857D01*
X103806190Y-117743333D01*
X103830000Y-117790952D01*
X103853809Y-117814761D01*
X103901428Y-117838571D01*
X103972857Y-117838571D01*
X104020476Y-117814761D01*
X104044285Y-117790952D01*
X104068095Y-117743333D01*
X104068095Y-117552857D01*
X103853809Y-118029047D02*
X103830000Y-118052857D01*
X103806190Y-118100476D01*
X103806190Y-118219523D01*
X103830000Y-118267142D01*
X103853809Y-118290952D01*
X103901428Y-118314761D01*
X103949047Y-118314761D01*
X104020476Y-118290952D01*
X104306190Y-118005238D01*
X104306190Y-118314761D01*
X103806190Y-118624285D02*
X103806190Y-118671904D01*
X103830000Y-118719523D01*
X103853809Y-118743333D01*
X103901428Y-118767142D01*
X103996666Y-118790952D01*
X104115714Y-118790952D01*
X104210952Y-118767142D01*
X104258571Y-118743333D01*
X104282380Y-118719523D01*
X104306190Y-118671904D01*
X104306190Y-118624285D01*
X104282380Y-118576666D01*
X104258571Y-118552857D01*
X104210952Y-118529047D01*
X104115714Y-118505238D01*
X103996666Y-118505238D01*
X103901428Y-118529047D01*
X103853809Y-118552857D01*
X103830000Y-118576666D01*
X103806190Y-118624285D01*
G04 #@! TO.C,R22*
X106892790Y-115973171D02*
X106654695Y-115806504D01*
X106892790Y-115687457D02*
X106392790Y-115687457D01*
X106392790Y-115877933D01*
X106416600Y-115925552D01*
X106440409Y-115949361D01*
X106488028Y-115973171D01*
X106559457Y-115973171D01*
X106607076Y-115949361D01*
X106630885Y-115925552D01*
X106654695Y-115877933D01*
X106654695Y-115687457D01*
X106440409Y-116163647D02*
X106416600Y-116187457D01*
X106392790Y-116235076D01*
X106392790Y-116354123D01*
X106416600Y-116401742D01*
X106440409Y-116425552D01*
X106488028Y-116449361D01*
X106535647Y-116449361D01*
X106607076Y-116425552D01*
X106892790Y-116139838D01*
X106892790Y-116449361D01*
X106440409Y-116639838D02*
X106416600Y-116663647D01*
X106392790Y-116711266D01*
X106392790Y-116830314D01*
X106416600Y-116877933D01*
X106440409Y-116901742D01*
X106488028Y-116925552D01*
X106535647Y-116925552D01*
X106607076Y-116901742D01*
X106892790Y-116616028D01*
X106892790Y-116925552D01*
G04 #@! TO.C,R13*
X75941190Y-120883571D02*
X75703095Y-120716904D01*
X75941190Y-120597857D02*
X75441190Y-120597857D01*
X75441190Y-120788333D01*
X75465000Y-120835952D01*
X75488809Y-120859761D01*
X75536428Y-120883571D01*
X75607857Y-120883571D01*
X75655476Y-120859761D01*
X75679285Y-120835952D01*
X75703095Y-120788333D01*
X75703095Y-120597857D01*
X75941190Y-121359761D02*
X75941190Y-121074047D01*
X75941190Y-121216904D02*
X75441190Y-121216904D01*
X75512619Y-121169285D01*
X75560238Y-121121666D01*
X75584047Y-121074047D01*
X75441190Y-121526428D02*
X75441190Y-121835952D01*
X75631666Y-121669285D01*
X75631666Y-121740714D01*
X75655476Y-121788333D01*
X75679285Y-121812142D01*
X75726904Y-121835952D01*
X75845952Y-121835952D01*
X75893571Y-121812142D01*
X75917380Y-121788333D01*
X75941190Y-121740714D01*
X75941190Y-121597857D01*
X75917380Y-121550238D01*
X75893571Y-121526428D01*
G04 #@! TO.C,R25*
X110856190Y-121468571D02*
X110618095Y-121301904D01*
X110856190Y-121182857D02*
X110356190Y-121182857D01*
X110356190Y-121373333D01*
X110380000Y-121420952D01*
X110403809Y-121444761D01*
X110451428Y-121468571D01*
X110522857Y-121468571D01*
X110570476Y-121444761D01*
X110594285Y-121420952D01*
X110618095Y-121373333D01*
X110618095Y-121182857D01*
X110403809Y-121659047D02*
X110380000Y-121682857D01*
X110356190Y-121730476D01*
X110356190Y-121849523D01*
X110380000Y-121897142D01*
X110403809Y-121920952D01*
X110451428Y-121944761D01*
X110499047Y-121944761D01*
X110570476Y-121920952D01*
X110856190Y-121635238D01*
X110856190Y-121944761D01*
X110356190Y-122397142D02*
X110356190Y-122159047D01*
X110594285Y-122135238D01*
X110570476Y-122159047D01*
X110546666Y-122206666D01*
X110546666Y-122325714D01*
X110570476Y-122373333D01*
X110594285Y-122397142D01*
X110641904Y-122420952D01*
X110760952Y-122420952D01*
X110808571Y-122397142D01*
X110832380Y-122373333D01*
X110856190Y-122325714D01*
X110856190Y-122206666D01*
X110832380Y-122159047D01*
X110808571Y-122135238D01*
G04 #@! TO.C,R14*
X76672790Y-115383171D02*
X76434695Y-115216504D01*
X76672790Y-115097457D02*
X76172790Y-115097457D01*
X76172790Y-115287933D01*
X76196600Y-115335552D01*
X76220409Y-115359361D01*
X76268028Y-115383171D01*
X76339457Y-115383171D01*
X76387076Y-115359361D01*
X76410885Y-115335552D01*
X76434695Y-115287933D01*
X76434695Y-115097457D01*
X76672790Y-115859361D02*
X76672790Y-115573647D01*
X76672790Y-115716504D02*
X76172790Y-115716504D01*
X76244219Y-115668885D01*
X76291838Y-115621266D01*
X76315647Y-115573647D01*
X76339457Y-116287933D02*
X76672790Y-116287933D01*
X76148980Y-116168885D02*
X76506123Y-116049838D01*
X76506123Y-116359361D01*
G04 #@! TO.C,R23*
X108136190Y-121458571D02*
X107898095Y-121291904D01*
X108136190Y-121172857D02*
X107636190Y-121172857D01*
X107636190Y-121363333D01*
X107660000Y-121410952D01*
X107683809Y-121434761D01*
X107731428Y-121458571D01*
X107802857Y-121458571D01*
X107850476Y-121434761D01*
X107874285Y-121410952D01*
X107898095Y-121363333D01*
X107898095Y-121172857D01*
X107683809Y-121649047D02*
X107660000Y-121672857D01*
X107636190Y-121720476D01*
X107636190Y-121839523D01*
X107660000Y-121887142D01*
X107683809Y-121910952D01*
X107731428Y-121934761D01*
X107779047Y-121934761D01*
X107850476Y-121910952D01*
X108136190Y-121625238D01*
X108136190Y-121934761D01*
X107636190Y-122101428D02*
X107636190Y-122410952D01*
X107826666Y-122244285D01*
X107826666Y-122315714D01*
X107850476Y-122363333D01*
X107874285Y-122387142D01*
X107921904Y-122410952D01*
X108040952Y-122410952D01*
X108088571Y-122387142D01*
X108112380Y-122363333D01*
X108136190Y-122315714D01*
X108136190Y-122172857D01*
X108112380Y-122125238D01*
X108088571Y-122101428D01*
G04 #@! TO.C,R4*
X55683333Y-115916190D02*
X55850000Y-115678095D01*
X55969047Y-115916190D02*
X55969047Y-115416190D01*
X55778571Y-115416190D01*
X55730952Y-115440000D01*
X55707142Y-115463809D01*
X55683333Y-115511428D01*
X55683333Y-115582857D01*
X55707142Y-115630476D01*
X55730952Y-115654285D01*
X55778571Y-115678095D01*
X55969047Y-115678095D01*
X55254761Y-115582857D02*
X55254761Y-115916190D01*
X55373809Y-115392380D02*
X55492857Y-115749523D01*
X55183333Y-115749523D01*
G04 #@! TO.C,R3*
X48479933Y-153580790D02*
X48646600Y-153342695D01*
X48765647Y-153580790D02*
X48765647Y-153080790D01*
X48575171Y-153080790D01*
X48527552Y-153104600D01*
X48503742Y-153128409D01*
X48479933Y-153176028D01*
X48479933Y-153247457D01*
X48503742Y-153295076D01*
X48527552Y-153318885D01*
X48575171Y-153342695D01*
X48765647Y-153342695D01*
X48313266Y-153080790D02*
X48003742Y-153080790D01*
X48170409Y-153271266D01*
X48098980Y-153271266D01*
X48051361Y-153295076D01*
X48027552Y-153318885D01*
X48003742Y-153366504D01*
X48003742Y-153485552D01*
X48027552Y-153533171D01*
X48051361Y-153556980D01*
X48098980Y-153580790D01*
X48241838Y-153580790D01*
X48289457Y-153556980D01*
X48313266Y-153533171D01*
G04 #@! TO.C,R1*
X43119933Y-140710790D02*
X43286600Y-140472695D01*
X43405647Y-140710790D02*
X43405647Y-140210790D01*
X43215171Y-140210790D01*
X43167552Y-140234600D01*
X43143742Y-140258409D01*
X43119933Y-140306028D01*
X43119933Y-140377457D01*
X43143742Y-140425076D01*
X43167552Y-140448885D01*
X43215171Y-140472695D01*
X43405647Y-140472695D01*
X42643742Y-140710790D02*
X42929457Y-140710790D01*
X42786600Y-140710790D02*
X42786600Y-140210790D01*
X42834219Y-140282219D01*
X42881838Y-140329838D01*
X42929457Y-140353647D01*
G04 #@! TO.C,R12*
X74596190Y-115903571D02*
X74358095Y-115736904D01*
X74596190Y-115617857D02*
X74096190Y-115617857D01*
X74096190Y-115808333D01*
X74120000Y-115855952D01*
X74143809Y-115879761D01*
X74191428Y-115903571D01*
X74262857Y-115903571D01*
X74310476Y-115879761D01*
X74334285Y-115855952D01*
X74358095Y-115808333D01*
X74358095Y-115617857D01*
X74596190Y-116379761D02*
X74596190Y-116094047D01*
X74596190Y-116236904D02*
X74096190Y-116236904D01*
X74167619Y-116189285D01*
X74215238Y-116141666D01*
X74239047Y-116094047D01*
X74143809Y-116570238D02*
X74120000Y-116594047D01*
X74096190Y-116641666D01*
X74096190Y-116760714D01*
X74120000Y-116808333D01*
X74143809Y-116832142D01*
X74191428Y-116855952D01*
X74239047Y-116855952D01*
X74310476Y-116832142D01*
X74596190Y-116546428D01*
X74596190Y-116855952D01*
G04 #@! TO.C,R5*
D13*
X70813266Y-158036980D02*
X71146600Y-157560790D01*
X71384695Y-158036980D02*
X71384695Y-157036980D01*
X71003742Y-157036980D01*
X70908504Y-157084600D01*
X70860885Y-157132219D01*
X70813266Y-157227457D01*
X70813266Y-157370314D01*
X70860885Y-157465552D01*
X70908504Y-157513171D01*
X71003742Y-157560790D01*
X71384695Y-157560790D01*
X69908504Y-157036980D02*
X70384695Y-157036980D01*
X70432314Y-157513171D01*
X70384695Y-157465552D01*
X70289457Y-157417933D01*
X70051361Y-157417933D01*
X69956123Y-157465552D01*
X69908504Y-157513171D01*
X69860885Y-157608409D01*
X69860885Y-157846504D01*
X69908504Y-157941742D01*
X69956123Y-157989361D01*
X70051361Y-158036980D01*
X70289457Y-158036980D01*
X70384695Y-157989361D01*
X70432314Y-157941742D01*
G04 #@! TO.C,R6*
X60826580Y-153692533D02*
X60350390Y-153359200D01*
X60826580Y-153121104D02*
X59826580Y-153121104D01*
X59826580Y-153502057D01*
X59874200Y-153597295D01*
X59921819Y-153644914D01*
X60017057Y-153692533D01*
X60159914Y-153692533D01*
X60255152Y-153644914D01*
X60302771Y-153597295D01*
X60350390Y-153502057D01*
X60350390Y-153121104D01*
X59826580Y-154549676D02*
X59826580Y-154359200D01*
X59874200Y-154263961D01*
X59921819Y-154216342D01*
X60064676Y-154121104D01*
X60255152Y-154073485D01*
X60636104Y-154073485D01*
X60731342Y-154121104D01*
X60778961Y-154168723D01*
X60826580Y-154263961D01*
X60826580Y-154454438D01*
X60778961Y-154549676D01*
X60731342Y-154597295D01*
X60636104Y-154644914D01*
X60398009Y-154644914D01*
X60302771Y-154597295D01*
X60255152Y-154549676D01*
X60207533Y-154454438D01*
X60207533Y-154263961D01*
X60255152Y-154168723D01*
X60302771Y-154121104D01*
X60398009Y-154073485D01*
G04 #@! TO.C,R7*
D16*
X58362433Y-161590090D02*
X58529100Y-161351995D01*
X58648147Y-161590090D02*
X58648147Y-161090090D01*
X58457671Y-161090090D01*
X58410052Y-161113900D01*
X58386242Y-161137709D01*
X58362433Y-161185328D01*
X58362433Y-161256757D01*
X58386242Y-161304376D01*
X58410052Y-161328185D01*
X58457671Y-161351995D01*
X58648147Y-161351995D01*
X58195766Y-161090090D02*
X57862433Y-161090090D01*
X58076719Y-161590090D01*
G04 #@! TO.C,R8*
X52080733Y-164989990D02*
X52247400Y-164751895D01*
X52366447Y-164989990D02*
X52366447Y-164489990D01*
X52175971Y-164489990D01*
X52128352Y-164513800D01*
X52104542Y-164537609D01*
X52080733Y-164585228D01*
X52080733Y-164656657D01*
X52104542Y-164704276D01*
X52128352Y-164728085D01*
X52175971Y-164751895D01*
X52366447Y-164751895D01*
X51795019Y-164704276D02*
X51842638Y-164680466D01*
X51866447Y-164656657D01*
X51890257Y-164609038D01*
X51890257Y-164585228D01*
X51866447Y-164537609D01*
X51842638Y-164513800D01*
X51795019Y-164489990D01*
X51699780Y-164489990D01*
X51652161Y-164513800D01*
X51628352Y-164537609D01*
X51604542Y-164585228D01*
X51604542Y-164609038D01*
X51628352Y-164656657D01*
X51652161Y-164680466D01*
X51699780Y-164704276D01*
X51795019Y-164704276D01*
X51842638Y-164728085D01*
X51866447Y-164751895D01*
X51890257Y-164799514D01*
X51890257Y-164894752D01*
X51866447Y-164942371D01*
X51842638Y-164966180D01*
X51795019Y-164989990D01*
X51699780Y-164989990D01*
X51652161Y-164966180D01*
X51628352Y-164942371D01*
X51604542Y-164894752D01*
X51604542Y-164799514D01*
X51628352Y-164751895D01*
X51652161Y-164728085D01*
X51699780Y-164704276D01*
G04 #@! TO.C,R9*
X75534333Y-167731290D02*
X75701000Y-167493195D01*
X75820047Y-167731290D02*
X75820047Y-167231290D01*
X75629571Y-167231290D01*
X75581952Y-167255100D01*
X75558142Y-167278909D01*
X75534333Y-167326528D01*
X75534333Y-167397957D01*
X75558142Y-167445576D01*
X75581952Y-167469385D01*
X75629571Y-167493195D01*
X75820047Y-167493195D01*
X75296238Y-167731290D02*
X75201000Y-167731290D01*
X75153380Y-167707480D01*
X75129571Y-167683671D01*
X75081952Y-167612242D01*
X75058142Y-167517004D01*
X75058142Y-167326528D01*
X75081952Y-167278909D01*
X75105761Y-167255100D01*
X75153380Y-167231290D01*
X75248619Y-167231290D01*
X75296238Y-167255100D01*
X75320047Y-167278909D01*
X75343857Y-167326528D01*
X75343857Y-167445576D01*
X75320047Y-167493195D01*
X75296238Y-167517004D01*
X75248619Y-167540814D01*
X75153380Y-167540814D01*
X75105761Y-167517004D01*
X75081952Y-167493195D01*
X75058142Y-167445576D01*
G04 #@! TO.C,R10*
X76472790Y-131043171D02*
X76234695Y-130876504D01*
X76472790Y-130757457D02*
X75972790Y-130757457D01*
X75972790Y-130947933D01*
X75996600Y-130995552D01*
X76020409Y-131019361D01*
X76068028Y-131043171D01*
X76139457Y-131043171D01*
X76187076Y-131019361D01*
X76210885Y-130995552D01*
X76234695Y-130947933D01*
X76234695Y-130757457D01*
X76472790Y-131519361D02*
X76472790Y-131233647D01*
X76472790Y-131376504D02*
X75972790Y-131376504D01*
X76044219Y-131328885D01*
X76091838Y-131281266D01*
X76115647Y-131233647D01*
X75972790Y-131828885D02*
X75972790Y-131876504D01*
X75996600Y-131924123D01*
X76020409Y-131947933D01*
X76068028Y-131971742D01*
X76163266Y-131995552D01*
X76282314Y-131995552D01*
X76377552Y-131971742D01*
X76425171Y-131947933D01*
X76448980Y-131924123D01*
X76472790Y-131876504D01*
X76472790Y-131828885D01*
X76448980Y-131781266D01*
X76425171Y-131757457D01*
X76377552Y-131733647D01*
X76282314Y-131709838D01*
X76163266Y-131709838D01*
X76068028Y-131733647D01*
X76020409Y-131757457D01*
X75996600Y-131781266D01*
X75972790Y-131828885D01*
G04 #@! TO.C,R11*
X73816190Y-121518571D02*
X73578095Y-121351904D01*
X73816190Y-121232857D02*
X73316190Y-121232857D01*
X73316190Y-121423333D01*
X73340000Y-121470952D01*
X73363809Y-121494761D01*
X73411428Y-121518571D01*
X73482857Y-121518571D01*
X73530476Y-121494761D01*
X73554285Y-121470952D01*
X73578095Y-121423333D01*
X73578095Y-121232857D01*
X73816190Y-121994761D02*
X73816190Y-121709047D01*
X73816190Y-121851904D02*
X73316190Y-121851904D01*
X73387619Y-121804285D01*
X73435238Y-121756666D01*
X73459047Y-121709047D01*
X73816190Y-122470952D02*
X73816190Y-122185238D01*
X73816190Y-122328095D02*
X73316190Y-122328095D01*
X73387619Y-122280476D01*
X73435238Y-122232857D01*
X73459047Y-122185238D01*
G04 #@! TO.C,R16*
X78756190Y-116553571D02*
X78518095Y-116386904D01*
X78756190Y-116267857D02*
X78256190Y-116267857D01*
X78256190Y-116458333D01*
X78280000Y-116505952D01*
X78303809Y-116529761D01*
X78351428Y-116553571D01*
X78422857Y-116553571D01*
X78470476Y-116529761D01*
X78494285Y-116505952D01*
X78518095Y-116458333D01*
X78518095Y-116267857D01*
X78756190Y-117029761D02*
X78756190Y-116744047D01*
X78756190Y-116886904D02*
X78256190Y-116886904D01*
X78327619Y-116839285D01*
X78375238Y-116791666D01*
X78399047Y-116744047D01*
X78256190Y-117458333D02*
X78256190Y-117363095D01*
X78280000Y-117315476D01*
X78303809Y-117291666D01*
X78375238Y-117244047D01*
X78470476Y-117220238D01*
X78660952Y-117220238D01*
X78708571Y-117244047D01*
X78732380Y-117267857D01*
X78756190Y-117315476D01*
X78756190Y-117410714D01*
X78732380Y-117458333D01*
X78708571Y-117482142D01*
X78660952Y-117505952D01*
X78541904Y-117505952D01*
X78494285Y-117482142D01*
X78470476Y-117458333D01*
X78446666Y-117410714D01*
X78446666Y-117315476D01*
X78470476Y-117267857D01*
X78494285Y-117244047D01*
X78541904Y-117220238D01*
G04 #@! TO.C,R2*
X42719933Y-146670790D02*
X42886600Y-146432695D01*
X43005647Y-146670790D02*
X43005647Y-146170790D01*
X42815171Y-146170790D01*
X42767552Y-146194600D01*
X42743742Y-146218409D01*
X42719933Y-146266028D01*
X42719933Y-146337457D01*
X42743742Y-146385076D01*
X42767552Y-146408885D01*
X42815171Y-146432695D01*
X43005647Y-146432695D01*
X42529457Y-146218409D02*
X42505647Y-146194600D01*
X42458028Y-146170790D01*
X42338980Y-146170790D01*
X42291361Y-146194600D01*
X42267552Y-146218409D01*
X42243742Y-146266028D01*
X42243742Y-146313647D01*
X42267552Y-146385076D01*
X42553266Y-146670790D01*
X42243742Y-146670790D01*
G04 #@! TO.C,C7*
D13*
X107858266Y-136711742D02*
X107905885Y-136759361D01*
X108048742Y-136806980D01*
X108143980Y-136806980D01*
X108286838Y-136759361D01*
X108382076Y-136664123D01*
X108429695Y-136568885D01*
X108477314Y-136378409D01*
X108477314Y-136235552D01*
X108429695Y-136045076D01*
X108382076Y-135949838D01*
X108286838Y-135854600D01*
X108143980Y-135806980D01*
X108048742Y-135806980D01*
X107905885Y-135854600D01*
X107858266Y-135902219D01*
X107524933Y-135806980D02*
X106858266Y-135806980D01*
X107286838Y-136806980D01*
G04 #@! TO.C,U7*
X110318980Y-123442695D02*
X111128504Y-123442695D01*
X111223742Y-123490314D01*
X111271361Y-123537933D01*
X111318980Y-123633171D01*
X111318980Y-123823647D01*
X111271361Y-123918885D01*
X111223742Y-123966504D01*
X111128504Y-124014123D01*
X110318980Y-124014123D01*
X110318980Y-124395076D02*
X110318980Y-125061742D01*
X111318980Y-124633171D01*
G04 #@! TO.C,U6*
X80268980Y-122362695D02*
X81078504Y-122362695D01*
X81173742Y-122410314D01*
X81221361Y-122457933D01*
X81268980Y-122553171D01*
X81268980Y-122743647D01*
X81221361Y-122838885D01*
X81173742Y-122886504D01*
X81078504Y-122934123D01*
X80268980Y-122934123D01*
X80268980Y-123838885D02*
X80268980Y-123648409D01*
X80316600Y-123553171D01*
X80364219Y-123505552D01*
X80507076Y-123410314D01*
X80697552Y-123362695D01*
X81078504Y-123362695D01*
X81173742Y-123410314D01*
X81221361Y-123457933D01*
X81268980Y-123553171D01*
X81268980Y-123743647D01*
X81221361Y-123838885D01*
X81173742Y-123886504D01*
X81078504Y-123934123D01*
X80840409Y-123934123D01*
X80745171Y-123886504D01*
X80697552Y-123838885D01*
X80649933Y-123743647D01*
X80649933Y-123553171D01*
X80697552Y-123457933D01*
X80745171Y-123410314D01*
X80840409Y-123362695D01*
G04 #@! TO.C,U1*
D17*
X41218504Y-137492032D02*
X42028732Y-137492032D01*
X42124053Y-137539692D01*
X42171714Y-137587353D01*
X42219374Y-137682674D01*
X42219374Y-137873316D01*
X42171714Y-137968637D01*
X42124053Y-138016297D01*
X42028732Y-138063958D01*
X41218504Y-138063958D01*
X42219374Y-139064828D02*
X42219374Y-138492902D01*
X42219374Y-138778865D02*
X41218504Y-138778865D01*
X41361485Y-138683544D01*
X41456806Y-138588223D01*
X41504467Y-138492902D01*
X72334219Y-138558885D02*
X72167552Y-138558885D01*
X72096123Y-138820790D02*
X72334219Y-138820790D01*
X72334219Y-138320790D01*
X72096123Y-138320790D01*
X71905647Y-138796980D02*
X71834219Y-138820790D01*
X71715171Y-138820790D01*
X71667552Y-138796980D01*
X71643742Y-138773171D01*
X71619933Y-138725552D01*
X71619933Y-138677933D01*
X71643742Y-138630314D01*
X71667552Y-138606504D01*
X71715171Y-138582695D01*
X71810409Y-138558885D01*
X71858028Y-138535076D01*
X71881838Y-138511266D01*
X71905647Y-138463647D01*
X71905647Y-138416028D01*
X71881838Y-138368409D01*
X71858028Y-138344600D01*
X71810409Y-138320790D01*
X71691361Y-138320790D01*
X71619933Y-138344600D01*
X71405647Y-138820790D02*
X71405647Y-138320790D01*
X71215171Y-138320790D01*
X71167552Y-138344600D01*
X71143742Y-138368409D01*
X71119933Y-138416028D01*
X71119933Y-138487457D01*
X71143742Y-138535076D01*
X71167552Y-138558885D01*
X71215171Y-138582695D01*
X71405647Y-138582695D01*
X70953266Y-138320790D02*
X70643742Y-138320790D01*
X70810409Y-138511266D01*
X70738980Y-138511266D01*
X70691361Y-138535076D01*
X70667552Y-138558885D01*
X70643742Y-138606504D01*
X70643742Y-138725552D01*
X70667552Y-138773171D01*
X70691361Y-138796980D01*
X70738980Y-138820790D01*
X70881838Y-138820790D01*
X70929457Y-138796980D01*
X70953266Y-138773171D01*
X70453266Y-138368409D02*
X70429457Y-138344600D01*
X70381838Y-138320790D01*
X70262790Y-138320790D01*
X70215171Y-138344600D01*
X70191361Y-138368409D01*
X70167552Y-138416028D01*
X70167552Y-138463647D01*
X70191361Y-138535076D01*
X70477076Y-138820790D01*
X70167552Y-138820790D01*
X69953266Y-138630314D02*
X69572314Y-138630314D01*
X69381838Y-138320790D02*
X69262790Y-138820790D01*
X69167552Y-138463647D01*
X69072314Y-138820790D01*
X68953266Y-138320790D01*
X68477076Y-138820790D02*
X68643742Y-138582695D01*
X68762790Y-138820790D02*
X68762790Y-138320790D01*
X68572314Y-138320790D01*
X68524695Y-138344600D01*
X68500885Y-138368409D01*
X68477076Y-138416028D01*
X68477076Y-138487457D01*
X68500885Y-138535076D01*
X68524695Y-138558885D01*
X68572314Y-138582695D01*
X68762790Y-138582695D01*
X68167552Y-138320790D02*
X68072314Y-138320790D01*
X68024695Y-138344600D01*
X67977076Y-138392219D01*
X67953266Y-138487457D01*
X67953266Y-138654123D01*
X67977076Y-138749361D01*
X68024695Y-138796980D01*
X68072314Y-138820790D01*
X68167552Y-138820790D01*
X68215171Y-138796980D01*
X68262790Y-138749361D01*
X68286600Y-138654123D01*
X68286600Y-138487457D01*
X68262790Y-138392219D01*
X68215171Y-138344600D01*
X68167552Y-138320790D01*
X67810409Y-138320790D02*
X67643742Y-138820790D01*
X67477076Y-138320790D01*
X67310409Y-138558885D02*
X67143742Y-138558885D01*
X67072314Y-138820790D02*
X67310409Y-138820790D01*
X67310409Y-138320790D01*
X67072314Y-138320790D01*
X66572314Y-138820790D02*
X66738980Y-138582695D01*
X66858028Y-138820790D02*
X66858028Y-138320790D01*
X66667552Y-138320790D01*
X66619933Y-138344600D01*
X66596123Y-138368409D01*
X66572314Y-138416028D01*
X66572314Y-138487457D01*
X66596123Y-138535076D01*
X66619933Y-138558885D01*
X66667552Y-138582695D01*
X66858028Y-138582695D01*
X66358028Y-138630314D02*
X65977076Y-138630314D01*
X65738980Y-138820790D02*
X65738980Y-138320790D01*
G04 #@! TO.C,D1*
D16*
X56245647Y-166340790D02*
X56245647Y-165840790D01*
X56126600Y-165840790D01*
X56055171Y-165864600D01*
X56007552Y-165912219D01*
X55983742Y-165959838D01*
X55959933Y-166055076D01*
X55959933Y-166126504D01*
X55983742Y-166221742D01*
X56007552Y-166269361D01*
X56055171Y-166316980D01*
X56126600Y-166340790D01*
X56245647Y-166340790D01*
X55483742Y-166340790D02*
X55769457Y-166340790D01*
X55626600Y-166340790D02*
X55626600Y-165840790D01*
X55674219Y-165912219D01*
X55721838Y-165959838D01*
X55769457Y-165983647D01*
G04 #@! TO.C,J1*
D13*
X46084780Y-159927966D02*
X46799066Y-159927966D01*
X46941923Y-159880347D01*
X47037161Y-159785109D01*
X47084780Y-159642252D01*
X47084780Y-159547014D01*
X47084780Y-160927966D02*
X47084780Y-160356538D01*
X47084780Y-160642252D02*
X46084780Y-160642252D01*
X46227638Y-160547014D01*
X46322876Y-160451776D01*
X46370495Y-160356538D01*
G04 #@! TO.C,U2*
X56281224Y-160701740D02*
X56281224Y-161511264D01*
X56233605Y-161606502D01*
X56185986Y-161654121D01*
X56090748Y-161701740D01*
X55900272Y-161701740D01*
X55805034Y-161654121D01*
X55757415Y-161606502D01*
X55709796Y-161511264D01*
X55709796Y-160701740D01*
X55281224Y-160796979D02*
X55233605Y-160749360D01*
X55138367Y-160701740D01*
X54900272Y-160701740D01*
X54805034Y-160749360D01*
X54757415Y-160796979D01*
X54709796Y-160892217D01*
X54709796Y-160987455D01*
X54757415Y-161130312D01*
X55328843Y-161701740D01*
X54709796Y-161701740D01*
G04 #@! TO.C,Q1*
X54527438Y-151385519D02*
X54622676Y-151337900D01*
X54717914Y-151242661D01*
X54860771Y-151099804D01*
X54956009Y-151052185D01*
X55051247Y-151052185D01*
X55003628Y-151290280D02*
X55098866Y-151242661D01*
X55194104Y-151147423D01*
X55241723Y-150956947D01*
X55241723Y-150623614D01*
X55194104Y-150433138D01*
X55098866Y-150337900D01*
X55003628Y-150290280D01*
X54813152Y-150290280D01*
X54717914Y-150337900D01*
X54622676Y-150433138D01*
X54575057Y-150623614D01*
X54575057Y-150956947D01*
X54622676Y-151147423D01*
X54717914Y-151242661D01*
X54813152Y-151290280D01*
X55003628Y-151290280D01*
X53622676Y-151290280D02*
X54194104Y-151290280D01*
X53908390Y-151290280D02*
X53908390Y-150290280D01*
X54003628Y-150433138D01*
X54098866Y-150528376D01*
X54194104Y-150575995D01*
G04 #@! TO.C,Q2*
X57753238Y-152439619D02*
X57848476Y-152392000D01*
X57943714Y-152296761D01*
X58086571Y-152153904D01*
X58181809Y-152106285D01*
X58277047Y-152106285D01*
X58229428Y-152344380D02*
X58324666Y-152296761D01*
X58419904Y-152201523D01*
X58467523Y-152011047D01*
X58467523Y-151677714D01*
X58419904Y-151487238D01*
X58324666Y-151392000D01*
X58229428Y-151344380D01*
X58038952Y-151344380D01*
X57943714Y-151392000D01*
X57848476Y-151487238D01*
X57800857Y-151677714D01*
X57800857Y-152011047D01*
X57848476Y-152201523D01*
X57943714Y-152296761D01*
X58038952Y-152344380D01*
X58229428Y-152344380D01*
X57419904Y-151439619D02*
X57372285Y-151392000D01*
X57277047Y-151344380D01*
X57038952Y-151344380D01*
X56943714Y-151392000D01*
X56896095Y-151439619D01*
X56848476Y-151534857D01*
X56848476Y-151630095D01*
X56896095Y-151772952D01*
X57467523Y-152344380D01*
X56848476Y-152344380D01*
G04 #@! TO.C,U4*
X44585804Y-151465580D02*
X44585804Y-152275104D01*
X44538185Y-152370342D01*
X44490566Y-152417961D01*
X44395328Y-152465580D01*
X44204852Y-152465580D01*
X44109614Y-152417961D01*
X44061995Y-152370342D01*
X44014376Y-152275104D01*
X44014376Y-151465580D01*
X43109614Y-151798914D02*
X43109614Y-152465580D01*
X43347709Y-151417961D02*
X43585804Y-152132247D01*
X42966757Y-152132247D01*
G04 #@! TO.C,U5*
X72190504Y-167950180D02*
X72190504Y-168759704D01*
X72142885Y-168854942D01*
X72095266Y-168902561D01*
X72000028Y-168950180D01*
X71809552Y-168950180D01*
X71714314Y-168902561D01*
X71666695Y-168854942D01*
X71619076Y-168759704D01*
X71619076Y-167950180D01*
X70666695Y-167950180D02*
X71142885Y-167950180D01*
X71190504Y-168426371D01*
X71142885Y-168378752D01*
X71047647Y-168331133D01*
X70809552Y-168331133D01*
X70714314Y-168378752D01*
X70666695Y-168426371D01*
X70619076Y-168521609D01*
X70619076Y-168759704D01*
X70666695Y-168854942D01*
X70714314Y-168902561D01*
X70809552Y-168950180D01*
X71047647Y-168950180D01*
X71142885Y-168902561D01*
X71190504Y-168854942D01*
G04 #@! TO.C,U3*
X43738704Y-168057580D02*
X43738704Y-168867104D01*
X43691085Y-168962342D01*
X43643466Y-169009961D01*
X43548228Y-169057580D01*
X43357752Y-169057580D01*
X43262514Y-169009961D01*
X43214895Y-168962342D01*
X43167276Y-168867104D01*
X43167276Y-168057580D01*
X42786323Y-168057580D02*
X42167276Y-168057580D01*
X42500609Y-168438533D01*
X42357752Y-168438533D01*
X42262514Y-168486152D01*
X42214895Y-168533771D01*
X42167276Y-168629009D01*
X42167276Y-168867104D01*
X42214895Y-168962342D01*
X42262514Y-169009961D01*
X42357752Y-169057580D01*
X42643466Y-169057580D01*
X42738704Y-169009961D01*
X42786323Y-168962342D01*
G04 #@! TD*
M02*
