G04 #@! TF.GenerationSoftware,KiCad,Pcbnew,(5.0.1)-4*
G04 #@! TF.CreationDate,2019-01-18T18:09:54-05:00*
G04 #@! TF.ProjectId,GSRT Badge,475352542042616467652E6B69636164,rev?*
G04 #@! TF.SameCoordinates,Original*
G04 #@! TF.FileFunction,Profile,NP*
%FSLAX46Y46*%
G04 Gerber Fmt 4.6, Leading zero omitted, Abs format (unit mm)*
G04 Created by KiCad (PCBNEW (5.0.1)-4) date 1/18/2019 6:09:54 PM*
%MOMM*%
%LPD*%
G01*
G04 APERTURE LIST*
%ADD10C,0.150000*%
G04 APERTURE END LIST*
D10*
X55866600Y-100534600D02*
X58826600Y-103494600D01*
X58826600Y-103494600D02*
X58826600Y-116434600D01*
X58826600Y-116434600D02*
X61366600Y-116434600D01*
X114266600Y-124424600D02*
X114496600Y-124344600D01*
X114096600Y-124504600D02*
X114266600Y-124424600D01*
X113756600Y-124834600D02*
X114096600Y-124504600D01*
X113596600Y-125274600D02*
X113756600Y-124834600D01*
X113576600Y-154644600D02*
X113596600Y-125274600D01*
X113656600Y-155054600D02*
X113576600Y-154644600D01*
X113866600Y-155434600D02*
X113656600Y-155054600D01*
X114196600Y-155674600D02*
X113866600Y-155434600D01*
X114666600Y-155804600D02*
X114196600Y-155674600D01*
X116626600Y-155754600D02*
X114666600Y-155804600D01*
X116916600Y-155664600D02*
X116626600Y-155754600D01*
X117266600Y-155414600D02*
X116916600Y-155664600D01*
X117446600Y-155144600D02*
X117266600Y-155414600D01*
X117546600Y-154724600D02*
X117446600Y-155144600D01*
X117536600Y-125284600D02*
X117546600Y-154724600D01*
X117436600Y-124914600D02*
X117536600Y-125284600D01*
X117086600Y-124494600D02*
X117436600Y-124914600D01*
X116566600Y-124334600D02*
X117086600Y-124494600D01*
X114536600Y-124344600D02*
X116566600Y-124334600D01*
X40626600Y-117504600D02*
X40656600Y-117544600D01*
X40616600Y-170194600D02*
X40616600Y-117514600D01*
X129586600Y-170194600D02*
X40616600Y-170194600D01*
X129586600Y-117664600D02*
X129586600Y-170194600D01*
X129496600Y-117664600D02*
X129586600Y-117664600D01*
X129356600Y-117664600D02*
X129496600Y-117664600D01*
X126016600Y-117664600D02*
X129356600Y-117664600D01*
X126016600Y-116064600D02*
X126016600Y-117664600D01*
X123176600Y-114394600D02*
X126016600Y-116064600D01*
X123176600Y-112984600D02*
X123176600Y-114394600D01*
X120986600Y-112984600D02*
X123176600Y-112984600D01*
X120986600Y-110844600D02*
X120986600Y-112984600D01*
X119576600Y-110844600D02*
X120986600Y-110844600D01*
X119576600Y-109854600D02*
X119576600Y-110844600D01*
X117886600Y-109854600D02*
X119576600Y-109854600D01*
X117886600Y-110844600D02*
X117886600Y-109854600D01*
X116796600Y-110844600D02*
X117886600Y-110844600D01*
X116796600Y-113034600D02*
X116796600Y-110844600D01*
X114616600Y-113034600D02*
X116796600Y-113034600D01*
X114616600Y-116484600D02*
X114616600Y-113034600D01*
X111356600Y-116484600D02*
X114616600Y-116484600D01*
X111356600Y-111394600D02*
X111356600Y-116484600D01*
X109666600Y-111394600D02*
X111356600Y-111394600D01*
X109666600Y-107554600D02*
X109666600Y-111394600D01*
X107836600Y-107554600D02*
X109666600Y-107554600D01*
X107836600Y-106504600D02*
X107836600Y-107554600D01*
X105746600Y-106504600D02*
X107836600Y-106504600D01*
X105746600Y-107504600D02*
X105746600Y-106504600D01*
X104066600Y-107504600D02*
X105746600Y-107504600D01*
X104066600Y-116094600D02*
X104066600Y-107504600D01*
X102876600Y-116094600D02*
X104066600Y-116094600D01*
X102876600Y-109574600D02*
X102876600Y-116094600D01*
X101386600Y-109574600D02*
X102876600Y-109574600D01*
X101386600Y-108414600D02*
X101386600Y-109574600D01*
X93796600Y-108414600D02*
X101386600Y-108414600D01*
X93796600Y-109594600D02*
X93796600Y-108414600D01*
X91916600Y-109594600D02*
X93796600Y-109594600D01*
X91916600Y-115724600D02*
X91916600Y-109594600D01*
X89376600Y-115724600D02*
X91916600Y-115724600D01*
X89376600Y-98774600D02*
X89376600Y-115724600D01*
X88416600Y-98774600D02*
X89376600Y-98774600D01*
X88416600Y-97654600D02*
X88416600Y-98774600D01*
X87646600Y-97654600D02*
X88416600Y-97654600D01*
X87646600Y-96794600D02*
X87646600Y-97654600D01*
X86786600Y-96794600D02*
X87646600Y-96794600D01*
X86786600Y-96284600D02*
X86786600Y-96794600D01*
X85816600Y-96284600D02*
X86786600Y-96284600D01*
X85816600Y-94124600D02*
X85816600Y-96284600D01*
X85286600Y-94124600D02*
X85816600Y-94124600D01*
X85286600Y-96304600D02*
X85286600Y-94124600D01*
X84406600Y-96304600D02*
X85286600Y-96304600D01*
X84406600Y-96774600D02*
X84406600Y-96304600D01*
X83446600Y-96774600D02*
X84406600Y-96774600D01*
X83446600Y-97624600D02*
X83446600Y-96774600D01*
X82736600Y-97624600D02*
X83446600Y-97624600D01*
X82736600Y-98754600D02*
X82736600Y-97624600D01*
X81746600Y-98754600D02*
X82736600Y-98754600D01*
X81746600Y-113224600D02*
X81746600Y-98754600D01*
X79296600Y-113224600D02*
X81746600Y-113224600D01*
X79296600Y-103054600D02*
X79296600Y-113224600D01*
X72076600Y-103054600D02*
X79296600Y-103054600D01*
X72076600Y-114444600D02*
X72076600Y-103054600D01*
X69686600Y-114444600D02*
X72076600Y-114444600D01*
X69686600Y-99574600D02*
X69686600Y-114444600D01*
X64356600Y-99574600D02*
X69686600Y-99574600D01*
X64356600Y-106374600D02*
X64356600Y-99574600D01*
X63016600Y-106374600D02*
X64356600Y-106374600D01*
X63016600Y-111964600D02*
X63016600Y-106374600D01*
X61366600Y-111964600D02*
X63016600Y-111964600D01*
X61366600Y-116434600D02*
X61366600Y-111964600D01*
X52866600Y-103534600D02*
X55866600Y-100534600D01*
X52866600Y-114574600D02*
X52866600Y-103534600D01*
X50096600Y-114574600D02*
X52866600Y-114574600D01*
X50096600Y-112814600D02*
X50096600Y-114574600D01*
X44866600Y-112814600D02*
X50096600Y-112814600D01*
X44866600Y-117554600D02*
X44866600Y-112814600D01*
X40616600Y-117554600D02*
X44866600Y-117554600D01*
M02*
